Coda-Regular.ufo
<glyph name="plus" format="1">
  <advance width="1328"/>
  <unicode hex="002B"/>
  <outline>
    <contour>
      <point x="179.886993408" y="811" type="line"/>
      <point x="409.403991699" y="811" type="line" smooth="yes"/>
      <point x="446.699005127" y="811"/>
      <point x="469.0" y="833.300994873"/>
      <point x="469.0" y="870.595993042" type="curve" smooth="yes"/>
      <point x="469.0" y="1116.11000061" type="line" smooth="yes"/>
      <point x="469.0" y="1163.60002136"/>
      <point x="497.397003174" y="1192.00001526"/>
      <point x="544.886993408" y="1192.00001526" type="curve" smooth="yes"/>
      <point x="785.112991333" y="1192.00001526" type="line" smooth="yes"/>
      <point x="832.602981567" y="1192.00001526"/>
      <point x="860.999984741" y="1163.60002136"/>
      <point x="860.999984741" y="1116.11001587" type="curve" smooth="yes"/>
      <point x="860.999984741" y="870.596008301" type="line" smooth="yes"/>
      <point x="860.999984741" y="833.300994873"/>
      <point x="883.300979614" y="811.0"/>
      <point x="920.595977783" y="811.0" type="curve" smooth="yes"/>
      <point x="1149.10998535" y="811.0" type="line" smooth="yes"/>
      <point x="1196.6000061" y="811.0"/>
      <point x="1225.0" y="782.602996826"/>
      <point x="1225.0" y="735.113006592" type="curve" smooth="yes"/>
      <point x="1225.0" y="553.887008667" type="line" smooth="yes"/>
      <point x="1225.0" y="506.397018433"/>
      <point x="1196.6000061" y="478.000015259"/>
      <point x="1149.11000061" y="478.000015259" type="curve" smooth="yes"/>
      <point x="920.595993042" y="478.000015259" type="line" smooth="yes"/>
      <point x="883.300979614" y="478.000015259"/>
      <point x="860.999984741" y="455.699020386"/>
      <point x="860.999984741" y="418.404022217" type="curve" smooth="yes"/>
      <point x="860.999984741" y="175.887023926" type="line" smooth="yes"/>
      <point x="860.999984741" y="128.397033691"/>
      <point x="832.602981567" y="100.000030518"/>
      <point x="785.112991333" y="100.000030518" type="curve" smooth="yes"/>
      <point x="544.886993408" y="100.000030518" type="line" smooth="yes"/>
      <point x="497.397003174" y="100.000030518"/>
      <point x="469.0" y="128.397033691"/>
      <point x="469.0" y="175.887023926" type="curve" smooth="yes"/>
      <point x="469.0" y="418.404022217" type="line" smooth="yes"/>
      <point x="469.0" y="455.699035645"/>
      <point x="446.699005127" y="478.000030518"/>
      <point x="409.404006958" y="478.000030518" type="curve" smooth="yes"/>
      <point x="179.887008667" y="478.000030518" type="line" smooth="yes"/>
      <point x="132.397018433" y="478.000030518"/>
      <point x="104.000015259" y="506.397033691"/>
      <point x="104.000015259" y="553.887023926" type="curve" smooth="yes"/>
      <point x="104.000015259" y="735.113021851" type="line" smooth="yes"/>
      <point x="104.000015259" y="782.603012085"/>
      <point x="132.397018433" y="811.000015259"/>
      <point x="179.887008667" y="811.000015259" type="curve"/>
    </contour>
  </outline>
</glyph>
<glyph name="hyphen" format="1">
  <advance width="1328"/>
  <unicode hex="002D"/>
  <outline>
    <contour>
      <point x="239.886993408" y="811" type="line"/>
      <point x="1089.11000061" y="811" type="line" smooth="yes"/>
      <point x="1136.60002136" y="811"/>
      <point x="1165.00001526" y="782.602996826"/>
      <point x="1165.00001526" y="735.113006592" type="curve" smooth="yes"/>
      <point x="1165.00001526" y="553.887008667" type="line" smooth="yes"/>
      <point x="1165.00001526" y="506.397018433"/>
      <point x="1136.60002136" y="478.000015259"/>
      <point x="1089.11001587" y="478.000015259" type="curve" smooth="yes"/>
      <point x="239.887008667" y="478.000015259" type="line" smooth="yes"/>
      <point x="192.397018433" y="478.000015259"/>
      <point x="164.000015259" y="506.397018433"/>
      <point x="164.000015259" y="553.887008667" type="curve" smooth="yes"/>
      <point x="164.000015259" y="735.113006592" type="line" smooth="yes"/>
      <point x="164.000015259" y="782.602996826"/>
      <point x="192.397018433" y="811.0"/>
      <point x="239.887008667" y="811.0" type="curve"/>
    </contour>
  </outline>
</glyph>
<glyph name="slash" format="1">
  <advance width="1056"/>
  <unicode hex="002F"/>
  <outline>
    <contour>
      <point x="495.113006592" y="0" type="line"/>
      <point x="211.887008667" y="0" type="line" smooth="yes"/>
      <point x="166.8150177" y="0"/>
      <point x="142.641021729" y="30.0904998779"/>
      <point x="152.354019165" y="74.1042022705" type="curve" smooth="yes"/>
      <point x="471.646026611" y="1520.88999939" type="line" smooth="yes"/>
      <point x="482.266036987" y="1569.00997925"/>
      <point x="514.607025146" y="1594.99998474"/>
      <point x="563.887023926" y="1594.99998474" type="curve" smooth="yes"/>
      <point x="846.113021851" y="1594.99998474" type="line" smooth="yes"/>
      <point x="891.193008423" y="1594.99998474"/>
      <point x="915.379013062" y="1564.9099884"/>
      <point x="905.6900177" y="1520.88998413" type="curve" smooth="yes"/>
      <point x="587.310012817" y="74.1041870117" type="line" smooth="yes"/>
      <point x="576.719009399" y="25.9792022705"/>
      <point x="544.389022827" y="0.0"/>
      <point x="495.113021851" y="0.0" type="curve" smooth="yes"/>
    </contour>
  </outline>
</glyph>
<glyph name="one" format="1">
  <advance width="961"/>
  <unicode hex="0031"/>
  <outline>
    <contour>
      <point x="41" y="1366.88999939" type="line"/>
      <point x="41" y="1431.56999207" type="line" smooth="yes"/>
      <point x="41" y="1482.29998779"/>
      <point x="66.2595977783" y="1509.84999084"/>
      <point x="116.794006348" y="1514.24998474" type="curve" smooth="yes"/>
      <point x="191.901992798" y="1520.78997803"/>
      <point x="260.869003296" y="1537.00997925"/>
      <point x="320.087997437" y="1561.19998169" type="curve" smooth="yes"/>
      <point x="381.753005981" y="1586.38998413"/>
      <point x="425.598999023" y="1594.99998474"/>
      <point x="492.212005615" y="1594.99998474" type="curve" smooth="yes"/>
      <point x="790.113006592" y="1594.99998474" type="line" smooth="yes"/>
      <point x="837.602996826" y="1594.99998474"/>
      <point x="866.0" y="1566.59999084"/>
      <point x="866.0" y="1519.10998535" type="curve" smooth="yes"/>
      <point x="866.0" y="75.8872833252" type="line" smooth="yes"/>
      <point x="866.0" y="28.396987915"/>
      <point x="837.602996826" y="-1.52587890625e-05"/>
      <point x="790.113006592" y="-1.52587890625e-05" type="curve" smooth="yes"/>
      <point x="337.887008667" y="-1.52587890625e-05" type="line" smooth="yes"/>
      <point x="290.397018433" y="-1.52587890625e-05"/>
      <point x="262.000015259" y="28.396987915"/>
      <point x="262.000015259" y="75.8872833252" type="curve" smooth="yes"/>
      <point x="262.000015259" y="1231.39997864" type="line" smooth="yes"/>
      <point x="262.000015259" y="1268.69998169"/>
      <point x="239.699020386" y="1290.99998474"/>
      <point x="202.404022217" y="1290.99998474" type="curve" smooth="yes"/>
      <point x="116.887023926" y="1290.99998474" type="line" smooth="yes"/>
      <point x="69.3970336914" y="1290.99998474"/>
      <point x="41.0000305176" y="1319.39997864"/>
      <point x="41.0000305176" y="1366.88998413" type="curve"/>
    </contour>
  </outline>
</glyph>
<glyph name="two" format="1">
  <advance width="1403"/>
  <unicode hex="0032"/>
  <outline>
    <contour>
      <point x="554.113006592" y="1064" type="line"/>
      <point x="106.878005981" y="1064" type="line" smooth="yes"/>
      <point x="88.6316223145" y="1064"/>
      <point x="77.4643096924" y="1074.72999573"/>
      <point x="76.7383117676" y="1092.96000671" type="curve" smooth="yes"/>
      <point x="76.3012084961" y="1103.94000244"/>
      <point x="76.0000152588" y="1114.11999512"/>
      <point x="76.0000152588" y="1124.0" type="curve" smooth="yes"/>
      <point x="76.0000152588" y="1536.0"/>
      <point x="347.000015259" y="1633.0"/>
      <point x="718.000015259" y="1633.0" type="curve" smooth="yes"/>
      <point x="1139.00001526" y="1633.0"/>
      <point x="1349.00001526" y="1500.0"/>
      <point x="1349.00001526" y="1125.0" type="curve" smooth="yes"/>
      <point x="1349.00001526" y="776.0"/>
      <point x="1076.00001526" y="650.0"/>
      <point x="858.000015259" y="545.0" type="curve" smooth="yes"/>
      <point x="770.271011353" y="502.791000366"/>
      <point x="671.581008911" y="446.880996704"/>
      <point x="640.167022705" y="359.697998047" type="curve" smooth="yes"/>
      <point x="630.070022583" y="331.677001953"/>
      <point x="651.624008179" y="301.0"/>
      <point x="681.409011841" y="301.0" type="curve" smooth="yes"/>
      <point x="1201.11001587" y="301.0" type="line" smooth="yes"/>
      <point x="1248.60003662" y="301.0"/>
      <point x="1277.00003052" y="272.602996826"/>
      <point x="1277.00003052" y="225.113006592" type="curve" smooth="yes"/>
      <point x="1277.00003052" y="76.8873138428" type="line" smooth="yes"/>
      <point x="1277.00003052" y="29.3970184326"/>
      <point x="1248.60003662" y="1.00001525879"/>
      <point x="1201.11003113" y="1.00001525879" type="curve" smooth="yes"/>
      <point x="153.887023926" y="1.00001525879" type="line" smooth="yes"/>
      <point x="106.397033691" y="1.00001525879"/>
      <point x="78.0000305176" y="29.3970184326"/>
      <point x="78.0000305176" y="76.8873138428" type="curve" smooth="yes"/>
      <point x="78.0000305176" y="201.000015259" type="line" smooth="yes"/>
      <point x="78.0000305176" y="599.000015259"/>
      <point x="289.000030518" y="758.000015259"/>
      <point x="573.000030518" y="890.000015259" type="curve" smooth="yes"/>
      <point x="667.000030518" y="936.000015259"/>
      <point x="782.000030518" y="989.000015259"/>
      <point x="782.000030518" y="1086.00001526" type="curve" smooth="yes"/>
      <point x="782.000030518" y="1298.40000916" type="line" smooth="yes"/>
      <point x="782.000030518" y="1335.70001221"/>
      <point x="759.699035645" y="1358.00001526"/>
      <point x="722.404037476" y="1358.00001526" type="curve" smooth="yes"/>
      <point x="689.596038818" y="1358.00001526" type="line" smooth="yes"/>
      <point x="652.301025391" y="1358.00001526"/>
      <point x="630.000030518" y="1335.70001221"/>
      <point x="630.000030518" y="1298.40000916" type="curve" smooth="yes"/>
      <point x="630.000030518" y="1139.89001465" type="line" smooth="yes"/>
      <point x="630.000030518" y="1092.3999939"/>
      <point x="601.603027344" y="1064.0"/>
      <point x="554.113037109" y="1064.0" type="curve" smooth="yes"/>
    </contour>
  </outline>
</glyph>
<glyph name="three" format="1">
  <advance width="1436"/>
  <unicode hex="0033"/>
  <outline>
    <contour>
      <point x="72" y="1108" type="line" smooth="yes"/>
      <point x="72" y="1503"/>
      <point x="293" y="1632"/>
      <point x="714" y="1632" type="curve" smooth="yes"/>
      <point x="1147" y="1632"/>
      <point x="1364" y="1506"/>
      <point x="1364" y="1113" type="curve" smooth="yes"/>
      <point x="1364" y="988.160995483"/>
      <point x="1307.08000183" y="900.320007324"/>
      <point x="1216.6499939" y="846.477005005" type="curve" smooth="yes"/>
      <point x="1190.27000427" y="830.774002075"/>
      <point x="1190.47000122" y="810.205993652"/>
      <point x="1217.13999939" y="795.001998901" type="curve" smooth="yes"/>
      <point x="1316.80000305" y="738.197998047"/>
      <point x="1366.0" y="641.113998413"/>
      <point x="1366.0" y="522.0" type="curve" smooth="yes"/>
      <point x="1366.0" y="79.0"/>
      <point x="1111.0" y="-39.0"/>
      <point x="716.0" y="-39.0" type="curve" smooth="yes"/>
      <point x="270.0" y="-39.0"/>
      <point x="71.0" y="142.0"/>
      <point x="71.0" y="517.0" type="curve" smooth="yes"/>
      <point x="71.0" y="533.074996948"/>
      <point x="71.2689056396" y="549.419006348"/>
      <point x="71.946105957" y="566.031997681" type="curve" smooth="yes"/>
      <point x="73.1208953857" y="594.850006104"/>
      <point x="92.0263977051" y="613.0"/>
      <point x="120.867996216" y="613.0" type="curve" smooth="yes"/>
      <point x="551.112991333" y="613.0" type="line" smooth="yes"/>
      <point x="598.602981567" y="613.0"/>
      <point x="626.999984741" y="584.602996826"/>
      <point x="626.999984741" y="537.113006592" type="curve" smooth="yes"/>
      <point x="626.999984741" y="294.596008301" type="line" smooth="yes"/>
      <point x="626.999984741" y="257.300994873"/>
      <point x="649.300979614" y="235.0"/>
      <point x="686.595977783" y="235.0" type="curve" smooth="yes"/>
      <point x="739.40397644" y="235.0" type="line" smooth="yes"/>
      <point x="776.698989868" y="235.0"/>
      <point x="798.999984741" y="257.300994873"/>
      <point x="798.999984741" y="294.595993042" type="curve" smooth="yes"/>
      <point x="798.999984741" y="647.403991699" type="line" smooth="yes"/>
      <point x="798.999984741" y="684.699005127"/>
      <point x="776.698989868" y="707.0"/>
      <point x="739.403991699" y="707.0" type="curve" smooth="yes"/>
      <point x="615.886993408" y="707.0" type="line" smooth="yes"/>
      <point x="568.397003174" y="707.0"/>
      <point x="540.0" y="735.397003174"/>
      <point x="540.0" y="782.886993408" type="curve" smooth="yes"/>
      <point x="540.0" y="855.112991333" type="line" smooth="yes"/>
      <point x="540.0" y="902.602981567"/>
      <point x="568.397003174" y="930.999984741"/>
      <point x="615.886993408" y="930.999984741" type="curve" smooth="yes"/>
      <point x="739.403991699" y="930.999984741" type="line" smooth="yes"/>
      <point x="776.699005127" y="930.999984741"/>
      <point x="799.0" y="953.300979614"/>
      <point x="799.0" y="990.595977783" type="curve" smooth="yes"/>
      <point x="799.0" y="1301.39997864" type="line" smooth="yes"/>
      <point x="799.0" y="1338.69998169"/>
      <point x="776.699005127" y="1360.99998474"/>
      <point x="739.404006958" y="1360.99998474" type="curve" smooth="yes"/>
      <point x="686.596008301" y="1360.99998474" type="line" smooth="yes"/>
      <point x="649.300994873" y="1360.99998474"/>
      <point x="627.0" y="1338.69998169"/>
      <point x="627.0" y="1301.39997864" type="curve" smooth="yes"/>
      <point x="627.0" y="1099.88998413" type="line" smooth="yes"/>
      <point x="627.0" y="1052.39996338"/>
      <point x="598.602996826" y="1023.99996948"/>
      <point x="551.113006592" y="1023.99996948" type="curve" smooth="yes"/>
      <point x="115.311004639" y="1023.99996948" type="line" smooth="yes"/>
      <point x="89.9286956787" y="1023.99996948"/>
      <point x="73.7592010498" y="1039.57997131"/>
      <point x="72.8157958984" y="1064.93997192" type="curve" smooth="yes"/>
      <point x="72.2718963623" y="1079.56997681"/>
      <point x="72.0" y="1093.91996765"/>
      <point x="72.0" y="1107.99996948" type="curve" smooth="yes"/>
    </contour>
  </outline>
</glyph>
<glyph name="four" format="1">
  <advance width="1459"/>
  <unicode hex="0034"/>
  <outline>
    <contour>
      <point x="1377" y="862.113006592" type="line"/>
      <point x="1377" y="75.8873138428" type="line" smooth="yes"/>
      <point x="1377" y="28.3970184326"/>
      <point x="1348.6000061" y="1.52587890625e-05"/>
      <point x="1301.11000061" y="1.52587890625e-05" type="curve" smooth="yes"/>
      <point x="940.886993408" y="1.52587890625e-05" type="line" smooth="yes"/>
      <point x="893.397003174" y="1.52587890625e-05"/>
      <point x="865.0" y="28.3970184326"/>
      <point x="865.0" y="75.8873138428" type="curve" smooth="yes"/>
      <point x="865.0" y="180.404006958" type="line" smooth="yes"/>
      <point x="865.0" y="217.699020386"/>
      <point x="842.699005127" y="240.000015259"/>
      <point x="805.404006958" y="240.000015259" type="curve" smooth="yes"/>
      <point x="148.887008667" y="240.000015259" type="line" smooth="yes"/>
      <point x="101.397018433" y="240.000015259"/>
      <point x="73.0000152588" y="268.397018433"/>
      <point x="73.0000152588" y="315.887008667" type="curve" smooth="yes"/>
      <point x="73.0000152588" y="581.113006592" type="line" smooth="yes"/>
      <point x="73.0000152588" y="626.057006836"/>
      <point x="81.0877227783" y="686.867004395"/>
      <point x="92.8351135254" y="730.24899292" type="curve" smooth="yes"/>
      <point x="307.165008545" y="1521.75" type="line" smooth="yes"/>
      <point x="320.125" y="1569.61000061"/>
      <point x="353.302993774" y="1595.0"/>
      <point x="402.886993408" y="1595.0" type="curve" smooth="yes"/>
      <point x="824.112991333" y="1595.0" type="line" smooth="yes"/>
      <point x="868.614990234" y="1595.0"/>
      <point x="891.886978149" y="1564.67999268"/>
      <point x="880.382980347" y="1521.69000244" type="curve" smooth="yes"/>
      <point x="655.720977783" y="682.115997314" type="line" smooth="yes"/>
      <point x="651.74597168" y="667.261001587"/>
      <point x="648.999969482" y="646.378005981"/>
      <point x="648.999969482" y="631.0" type="curve" smooth="yes"/>
      <point x="648.999969482" y="629.0" type="line" smooth="yes"/>
      <point x="648.999969482" y="612.729003906"/>
      <point x="658.728973389" y="603.0"/>
      <point x="674.999969482" y="603.0" type="curve" smooth="yes"/>
      <point x="805.40397644" y="603.0" type="line" smooth="yes"/>
      <point x="842.698989868" y="603.0"/>
      <point x="864.999984741" y="625.300994873"/>
      <point x="864.999984741" y="662.595993042" type="curve" smooth="yes"/>
      <point x="864.999984741" y="862.112991333" type="line" smooth="yes"/>
      <point x="864.999984741" y="909.602981567"/>
      <point x="893.396987915" y="937.999984741"/>
      <point x="940.886978149" y="937.999984741" type="curve" smooth="yes"/>
      <point x="1301.10998535" y="937.999984741" type="line" smooth="yes"/>
      <point x="1348.6000061" y="937.999984741"/>
      <point x="1377.0" y="909.602981567"/>
      <point x="1377.0" y="862.112991333" type="curve"/>
    </contour>
  </outline>
</glyph>
<glyph name="eight" format="1">
  <advance width="1427"/>
  <unicode hex="0038"/>
  <outline>
    <contour>
      <point x="200.048995972" y="894.936004639" type="line"/>
      <point x="138.614990234" y="952.082992554"/>
      <point x="118.999984741" y="1062.94999695"/>
      <point x="118.999984741" y="1181.0" type="curve" smooth="yes"/>
      <point x="118.999984741" y="1529.0"/>
      <point x="365.999984741" y="1631.0"/>
      <point x="718.999984741" y="1631.0" type="curve" smooth="yes"/>
      <point x="1070.99998474" y="1631.0"/>
      <point x="1309.99998474" y="1528.0"/>
      <point x="1309.99998474" y="1180.0" type="curve" smooth="yes"/>
      <point x="1309.99998474" y="1048.91999817"/>
      <point x="1279.02998352" y="941.24899292"/>
      <point x="1202.24998474" y="888.945007324" type="curve" smooth="yes"/>
      <point x="1178.97998047" y="873.100006104"/>
      <point x="1180.11997986" y="856.942001343"/>
      <point x="1205.33998108" y="844.511993408" type="curve" smooth="yes"/>
      <point x="1320.35998535" y="787.82800293"/>
      <point x="1367.99998474" y="644.794998169"/>
      <point x="1367.99998474" y="470.0" type="curve" smooth="yes"/>
      <point x="1367.99998474" y="34.0"/>
      <point x="1099.99998474" y="-40.0"/>
      <point x="720.999984741" y="-40.0" type="curve" smooth="yes"/>
      <point x="286.999984741" y="-40.0"/>
      <point x="63.9999847412" y="75.0"/>
      <point x="63.9999847412" y="470.0" type="curve" smooth="yes"/>
      <point x="63.9999847412" y="590.378997803"/>
      <point x="82.2623901367" y="765.546005249"/>
      <point x="195.120986938" y="838.848999023" type="curve" smooth="yes"/>
      <point x="223.837982178" y="857.50100708"/>
      <point x="225.066986084" y="871.662994385"/>
      <point x="200.048980713" y="894.936004639" type="curve"/>
    </contour>
    <contour>
      <point x="734.403991699" y="1355.0" type="curve" smooth="yes"/>
      <point x="699.595993042" y="1355.0" type="line" smooth="yes"/>
      <point x="662.300979614" y="1355.0"/>
      <point x="639.999984741" y="1332.69999695"/>
      <point x="639.999984741" y="1295.3999939" type="curve" smooth="yes"/>
      <point x="639.999984741" y="1019.59999084" type="line" smooth="yes"/>
      <point x="639.999984741" y="982.300979614"/>
      <point x="662.300979614" y="959.999984741"/>
      <point x="699.595977783" y="959.999984741" type="curve" smooth="yes"/>
      <point x="734.40397644" y="959.999984741" type="line" smooth="yes"/>
      <point x="771.698989868" y="959.999984741"/>
      <point x="793.999984741" y="982.300979614"/>
      <point x="793.999984741" y="1019.59999084" type="curve" smooth="yes"/>
      <point x="793.999984741" y="1295.3999939" type="line" smooth="yes"/>
      <point x="793.999984741" y="1332.69999695"/>
      <point x="771.698989868" y="1355.0"/>
    </contour>
    <contour>
      <point x="627.999984741" y="660.404006958" type="curve" smooth="yes"/>
      <point x="627.999984741" y="294.596008301" type="line" smooth="yes"/>
      <point x="627.999984741" y="257.300994873"/>
      <point x="650.300979614" y="235.0"/>
      <point x="687.595977783" y="235.0" type="curve" smooth="yes"/>
      <point x="734.40397644" y="235.0" type="line" smooth="yes"/>
      <point x="771.698989868" y="235.0"/>
      <point x="793.999984741" y="257.300994873"/>
      <point x="793.999984741" y="294.595993042" type="curve" smooth="yes"/>
      <point x="793.999984741" y="660.403991699" type="line" smooth="yes"/>
      <point x="793.999984741" y="697.699005127"/>
      <point x="771.698989868" y="720.0"/>
      <point x="734.403991699" y="720.0" type="curve" smooth="yes"/>
      <point x="687.595993042" y="720.0" type="line" smooth="yes"/>
      <point x="650.300979614" y="720.0"/>
      <point x="627.999984741" y="697.699005127"/>
    </contour>
  </outline>
</glyph>
<glyph name="semicolon" format="1">
  <advance width="710"/>
  <unicode hex="003B"/>
  <outline>
    <contour>
      <point x="262.190994263" y="128.587005615" type="line"/>
      <point x="194.213989258" y="156.559005737"/>
      <point x="140.999984741" y="221.526000977"/>
      <point x="140.999984741" y="323.0" type="curve" smooth="yes"/>
      <point x="140.999984741" y="456.0"/>
      <point x="242.999984741" y="523.0"/>
      <point x="344.999984741" y="523.0" type="curve" smooth="yes"/>
      <point x="488.999984741" y="523.0"/>
      <point x="554.999984741" y="412.0"/>
      <point x="554.999984741" y="283.0" type="curve" smooth="yes"/>
      <point x="554.999984741" y="99.0"/>
      <point x="428.999984741" y="-120.0"/>
      <point x="207.999984741" y="-120.0" type="curve" smooth="yes"/>
      <point x="200.561981201" y="-120.0"/>
      <point x="192.842987061" y="-119.718002319"/>
      <point x="184.990982056" y="-119.152999878" type="curve" smooth="yes"/>
      <point x="172.168991089" y="-118.231994629"/>
      <point x="163.999984741" y="-109.453994751"/>
      <point x="163.999984741" y="-96.599395752" type="curve" smooth="yes"/>
      <point x="163.999984741" y="-68.9055023193" type="line" smooth="yes"/>
      <point x="163.999984741" y="-28.474609375"/>
      <point x="176.586990356" y="-11.8882141113"/>
      <point x="217.002990723" y="-0.594390869141" type="curve" smooth="yes"/>
      <point x="240.537979126" y="5.98217773438"/>
      <point x="261.711990356" y="16.8434906006"/>
      <point x="278.678985596" y="31.6478881836" type="curve" smooth="yes"/>
      <point x="307.959991455" y="57.1965789795"/>
      <point x="298.655990601" y="113.581985474"/>
      <point x="262.190979004" y="128.586990356" type="curve"/>
    </contour>
    <contour>
      <point x="344.999984741" y="922.999984741" type="curve" smooth="yes"/>
      <point x="242.999984741" y="922.999984741"/>
      <point x="140.999984741" y="992.999984741"/>
      <point x="140.999984741" y="1132.99998474" type="curve" smooth="yes"/>
      <point x="140.999984741" y="1272.99998474"/>
      <point x="242.999984741" y="1342.99998474"/>
      <point x="344.999984741" y="1342.99998474" type="curve" smooth="yes"/>
      <point x="446.999984741" y="1342.99998474"/>
      <point x="548.999984741" y="1272.99998474"/>
      <point x="548.999984741" y="1132.99998474" type="curve" smooth="yes"/>
      <point x="548.999984741" y="992.999984741"/>
      <point x="446.999984741" y="922.999984741"/>
    </contour>
  </outline>
</glyph>
<glyph name="less" format="1">
  <advance width="1036"/>
  <unicode hex="003C"/>
  <outline>
    <contour>
      <point x="75" y="564.886993408" type="line"/>
      <point x="75" y="1022.11000061" type="line" smooth="yes"/>
      <point x="75" y="1072.76000977"/>
      <point x="96.9308013916" y="1110.49002075"/>
      <point x="140.940002441" y="1135.56001282" type="curve" smooth="yes"/>
      <point x="885.059997559" y="1559.4400177" type="line" smooth="yes"/>
      <point x="920.322006226" y="1579.52001953"/>
      <point x="951.0" y="1561.6900177"/>
      <point x="951.0" y="1521.11001587" type="curve" smooth="yes"/>
      <point x="951.0" y="1167.89001465" type="line" smooth="yes"/>
      <point x="951.0" y="1117.3999939"/>
      <point x="928.195007324" y="1080.80999756"/>
      <point x="882.876998901" y="1058.55999756" type="curve" smooth="yes"/>
      <point x="403.498001099" y="823.259994507" type="line" smooth="yes"/>
      <point x="376.749008179" y="810.129989624"/>
      <point x="376.784011841" y="783.941986084"/>
      <point x="403.569015503" y="770.883987427" type="curve" smooth="yes"/>
      <point x="882.787017822" y="537.254989624" type="line" smooth="yes"/>
      <point x="928.157028198" y="515.135986328"/>
      <point x="951.000030518" y="478.586990356"/>
      <point x="951.000030518" y="428.112991333" type="curve" smooth="yes"/>
      <point x="951.000030518" y="75.887298584" type="line" smooth="yes"/>
      <point x="951.000030518" y="35.1638946533"/>
      <point x="920.296035767" y="17.1394958496"/>
      <point x="884.738037109" y="36.9889068604" type="curve" smooth="yes"/>
      <point x="141.262039185" y="452.011001587" type="line" smooth="yes"/>
      <point x="97.0551452637" y="476.688018799"/>
      <point x="75.0000457764" y="514.259017944"/>
      <point x="75.0000457764" y="564.887008667" type="curve"/>
    </contour>
  </outline>
</glyph>
<glyph name="equal" format="1">
  <advance width="1008"/>
  <unicode hex="003D"/>
  <outline>
    <contour>
      <point x="164.886993408" y="336.0" type="curve" smooth="yes"/>
      <point x="847.112991333" y="336" type="line" smooth="yes"/>
      <point x="894.602981567" y="336"/>
      <point x="922.999984741" y="307.602996826"/>
      <point x="922.999984741" y="260.113006592" type="curve" smooth="yes"/>
      <point x="922.999984741" y="75.8873138428" type="line" smooth="yes"/>
      <point x="922.999984741" y="28.3970184326"/>
      <point x="894.602981567" y="1.52587890625e-05"/>
      <point x="847.112991333" y="1.52587890625e-05" type="curve" smooth="yes"/>
      <point x="164.886993408" y="1.52587890625e-05" type="line" smooth="yes"/>
      <point x="117.397003174" y="1.52587890625e-05"/>
      <point x="89.0" y="28.3970184326"/>
      <point x="89.0" y="75.8873138428" type="curve" smooth="yes"/>
      <point x="89.0" y="260.113006592" type="line" smooth="yes"/>
      <point x="89.0" y="307.602996826"/>
      <point x="117.397003174" y="336.0"/>
    </contour>
    <contour>
      <point x="164.886993408" y="897.0" type="curve" smooth="yes"/>
      <point x="847.112991333" y="897.0" type="line" smooth="yes"/>
      <point x="894.602981567" y="897.0"/>
      <point x="922.999984741" y="868.602996826"/>
      <point x="922.999984741" y="821.113006592" type="curve" smooth="yes"/>
      <point x="922.999984741" y="636.887008667" type="line" smooth="yes"/>
      <point x="922.999984741" y="589.397018433"/>
      <point x="894.602981567" y="561.000015259"/>
      <point x="847.112991333" y="561.000015259" type="curve" smooth="yes"/>
      <point x="164.886993408" y="561.000015259" type="line" smooth="yes"/>
      <point x="117.397003174" y="561.000015259"/>
      <point x="89.0" y="589.397018433"/>
      <point x="89.0" y="636.887008667" type="curve" smooth="yes"/>
      <point x="89.0" y="821.113006592" type="line" smooth="yes"/>
      <point x="89.0" y="868.602996826"/>
      <point x="117.397003174" y="897.0"/>
    </contour>
  </outline>
</glyph>
<glyph name="greater" format="1">
  <advance width="1035"/>
  <unicode hex="003E"/>
  <outline>
    <contour>
      <point x="963" y="1022.11000061" type="line"/>
      <point x="963" y="564.886993408" type="line" smooth="yes"/>
      <point x="963" y="514.259994507"/>
      <point x="940.93800354" y="476.699005127"/>
      <point x="896.720001221" y="452.042999268" type="curve" smooth="yes"/>
      <point x="152.279998779" y="36.9568023682" type="line" smooth="yes"/>
      <point x="116.705001831" y="17.1208190918"/>
      <point x="86.0" y="35.1559143066"/>
      <point x="86.0" y="75.8873138428" type="curve" smooth="yes"/>
      <point x="86.0" y="428.113006592" type="line" smooth="yes"/>
      <point x="86.0" y="478.587005615"/>
      <point x="108.843002319" y="515.136001587"/>
      <point x="154.212997437" y="537.255004883" type="curve" smooth="yes"/>
      <point x="633.430999756" y="770.884002686" type="line" smooth="yes"/>
      <point x="660.216003418" y="783.942001343"/>
      <point x="660.25100708" y="810.130004883"/>
      <point x="633.501998901" y="823.259994507" type="curve" smooth="yes"/>
      <point x="154.123001099" y="1058.55999756" type="line" smooth="yes"/>
      <point x="108.805007935" y="1080.80999756"/>
      <point x="86.0000152588" y="1117.3999939"/>
      <point x="86.0000152588" y="1167.88999939" type="curve" smooth="yes"/>
      <point x="86.0000152588" y="1521.11000061" type="line" smooth="yes"/>
      <point x="86.0000152588" y="1561.70001221"/>
      <point x="116.680007935" y="1579.54000854"/>
      <point x="151.958007812" y="1559.47001648" type="curve" smooth="yes"/>
      <point x="897.042007446" y="1135.53001404" type="line" smooth="yes"/>
      <point x="941.062011719" y="1110.48001099"/>
      <point x="963.000015259" y="1072.76000977"/>
      <point x="963.000015259" y="1022.11001587" type="curve"/>
    </contour>
  </outline>
</glyph>
<glyph name="at" format="1">
  <advance width="2198"/>
  <unicode hex="0040"/>
  <outline>
    <contour>
      <point x="2133" y="878" type="line"/>
      <point x="2133" y="421.938995361"/>
      <point x="2050.72999573" y="105.824005127"/>
      <point x="1592.88000488" y="88.7292938232" type="curve" smooth="yes"/>
      <point x="1564.30999756" y="87.662399292"/>
      <point x="1501.28999329" y="90.1132965088"/>
      <point x="1477.22999573" y="92.8945007324" type="curve" smooth="yes"/>
      <point x="1374.94000244" y="104.716995239"/>
      <point x="1292.6000061" y="137.524002075"/>
      <point x="1237.55999756" y="193.462997437" type="curve" smooth="yes"/>
      <point x="1209.63999939" y="221.839004517"/>
      <point x="1190.72999573" y="222.326004028"/>
      <point x="1161.38999939" y="195.427001953" type="curve" smooth="yes"/>
      <point x="1110.49000549" y="148.757003784"/>
      <point x="1041.86000061" y="113.0"/>
      <point x="950.0" y="113.0" type="curve" smooth="yes"/>
      <point x="733.0" y="113.0"/>
      <point x="620.0" y="199.0"/>
      <point x="613.0" y="405.0" type="curve" smooth="yes"/>
      <point x="612.0" y="435.0"/>
      <point x="612.0" y="464.0"/>
      <point x="612.0" y="493.0" type="curve" smooth="yes"/>
      <point x="612.0" y="732.0"/>
      <point x="708.0" y="836.0"/>
      <point x="950.0" y="836.0" type="curve" smooth="yes"/>
      <point x="1019.02999878" y="836.0"/>
      <point x="1075.41999817" y="829.192993164"/>
      <point x="1121.19999695" y="813.54699707" type="curve" smooth="yes"/>
      <point x="1155.30000305" y="801.893997192"/>
      <point x="1175.0" y="815.983001709"/>
      <point x="1175.0" y="852.01499939" type="curve" smooth="yes"/>
      <point x="1175.0" y="993.5" type="line" smooth="yes"/>
      <point x="1175.0" y="1011.33999634"/>
      <point x="1164.33999634" y="1022.0"/>
      <point x="1146.5" y="1022.0" type="curve" smooth="yes"/>
      <point x="1144.5" y="1022.0" type="line" smooth="yes"/>
      <point x="1126.66000366" y="1022.0"/>
      <point x="1116.0" y="1011.33999634"/>
      <point x="1116.0" y="993.5" type="curve" smooth="yes"/>
      <point x="1116.0" y="953.5" type="line" smooth="yes"/>
      <point x="1116.0" y="911.884002686"/>
      <point x="1091.11999512" y="887.0"/>
      <point x="1049.5" y="887.0" type="curve" smooth="yes"/>
      <point x="697.746994019" y="887.0" type="line" smooth="yes"/>
      <point x="676.445983887" y="887.0"/>
      <point x="663.983978271" y="899.194000244"/>
      <point x="663.521987915" y="920.488998413" type="curve" smooth="yes"/>
      <point x="663.264984131" y="932.326004028"/>
      <point x="662.999984741" y="944.162994385"/>
      <point x="662.999984741" y="956.0" type="curve" smooth="yes"/>
      <point x="662.999984741" y="1204.0"/>
      <point x="857.999984741" y="1248.0"/>
      <point x="1137.99998474" y="1248.0" type="curve" smooth="yes"/>
      <point x="1495.99998474" y="1248.0"/>
      <point x="1606.99998474" y="1146.0"/>
      <point x="1606.99998474" y="837.0" type="curve" smooth="yes"/>
      <point x="1606.99998474" y="389.595993042" type="line" smooth="yes"/>
      <point x="1606.99998474" y="352.300979614"/>
      <point x="1629.29998779" y="329.999984741"/>
      <point x="1666.59999084" y="329.999984741" type="curve" smooth="yes"/>
      <point x="1717.3999939" y="329.999984741" type="line" smooth="yes"/>
      <point x="1754.69999695" y="329.999984741"/>
      <point x="1777.0" y="352.300979614"/>
      <point x="1777.0" y="389.595977783" type="curve" smooth="yes"/>
      <point x="1777.0" y="831.999984741" type="line" smooth="yes"/>
      <point x="1777.0" y="1338.99998474"/>
      <point x="1587.0" y="1423.99998474"/>
      <point x="1152.0" y="1423.99998474" type="curve" smooth="yes"/>
      <point x="565.0" y="1423.99998474"/>
      <point x="428.0" y="1203.99998474"/>
      <point x="428.0" y="691.999984741" type="curve" smooth="yes"/>
      <point x="428.0" y="58.9999847412"/>
      <point x="589.0" y="-58.0000152588"/>
      <point x="1222.0" y="-58.0000152588" type="curve" smooth="yes"/>
      <point x="1312.03999329" y="-58.0000152588"/>
      <point x="1419.1000061" y="-43.4073181152"/>
      <point x="1630.05999756" y="4.75665283203" type="curve" smooth="yes"/>
      <point x="1676.58999634" y="15.3806915283"/>
      <point x="1710.33000183" y="-5.83837890625"/>
      <point x="1720.91999817" y="-52.379119873" type="curve" smooth="yes"/>
      <point x="1746.05999756" y="-162.902023315" type="line" smooth="yes"/>
      <point x="1756.3999939" y="-208.390014648"/>
      <point x="1737.88000488" y="-249.684020996"/>
      <point x="1697.02000427" y="-272.20401001" type="curve" smooth="yes"/>
      <point x="1572.47000122" y="-340.865020752"/>
      <point x="1414.08999634" y="-393.000015259"/>
      <point x="1240.0" y="-393.000015259" type="curve" smooth="yes"/>
      <point x="425.0" y="-393.000015259"/>
      <point x="74.0" y="-177.000015259"/>
      <point x="74.0" y="686.999984741" type="curve" smooth="yes"/>
      <point x="74.0" y="1494.99998474"/>
      <point x="440.0" y="1740.99998474"/>
      <point x="1148.0" y="1740.99998474" type="curve" smooth="yes"/>
      <point x="1840.0" y="1740.99998474"/>
      <point x="2133.0" y="1507.99998474"/>
      <point x="2133.0" y="877.999984741" type="curve"/>
    </contour>
    <contour>
      <point x="1128.5" y="640.999984741" type="curve" smooth="yes"/>
      <point x="1126.5" y="640.999984741" type="line" smooth="yes"/>
      <point x="1098.02999878" y="640.999984741"/>
      <point x="1081.0" y="623.973983765"/>
      <point x="1081.0" y="595.499984741" type="curve" smooth="yes"/>
      <point x="1081.0" y="381.499984741" type="line" smooth="yes"/>
      <point x="1081.0" y="353.025985718"/>
      <point x="1098.02999878" y="335.999984741"/>
      <point x="1126.5" y="335.999984741" type="curve" smooth="yes"/>
      <point x="1128.5" y="335.999984741" type="line" smooth="yes"/>
      <point x="1156.97000122" y="335.999984741"/>
      <point x="1174.0" y="353.025985718"/>
      <point x="1174.0" y="381.499984741" type="curve" smooth="yes"/>
      <point x="1174.0" y="595.499984741" type="line" smooth="yes"/>
      <point x="1174.0" y="623.973983765"/>
      <point x="1156.97000122" y="640.999984741"/>
    </contour>
  </outline>
</glyph>
<glyph name="F" format="1">
  <advance width="1102"/>
  <unicode hex="0046"/>
  <outline>
    <contour>
      <point x="179.886993408" y="1595" type="line"/>
      <point x="973.112991333" y="1595" type="line" smooth="yes"/>
      <point x="1020.59999084" y="1595"/>
      <point x="1048.99998474" y="1566.6000061"/>
      <point x="1048.99998474" y="1519.11000061" type="curve" smooth="yes"/>
      <point x="1048.99998474" y="1421.88999939" type="line" smooth="yes"/>
      <point x="1048.99998474" y="1374.39997864"/>
      <point x="1020.59999084" y="1345.99998474"/>
      <point x="973.112991333" y="1345.99998474" type="curve" smooth="yes"/>
      <point x="767.595993042" y="1345.99998474" type="line" smooth="yes"/>
      <point x="730.300979614" y="1345.99998474"/>
      <point x="707.999984741" y="1323.69998169"/>
      <point x="707.999984741" y="1286.39997864" type="curve" smooth="yes"/>
      <point x="707.999984741" y="1013.59997559" type="line" smooth="yes"/>
      <point x="707.999984741" y="976.300964355"/>
      <point x="730.300979614" y="953.999969482"/>
      <point x="767.595977783" y="953.999969482" type="curve" smooth="yes"/>
      <point x="950.112976074" y="953.999969482" type="line" smooth="yes"/>
      <point x="997.602966309" y="953.999969482"/>
      <point x="1025.99996948" y="925.602966309"/>
      <point x="1025.99996948" y="878.112976074" type="curve" smooth="yes"/>
      <point x="1025.99996948" y="780.886978149" type="line" smooth="yes"/>
      <point x="1025.99996948" y="733.396987915"/>
      <point x="997.602966309" y="704.999984741"/>
      <point x="950.112976074" y="704.999984741" type="curve" smooth="yes"/>
      <point x="767.595977783" y="704.999984741" type="line" smooth="yes"/>
      <point x="730.300964355" y="704.999984741"/>
      <point x="707.999969482" y="682.698989868"/>
      <point x="707.999969482" y="645.403991699" type="curve" smooth="yes"/>
      <point x="707.999969482" y="75.887298584" type="line" smooth="yes"/>
      <point x="707.999969482" y="28.3970031738"/>
      <point x="679.602966309" y="0.0"/>
      <point x="632.112976074" y="0.0" type="curve" smooth="yes"/>
      <point x="179.886978149" y="0.0" type="line" smooth="yes"/>
      <point x="132.396987915" y="0.0"/>
      <point x="103.999984741" y="28.3970031738"/>
      <point x="103.999984741" y="75.887298584" type="curve" smooth="yes"/>
      <point x="103.999984741" y="1519.11000061" type="line" smooth="yes"/>
      <point x="103.999984741" y="1566.60002136"/>
      <point x="132.396987915" y="1595.00001526"/>
      <point x="179.886978149" y="1595.00001526" type="curve"/>
    </contour>
  </outline>
</glyph>
<glyph name="J" format="1">
  <advance width="908"/>
  <unicode hex="004A"/>
  <outline>
    <contour>
      <point x="302.886993408" y="1594" type="line"/>
      <point x="755.112991333" y="1594" type="line" smooth="yes"/>
      <point x="802.602981567" y="1594"/>
      <point x="830.999984741" y="1565.6000061"/>
      <point x="830.999984741" y="1518.11000061" type="curve" smooth="yes"/>
      <point x="830.999984741" y="274.0" type="line" smooth="yes"/>
      <point x="830.999984741" y="-44.0"/>
      <point x="603.999984741" y="-159.0"/>
      <point x="309.999984741" y="-159.0" type="curve" smooth="yes"/>
      <point x="252.097991943" y="-159.0"/>
      <point x="191.128982544" y="-154.401000977"/>
      <point x="128.92098999" y="-145.934005737" type="curve" smooth="yes"/>
      <point x="82.096786499" y="-139.559997559"/>
      <point x="53.9999847412" y="-107.380004883"/>
      <point x="53.9999847412" y="-60.1233062744" type="curve" smooth="yes"/>
      <point x="53.9999847412" y="62.1126861572" type="line" smooth="yes"/>
      <point x="53.9999847412" y="109.602981567"/>
      <point x="82.396987915" y="137.999984741"/>
      <point x="129.886978149" y="137.999984741" type="curve" smooth="yes"/>
      <point x="167.40397644" y="137.999984741" type="line" smooth="yes"/>
      <point x="204.698989868" y="137.999984741"/>
      <point x="226.999984741" y="160.300979614"/>
      <point x="226.999984741" y="197.595977783" type="curve" smooth="yes"/>
      <point x="226.999984741" y="1518.10998535" type="line" smooth="yes"/>
      <point x="226.999984741" y="1565.6000061"/>
      <point x="255.396987915" y="1594.0"/>
      <point x="302.886978149" y="1594.0" type="curve" smooth="yes"/>
    </contour>
  </outline>
</glyph>
<glyph name="K" format="1">
  <advance width="1725"/>
  <unicode hex="004B"/>
  <outline>
    <contour>
      <point x="1622.11000061" y="0.0" type="curve" smooth="yes"/>
      <point x="1136.88999939" y="0" type="line" smooth="yes"/>
      <point x="1086.79998779" y="0"/>
      <point x="1051.99998474" y="24.1831970215"/>
      <point x="1034.52998352" y="71.1224975586" type="curve" smooth="yes"/>
      <point x="815.348983765" y="660.128997803" type="line" smooth="yes"/>
      <point x="807.366989136" y="681.57699585"/>
      <point x="788.87298584" y="687.966995239"/>
      <point x="769.352981567" y="676.022003174" type="curve" smooth="yes"/>
      <point x="767.646987915" y="674.977996826" type="line" smooth="yes"/>
      <point x="745.88899231" y="661.664001465"/>
      <point x="735.781982422" y="642.257995605"/>
      <point x="737.343978882" y="616.79699707" type="curve" smooth="yes"/>
      <point x="744.999984741" y="492.0" type="line"/>
      <point x="744.999984741" y="75.887298584" type="line" smooth="yes"/>
      <point x="744.999984741" y="28.3970031738"/>
      <point x="716.602981567" y="0.0"/>
      <point x="669.112991333" y="0.0" type="curve" smooth="yes"/>
      <point x="215.886993408" y="0.0" type="line" smooth="yes"/>
      <point x="168.397003174" y="0.0"/>
      <point x="140.0" y="28.3970031738"/>
      <point x="140.0" y="75.887298584" type="curve" smooth="yes"/>
      <point x="140.0" y="1519.11000061" type="line" smooth="yes"/>
      <point x="140.0" y="1566.60002136"/>
      <point x="168.397003174" y="1595.00001526"/>
      <point x="215.886993408" y="1595.00001526" type="curve" smooth="yes"/>
      <point x="669.112991333" y="1595.00001526" type="line" smooth="yes"/>
      <point x="716.602981567" y="1595.00001526"/>
      <point x="744.999984741" y="1566.60002136"/>
      <point x="744.999984741" y="1519.11001587" type="curve" smooth="yes"/>
      <point x="744.999984741" y="994.000015259" type="line"/>
      <point x="736.228988647" y="867.699020386" type="line" smooth="yes"/>
      <point x="735.449981689" y="856.476013184"/>
      <point x="741.407989502" y="848.961013794"/>
      <point x="752.512985229" y="847.160018921" type="curve" smooth="yes"/>
      <point x="754.486984253" y="846.840011597" type="line" smooth="yes"/>
      <point x="765.599990845" y="845.038009644"/>
      <point x="773.645980835" y="850.271011353"/>
      <point x="776.502990723" y="861.161010742" type="curve" smooth="yes"/>
      <point x="790.753997803" y="915.467010498" type="line" smooth="yes"/>
      <point x="800.630004883" y="953.104995728"/>
      <point x="820.589004517" y="1015.86999512"/>
      <point x="834.26499939" y="1052.30000305" type="curve" smooth="yes"/>
      <point x="1011.33000183" y="1523.94999695" type="line" smooth="yes"/>
      <point x="1028.9400177" y="1570.85998535"/>
      <point x="1063.79000854" y="1594.99998474"/>
      <point x="1113.89001465" y="1594.99998474" type="curve" smooth="yes"/>
      <point x="1581.11001587" y="1594.99998474" type="line" smooth="yes"/>
      <point x="1623.19003296" y="1594.99998474"/>
      <point x="1642.99003601" y="1564.22998047"/>
      <point x="1625.55003357" y="1525.93998718" type="curve" smooth="yes"/>
      <point x="1339.70002747" y="898.236984253" type="line" smooth="yes"/>
      <point x="1323.1900177" y="861.992980957"/>
      <point x="1323.17001343" y="825.995986938"/>
      <point x="1339.63002014" y="789.730987549" type="curve" smooth="yes"/>
      <point x="1666.64001465" y="69.104888916" type="line" smooth="yes"/>
      <point x="1684.03999329" y="30.7727966309"/>
      <point x="1664.21000671" y="0.0"/>
    </contour>
  </outline>
</glyph>
<glyph name="P" format="1">
  <advance width="1550"/>
  <unicode hex="0050"/>
  <outline>
    <contour>
      <point x="104" y="75.887298584" type="line"/>
      <point x="104" y="1519.11000061" type="line" smooth="yes"/>
      <point x="104" y="1566.60002136"/>
      <point x="132.397003174" y="1595.00001526"/>
      <point x="179.886993408" y="1595.00001526" type="curve" smooth="yes"/>
      <point x="859.0" y="1595.00001526" type="line" smooth="yes"/>
      <point x="1175.0" y="1595.00001526"/>
      <point x="1485.0" y="1559.00001526"/>
      <point x="1485.0" y="1204.00001526" type="curve" smooth="yes"/>
      <point x="1485.0" y="793.000015259" type="line" smooth="yes"/>
      <point x="1485.0" y="428.000015259"/>
      <point x="1170.0" y="402.000015259"/>
      <point x="860.0" y="402.000015259" type="curve" smooth="yes"/>
      <point x="767.595993042" y="402.000015259" type="line" smooth="yes"/>
      <point x="730.300979614" y="402.000015259"/>
      <point x="707.999984741" y="379.699020386"/>
      <point x="707.999984741" y="342.404022217" type="curve" smooth="yes"/>
      <point x="707.999984741" y="75.8873291016" type="line" smooth="yes"/>
      <point x="707.999984741" y="28.3970336914"/>
      <point x="679.602981567" y="3.0517578125e-05"/>
      <point x="632.112991333" y="3.0517578125e-05" type="curve" smooth="yes"/>
      <point x="179.886993408" y="3.0517578125e-05" type="line" smooth="yes"/>
      <point x="132.397003174" y="3.0517578125e-05"/>
      <point x="104.0" y="28.3970336914"/>
      <point x="104.0" y="75.8873291016" type="curve"/>
    </contour>
    <contour>
      <point x="707.0" y="1302.40002441" type="line"/>
      <point x="707.0" y="687.59602356" type="line" smooth="yes"/>
      <point x="707.0" y="650.301010132"/>
      <point x="729.300994873" y="628.000015259"/>
      <point x="766.595993042" y="628.000015259" type="curve" smooth="yes"/>
      <point x="820.403991699" y="628.000015259" type="line" smooth="yes"/>
      <point x="857.699005127" y="628.000015259"/>
      <point x="880.0" y="650.301010132"/>
      <point x="880.0" y="687.596008301" type="curve" smooth="yes"/>
      <point x="880.0" y="1302.40000916" type="line" smooth="yes"/>
      <point x="880.0" y="1339.70001221"/>
      <point x="857.699005127" y="1362.00001526"/>
      <point x="820.404006958" y="1362.00001526" type="curve" smooth="yes"/>
      <point x="766.596008301" y="1362.00001526" type="line" smooth="yes"/>
      <point x="729.300994873" y="1362.00001526"/>
      <point x="707.0" y="1339.70001221"/>
      <point x="707.0" y="1302.40000916" type="curve"/>
    </contour>
  </outline>
</glyph>
<glyph name="U" format="1">
  <advance width="1556"/>
  <unicode hex="0055"/>
  <outline>
    <contour>
      <point x="701" y="1519.11000061" type="line"/>
      <point x="701" y="293.595993042" type="line" smooth="yes"/>
      <point x="701" y="256.300979614"/>
      <point x="723.300994873" y="233.999984741"/>
      <point x="760.595993042" y="233.999984741" type="curve" smooth="yes"/>
      <point x="814.403991699" y="233.999984741" type="line" smooth="yes"/>
      <point x="851.699005127" y="233.999984741"/>
      <point x="874.0" y="256.300979614"/>
      <point x="874.0" y="293.595977783" type="curve" smooth="yes"/>
      <point x="874.0" y="1518.10998535" type="line" smooth="yes"/>
      <point x="874.0" y="1565.6000061"/>
      <point x="902.397003174" y="1594.0"/>
      <point x="949.886993408" y="1594.0" type="curve" smooth="yes"/>
      <point x="1403.11000061" y="1594.0" type="line" smooth="yes"/>
      <point x="1450.60002136" y="1594.0"/>
      <point x="1479.00001526" y="1565.6000061"/>
      <point x="1479.00001526" y="1518.11000061" type="curve" smooth="yes"/>
      <point x="1479.00001526" y="370.0" type="line" smooth="yes"/>
      <point x="1479.00001526" y="-4.0"/>
      <point x="1088.00001526" y="-39.0"/>
      <point x="786.000015259" y="-39.0" type="curve" smooth="yes"/>
      <point x="509.000015259" y="-39.0"/>
      <point x="97.0000152588" y="-7.0"/>
      <point x="97.0000152588" y="371.0" type="curve" smooth="yes"/>
      <point x="97.0000152588" y="1519.11000061" type="line" smooth="yes"/>
      <point x="97.0000152588" y="1566.60002136"/>
      <point x="125.397018433" y="1595.00001526"/>
      <point x="172.887008667" y="1595.00001526" type="curve" smooth="yes"/>
      <point x="625.113006592" y="1595.00001526" type="line" smooth="yes"/>
      <point x="672.602996826" y="1595.00001526"/>
      <point x="701.0" y="1566.60002136"/>
      <point x="701.0" y="1519.11001587" type="curve" smooth="yes"/>
    </contour>
  </outline>
</glyph>
<glyph name="W" format="1">
  <advance width="2108"/>
  <unicode hex="0057"/>
  <outline>
    <contour>
      <point x="1327.33999634" y="1519.57000732" type="line"/>
      <point x="1401.0" y="853.0" type="line"/>
      <point x="1417.05000305" y="599.00100708" type="line" smooth="yes"/>
      <point x="1417.64001465" y="589.690002441"/>
      <point x="1423.6900177" y="584.356002808"/>
      <point x="1433.00001526" y="584.93800354" type="curve" smooth="yes"/>
      <point x="1435.00001526" y="585.06199646" type="line" smooth="yes"/>
      <point x="1444.61001587" y="585.662979126"/>
      <point x="1450.50001526" y="591.379989624"/>
      <point x="1451.39001465" y="600.965988159" type="curve" smooth="yes"/>
      <point x="1536.96002197" y="1519.43998718" type="line" smooth="yes"/>
      <point x="1541.44003296" y="1567.5599823"/>
      <point x="1571.55003357" y="1594.99998474"/>
      <point x="1619.89002991" y="1594.99998474" type="curve" smooth="yes"/>
      <point x="1999.11003113" y="1594.99998474" type="line" smooth="yes"/>
      <point x="2045.02005005" y="1594.99998474"/>
      <point x="2070.56004333" y="1565.34999084"/>
      <point x="2063.75004578" y="1519.94998169" type="curve" smooth="yes"/>
      <point x="1847.25004578" y="75.0493774414" type="line" smooth="yes"/>
      <point x="1840.02005005" y="26.8032684326"/>
      <point x="1808.90003967" y="-3.0517578125e-05"/>
      <point x="1760.11004639" y="-3.0517578125e-05" type="curve" smooth="yes"/>
      <point x="1249.89004517" y="-3.0517578125e-05" type="line" smooth="yes"/>
      <point x="1201.06002808" y="-3.0517578125e-05"/>
      <point x="1169.83003235" y="26.7324676514"/>
      <point x="1162.30003357" y="74.9798736572" type="curve" smooth="yes"/>
      <point x="1087.70002747" y="553.019973755" type="line" smooth="yes"/>
      <point x="1081.36001587" y="593.665985107"/>
      <point x="1074.26000977" y="662.705978394"/>
      <point x="1072.20001221" y="703.791992188" type="curve" smooth="yes"/>
      <point x="1061.93000793" y="908.516998291" type="line" smooth="yes"/>
      <point x="1061.3400116" y="920.149002075"/>
      <point x="1054.15000916" y="927.0"/>
      <point x="1042.50001526" y="927.0" type="curve" smooth="yes"/>
      <point x="1040.50001526" y="927.0" type="line" smooth="yes"/>
      <point x="1028.87001038" y="927.0"/>
      <point x="1021.70001221" y="920.139007568"/>
      <point x="1021.20001221" y="908.516998291" type="curve" smooth="yes"/>
      <point x="1012.30001831" y="703.791992188" type="line" smooth="yes"/>
      <point x="1010.50003052" y="662.423995972"/>
      <point x="1003.58003235" y="593.947998047"/>
      <point x="997.06602478" y="553.057006836" type="curve" smooth="yes"/>
      <point x="920.934020996" y="74.9430999756" type="line" smooth="yes"/>
      <point x="913.251037598" y="26.6959838867"/>
      <point x="881.968032837" y="-1.52587890625e-05"/>
      <point x="833.113037109" y="-1.52587890625e-05" type="curve" smooth="yes"/>
      <point x="342.887039185" y="-1.52587890625e-05" type="line" smooth="yes"/>
      <point x="294.150039673" y="-1.52587890625e-05"/>
      <point x="263.142044067" y="26.8744812012"/>
      <point x="256.215042114" y="75.1170806885" type="curve" smooth="yes"/>
      <point x="48.7848358154" y="1519.87997437" type="line" smooth="yes"/>
      <point x="42.2512512207" y="1565.38996887"/>
      <point x="67.9132385254" y="1594.99996948"/>
      <point x="113.887039185" y="1594.99996948" type="curve" smooth="yes"/>
      <point x="545.113037109" y="1594.99996948" type="line" smooth="yes"/>
      <point x="593.021026611" y="1594.99996948"/>
      <point x="622.244033813" y="1567.04997253"/>
      <point x="624.374023438" y="1519.18997192" type="curve" smooth="yes"/>
      <point x="665.177017212" y="602.466964722" type="line" smooth="yes"/>
      <point x="665.695022583" y="590.843948364"/>
      <point x="672.865020752" y="583.999954224"/>
      <point x="684.500015259" y="583.999954224" type="curve" smooth="yes"/>
      <point x="686.500015259" y="583.999954224" type="line" smooth="yes"/>
      <point x="698.166015625" y="583.999954224"/>
      <point x="705.406021118" y="590.821960449"/>
      <point x="706.098022461" y="602.466949463" type="curve" smooth="yes"/>
      <point x="721.000015259" y="852.999954224" type="line"/>
      <point x="796.464019775" y="1519.56996155" type="line" smooth="yes"/>
      <point x="801.919036865" y="1567.7699585"/>
      <point x="832.389038086" y="1594.99995422"/>
      <point x="880.887023926" y="1594.99995422" type="curve" smooth="yes"/>
      <point x="1243.11003113" y="1594.99995422" type="line" smooth="yes"/>
      <point x="1291.59004211" y="1594.99995422"/>
      <point x="1322.01004028" y="1567.75994873"/>
      <point x="1327.34004211" y="1519.56996155" type="curve"/>
    </contour>
  </outline>
</glyph>
<glyph name="Z" format="1">
  <advance width="1138"/>
  <unicode hex="005A"/>
  <outline>
    <contour>
      <point x="143.886993408" y="1595" type="line"/>
      <point x="1016.11000061" y="1595" type="line" smooth="yes"/>
      <point x="1060.63002014" y="1595"/>
      <point x="1083.91001892" y="1564.69000244"/>
      <point x="1072.4400177" y="1521.67999268" type="curve" smooth="yes"/>
      <point x="760.358016968" y="351.582992554" type="line" smooth="yes"/>
      <point x="751.350021362" y="317.806991577"/>
      <point x="769.639022827" y="293.999984741"/>
      <point x="804.596008301" y="293.999984741" type="curve" smooth="yes"/>
      <point x="1006.11001587" y="293.999984741" type="line" smooth="yes"/>
      <point x="1053.60003662" y="293.999984741"/>
      <point x="1082.00003052" y="265.602981567"/>
      <point x="1082.00003052" y="218.112991333" type="curve" smooth="yes"/>
      <point x="1082.00003052" y="75.887298584" type="line" smooth="yes"/>
      <point x="1082.00003052" y="28.3970031738"/>
      <point x="1053.60003662" y="0.0"/>
      <point x="1006.11003113" y="0.0" type="curve" smooth="yes"/>
      <point x="131.887023926" y="0.0" type="line" smooth="yes"/>
      <point x="87.7181243896" y="0.0"/>
      <point x="64.9599304199" y="30.4263000488"/>
      <point x="77.4370269775" y="72.7966003418" type="curve" smooth="yes"/>
      <point x="423.165023804" y="1246.83000183" type="line" smooth="yes"/>
      <point x="432.964019775" y="1280.11001587"/>
      <point x="415.091018677" y="1304.00001526"/>
      <point x="380.404022217" y="1304.00001526" type="curve" smooth="yes"/>
      <point x="143.887023926" y="1304.00001526" type="line" smooth="yes"/>
      <point x="96.3970336914" y="1304.00001526"/>
      <point x="68.0000305176" y="1332.40000916"/>
      <point x="68.0000305176" y="1379.89001465" type="curve" smooth="yes"/>
      <point x="68.0000305176" y="1519.11001587" type="line" smooth="yes"/>
      <point x="68.0000305176" y="1566.60003662"/>
      <point x="96.3970336914" y="1595.00003052"/>
      <point x="143.887023926" y="1595.00003052" type="curve"/>
    </contour>
  </outline>
</glyph>
<glyph name="backslash" format="1">
  <advance width="1053"/>
  <unicode hex="005C"/>
  <outline>
    <contour>
      <point x="188.886993408" y="1595" type="line"/>
      <point x="511.112991333" y="1595" type="line" smooth="yes"/>
      <point x="560.392990112" y="1595"/>
      <point x="592.733978271" y="1569.00999451"/>
      <point x="603.353988647" y="1520.88999939" type="curve" smooth="yes"/>
      <point x="922.645996094" y="74.1042022705" type="line" smooth="yes"/>
      <point x="932.35899353" y="30.0905151367"/>
      <point x="908.184997559" y="1.52587890625e-05"/>
      <point x="863.113006592" y="1.52587890625e-05" type="curve" smooth="yes"/>
      <point x="539.887008667" y="1.52587890625e-05" type="line" smooth="yes"/>
      <point x="490.61100769" y="1.52587890625e-05"/>
      <point x="458.281021118" y="25.9792175293"/>
      <point x="447.6900177" y="74.1042175293" type="curve" smooth="yes"/>
      <point x="129.310012817" y="1520.89001465" type="line" smooth="yes"/>
      <point x="119.621017456" y="1564.91000366"/>
      <point x="143.807022095" y="1595.0"/>
      <point x="188.887008667" y="1595.0" type="curve"/>
    </contour>
  </outline>
</glyph>
<glyph name="bracketright" format="1">
  <advance width="1108"/>
  <unicode hex="005D"/>
  <outline>
    <contour>
      <point x="1010.0" y="1743.11000061" type="curve" smooth="yes"/>
      <point x="1010" y="-243.113006592" type="line" smooth="yes"/>
      <point x="1010" y="-290.602996826"/>
      <point x="981.602996826" y="-319.0"/>
      <point x="934.113006592" y="-319.0" type="curve" smooth="yes"/>
      <point x="91.0" y="-319.0" type="line" smooth="yes"/>
      <point x="43.0" y="-319.0"/>
      <point x="35.0" y="-290.602996826"/>
      <point x="35.0" y="-243.113006592" type="curve" smooth="yes"/>
      <point x="35.0" y="-152.887008667" type="line" smooth="yes"/>
      <point x="35.0" y="-105.397018433"/>
      <point x="43.0" y="-77.0000152588"/>
      <point x="91.0" y="-77.0000152588" type="curve" smooth="yes"/>
      <point x="336.0" y="-77.0000152588" type="line" smooth="yes"/>
      <point x="374.0" y="-77.0000152588"/>
      <point x="376.0" y="-65.0000152588"/>
      <point x="376.0" y="-27.0000152588" type="curve" smooth="yes"/>
      <point x="376.0" y="1527.99998474" type="line" smooth="yes"/>
      <point x="376.0" y="1565.99998474"/>
      <point x="374.0" y="1577.99998474"/>
      <point x="336.0" y="1577.99998474" type="curve" smooth="yes"/>
      <point x="91.0" y="1577.99998474" type="line" smooth="yes"/>
      <point x="43.0" y="1577.99998474"/>
      <point x="35.0" y="1606.39997864"/>
      <point x="35.0" y="1653.88998413" type="curve" smooth="yes"/>
      <point x="35.0" y="1743.10998535" type="line" smooth="yes"/>
      <point x="35.0" y="1790.6000061"/>
      <point x="43.0" y="1819.0"/>
      <point x="91.0" y="1819.0" type="curve" smooth="yes"/>
      <point x="934.113006592" y="1819.0" type="line" smooth="yes"/>
      <point x="981.602996826" y="1819.0"/>
      <point x="1010.0" y="1790.6000061"/>
    </contour>
  </outline>
</glyph>
<glyph name="underscore" format="1">
  <advance width="1042"/>
  <unicode hex="005F"/>
  <outline>
    <contour>
      <point x="153.886993408" y="1.0" type="curve" smooth="yes"/>
      <point x="891.112991333" y="1" type="line" smooth="yes"/>
      <point x="938.602981567" y="1"/>
      <point x="966.999984741" y="-27.3970031738"/>
      <point x="966.999984741" y="-74.887298584" type="curve" smooth="yes"/>
      <point x="966.999984741" y="-359.112991333" type="line" smooth="yes"/>
      <point x="966.999984741" y="-406.602981567"/>
      <point x="938.602981567" y="-434.999984741"/>
      <point x="891.112991333" y="-434.999984741" type="curve" smooth="yes"/>
      <point x="153.886993408" y="-434.999984741" type="line" smooth="yes"/>
      <point x="106.397003174" y="-434.999984741"/>
      <point x="78.0" y="-406.602981567"/>
      <point x="78.0" y="-359.112991333" type="curve" smooth="yes"/>
      <point x="78.0" y="-74.887298584" type="line" smooth="yes"/>
      <point x="78.0" y="-27.3970031738"/>
      <point x="106.397003174" y="1.0"/>
    </contour>
  </outline>
</glyph>
<glyph name="d" format="1">
  <advance width="1478"/>
  <unicode hex="0064"/>
  <outline>
    <contour>
      <point x="85" y="940" type="line" smooth="yes"/>
      <point x="85" y="1203"/>
      <point x="228" y="1327"/>
      <point x="500" y="1327" type="curve" smooth="yes"/>
      <point x="620.667007446" y="1327"/>
      <point x="712.85899353" y="1304.3500061"/>
      <point x="779.180999756" y="1255.41000366" type="curve" smooth="yes"/>
      <point x="803.180999756" y="1237.69999695"/>
      <point x="823.0" y="1247.69999695"/>
      <point x="823.0" y="1277.52999878" type="curve" smooth="yes"/>
      <point x="823.0" y="1634.11000061" type="line" smooth="yes"/>
      <point x="823.0" y="1681.60002136"/>
      <point x="851.397003174" y="1710.00001526"/>
      <point x="898.886993408" y="1710.00001526" type="curve" smooth="yes"/>
      <point x="1318.11000061" y="1710.00001526" type="line" smooth="yes"/>
      <point x="1365.60002136" y="1710.00001526"/>
      <point x="1394.00001526" y="1681.60002136"/>
      <point x="1394.00001526" y="1634.11001587" type="curve" smooth="yes"/>
      <point x="1394.00001526" y="75.8873138428" type="line" smooth="yes"/>
      <point x="1394.00001526" y="28.3970184326"/>
      <point x="1365.60002136" y="1.52587890625e-05"/>
      <point x="1318.11001587" y="1.52587890625e-05" type="curve" smooth="yes"/>
      <point x="932.927017212" y="1.52587890625e-05" type="line" smooth="yes"/>
      <point x="894.820022583" y="1.52587890625e-05"/>
      <point x="868.592010498" y="18.6101226807"/>
      <point x="856.375015259" y="54.3037109375" type="curve" smooth="yes"/>
      <point x="845.89201355" y="86.604019165"/>
      <point x="822.997009277" y="92.7907104492"/>
      <point x="797.672012329" y="70.166809082" type="curve" smooth="yes"/>
      <point x="728.873016357" y="8.70684814453"/>
      <point x="621.837020874" y="-26.9999847412"/>
      <point x="502.000015259" y="-26.9999847412" type="curve" smooth="yes"/>
      <point x="224.000015259" y="-26.9999847412"/>
      <point x="85.0000152588" y="106.000015259"/>
      <point x="85.0000152588" y="377.000015259" type="curve" smooth="yes"/>
    </contour>
    <contour>
      <point x="822.000015259" y="258.596008301" type="line"/>
      <point x="822.000015259" y="1045.40000916" type="line" smooth="yes"/>
      <point x="822.000015259" y="1082.70001221"/>
      <point x="799.699020386" y="1105.00001526"/>
      <point x="762.404022217" y="1105.00001526" type="curve" smooth="yes"/>
      <point x="714.59602356" y="1105.00001526" type="line" smooth="yes"/>
      <point x="677.301010132" y="1105.00001526"/>
      <point x="655.000015259" y="1082.70001221"/>
      <point x="655.000015259" y="1045.40000916" type="curve" smooth="yes"/>
      <point x="655.000015259" y="258.596008301" type="line" smooth="yes"/>
      <point x="655.000015259" y="221.300994873"/>
      <point x="677.301010132" y="199.0"/>
      <point x="714.596008301" y="199.0" type="curve" smooth="yes"/>
      <point x="762.404006958" y="199.0" type="line" smooth="yes"/>
      <point x="799.699020386" y="199.0"/>
      <point x="822.000015259" y="221.300994873"/>
      <point x="822.000015259" y="258.595993042" type="curve" smooth="yes"/>
    </contour>
  </outline>
</glyph>
<glyph name="f" format="1">
  <advance width="1205"/>
  <unicode hex="0066"/>
  <outline>
    <contour>
      <point x="131.886993408" y="1300" type="line"/>
      <point x="241.0" y="1300" type="line" smooth="yes"/>
      <point x="260.0" y="1300"/>
      <point x="264.0" y="1308"/>
      <point x="265.0" y="1330" type="curve" smooth="yes"/>
      <point x="278.0" y="1609"/>
      <point x="465.979995728" y="1731"/>
      <point x="773.0" y="1731" type="curve" smooth="yes"/>
      <point x="870.009994507" y="1731"/>
      <point x="969.550003052" y="1723.41000366"/>
      <point x="1065.58000183" y="1702.19999695" type="curve" smooth="yes"/>
      <point x="1110.99000549" y="1692.17999268"/>
      <point x="1139.0" y="1657.30000305"/>
      <point x="1139.0" y="1610.80999756" type="curve" smooth="yes"/>
      <point x="1139.0" y="1552.88999939" type="line" smooth="yes"/>
      <point x="1139.0" y="1505.39997864"/>
      <point x="1111.0" y="1476.99998474"/>
      <point x="1063.11000061" y="1476.99998474" type="curve" smooth="yes"/>
      <point x="994.0" y="1476.99998474" type="line" smooth="yes"/>
      <point x="846.0" y="1476.99998474"/>
      <point x="834.0" y="1424.99998474"/>
      <point x="834.0" y="1322.99998474" type="curve" smooth="yes"/>
      <point x="834.0" y="1304.99998474"/>
      <point x="846.0" y="1299.99998474"/>
      <point x="864.0" y="1299.99998474" type="curve" smooth="yes"/>
      <point x="1072.11000061" y="1299.99998474" type="line" smooth="yes"/>
      <point x="1120.00001526" y="1299.99998474"/>
      <point x="1148.00001526" y="1271.59999084"/>
      <point x="1148.00001526" y="1224.10998535" type="curve" smooth="yes"/>
      <point x="1148.00001526" y="1173.88998413" type="line" smooth="yes"/>
      <point x="1148.00001526" y="1126.39996338"/>
      <point x="1120.00001526" y="1097.99996948"/>
      <point x="1072.11001587" y="1097.99996948" type="curve" smooth="yes"/>
      <point x="854.000015259" y="1097.99996948" type="line" smooth="yes"/>
      <point x="836.000015259" y="1097.99996948"/>
      <point x="834.000015259" y="1085.99996948"/>
      <point x="834.000015259" y="1067.99996948" type="curve" smooth="yes"/>
      <point x="834.000015259" y="75.8872680664" type="line" smooth="yes"/>
      <point x="834.000015259" y="27.9999694824"/>
      <point x="805.603012085" y="-3.0517578125e-05"/>
      <point x="758.113021851" y="-3.0517578125e-05" type="curve" smooth="yes"/>
      <point x="338.887023926" y="-3.0517578125e-05" type="line" smooth="yes"/>
      <point x="291.397033691" y="-3.0517578125e-05"/>
      <point x="263.000030518" y="27.9999694824"/>
      <point x="263.000030518" y="75.8872680664" type="curve" smooth="yes"/>
      <point x="263.000030518" y="1067.99996948" type="line" smooth="yes"/>
      <point x="263.000030518" y="1095.99996948"/>
      <point x="261.000030518" y="1097.99996948"/>
      <point x="233.000030518" y="1097.99996948" type="curve" smooth="yes"/>
      <point x="131.887023926" y="1097.99996948" type="line" smooth="yes"/>
      <point x="84.0000305176" y="1097.99996948"/>
      <point x="56.0000305176" y="1126.39996338"/>
      <point x="56.0000305176" y="1173.88996887" type="curve" smooth="yes"/>
      <point x="56.0000305176" y="1224.10997009" type="line" smooth="yes"/>
      <point x="56.0000305176" y="1271.59999084"/>
      <point x="84.0000305176" y="1299.99998474"/>
      <point x="131.887023926" y="1299.99998474" type="curve"/>
    </contour>
  </outline>
</glyph>
<glyph name="p" format="1">
  <advance width="1476"/>
  <unicode hex="0070"/>
  <outline>
    <contour>
      <point x="1409" y="365" type="line" smooth="yes"/>
      <point x="1409" y="99"/>
      <point x="1263" y="-27"/>
      <point x="989" y="-27" type="curve" smooth="yes"/>
      <point x="877.419998169" y="-27"/>
      <point x="778.727005005" y="-4.44660949707"/>
      <point x="712.578994751" y="45.3155975342" type="curve" smooth="yes"/>
      <point x="689.039001465" y="63.0240020752"/>
      <point x="670.0" y="53.521697998"/>
      <point x="670.0" y="24.0648956299" type="curve" smooth="yes"/>
      <point x="670.0" y="-332.113006592" type="line" smooth="yes"/>
      <point x="670.0" y="-379.602996826"/>
      <point x="641.602996826" y="-408.0"/>
      <point x="594.113006592" y="-408.0" type="curve" smooth="yes"/>
      <point x="174.887008667" y="-408.0" type="line" smooth="yes"/>
      <point x="127.397018433" y="-408.0"/>
      <point x="99.0000152588" y="-379.602996826"/>
      <point x="99.0000152588" y="-332.113006592" type="curve" smooth="yes"/>
      <point x="99.0000152588" y="1224.11000061" type="line" smooth="yes"/>
      <point x="99.0000152588" y="1271.60002136"/>
      <point x="127.397018433" y="1300.00001526"/>
      <point x="174.887008667" y="1300.00001526" type="curve" smooth="yes"/>
      <point x="531.023010254" y="1300.00001526" type="line" smooth="yes"/>
      <point x="568.488006592" y="1300.00001526"/>
      <point x="594.347000122" y="1281.79000854"/>
      <point x="606.574996948" y="1246.80001831" type="curve" smooth="yes"/>
      <point x="617.281997681" y="1214.39001465"/>
      <point x="639.934005737" y="1207.93000793"/>
      <point x="666.123001099" y="1229.83001709" type="curve" smooth="yes"/>
      <point x="741.095993042" y="1292.51000977"/>
      <point x="859.753997803" y="1327.00001526"/>
      <point x="986.0" y="1327.00001526" type="curve" smooth="yes"/>
      <point x="1262.0" y="1327.00001526"/>
      <point x="1409.0" y="1198.00001526"/>
      <point x="1409.0" y="926.000015259" type="curve" smooth="yes"/>
    </contour>
    <contour>
      <point x="670.0" y="1045.40000916" type="line"/>
      <point x="670.0" y="258.596008301" type="line" smooth="yes"/>
      <point x="670.0" y="221.300994873"/>
      <point x="692.300994873" y="199.0"/>
      <point x="729.595993042" y="199.0" type="curve" smooth="yes"/>
      <point x="777.403991699" y="199.0" type="line" smooth="yes"/>
      <point x="814.699005127" y="199.0"/>
      <point x="837.0" y="221.300994873"/>
      <point x="837.0" y="258.595993042" type="curve" smooth="yes"/>
      <point x="837.0" y="1045.3999939" type="line" smooth="yes"/>
      <point x="837.0" y="1082.69999695"/>
      <point x="814.699005127" y="1105.0"/>
      <point x="777.404006958" y="1105.0" type="curve" smooth="yes"/>
      <point x="729.596008301" y="1105.0" type="line" smooth="yes"/>
      <point x="692.300994873" y="1105.0"/>
      <point x="670.0" y="1082.69999695"/>
      <point x="670.0" y="1045.3999939" type="curve"/>
    </contour>
  </outline>
</glyph>
<glyph name="q" format="1">
  <advance width="1459"/>
  <unicode hex="0071"/>
  <outline>
    <contour>
      <point x="86.0" y="365.0" type="curve" smooth="yes"/>
      <point x="86" y="926" type="line"/>
      <point x="85" y="926" type="line"/>
      <point x="85" y="1194"/>
      <point x="226" y="1327"/>
      <point x="502" y="1327" type="curve" smooth="yes"/>
      <point x="608" y="1327"/>
      <point x="702" y="1292"/>
      <point x="768" y="1248" type="curve" smooth="yes"/>
      <point x="781" y="1239.5"/>
      <point x="792.75" y="1230.25"/>
      <point x="803.25" y="1220.25" type="curve" smooth="yes"/>
      <point x="820.761001587" y="1203.57000732"/>
      <point x="837.697998047" y="1207.74000549"/>
      <point x="845.468002319" y="1230.63999939" type="curve" smooth="yes"/>
      <point x="850.320999146" y="1244.94999695" type="line" smooth="yes"/>
      <point x="862.612991333" y="1281.17997742"/>
      <point x="888.878982544" y="1299.99998474"/>
      <point x="927.134979248" y="1299.99998474" type="curve" smooth="yes"/>
      <point x="1305.10998535" y="1299.99998474" type="line" smooth="yes"/>
      <point x="1352.6000061" y="1299.99998474"/>
      <point x="1381.0" y="1271.59999084"/>
      <point x="1381.0" y="1224.10998535" type="curve" smooth="yes"/>
      <point x="1381.0" y="-332.113021851" type="line" smooth="yes"/>
      <point x="1381.0" y="-379.603012085"/>
      <point x="1352.6000061" y="-408.000015259"/>
      <point x="1305.11000061" y="-408.000015259" type="curve" smooth="yes"/>
      <point x="907.886993408" y="-408.000015259" type="line" smooth="yes"/>
      <point x="860.397003174" y="-408.000015259"/>
      <point x="832.0" y="-379.603012085"/>
      <point x="832.0" y="-332.113021851" type="curve" smooth="yes"/>
      <point x="832.0" y="24.3935852051" type="line" smooth="yes"/>
      <point x="832.0" y="54.4909057617"/>
      <point x="812.270004272" y="64.6132049561"/>
      <point x="787.822998047" y="47.0583953857" type="curve" smooth="yes"/>
      <point x="717.583999634" y="-3.37698364258"/>
      <point x="616.837997437" y="-27.0"/>
      <point x="501.0" y="-27.0" type="curve" smooth="yes"/>
      <point x="227.0" y="-27.0"/>
      <point x="86.0" y="99.0"/>
    </contour>
    <contour>
      <point x="817.0" y="258.595993042" type="line"/>
      <point x="817.0" y="1045.3999939" type="line" smooth="yes"/>
      <point x="817.0" y="1082.69999695"/>
      <point x="794.699005127" y="1105.0"/>
      <point x="757.404006958" y="1105.0" type="curve" smooth="yes"/>
      <point x="711.596008301" y="1105.0" type="line" smooth="yes"/>
      <point x="674.300994873" y="1105.0"/>
      <point x="652.0" y="1082.69999695"/>
      <point x="652.0" y="1045.3999939" type="curve" smooth="yes"/>
      <point x="652.0" y="258.595993042" type="line" smooth="yes"/>
      <point x="652.0" y="221.300979614"/>
      <point x="674.300994873" y="198.999984741"/>
      <point x="711.595993042" y="198.999984741" type="curve" smooth="yes"/>
      <point x="757.403991699" y="198.999984741" type="line" smooth="yes"/>
      <point x="794.699005127" y="198.999984741"/>
      <point x="817.0" y="221.300979614"/>
      <point x="817.0" y="258.595977783" type="curve" smooth="yes"/>
    </contour>
  </outline>
</glyph>
<glyph name="r" format="1">
  <advance width="981"/>
  <unicode hex="0072"/>
  <outline>
    <contour>
      <point x="595.113006592" y="0" type="line"/>
      <point x="175.887008667" y="0" type="line" smooth="yes"/>
      <point x="128.404022217" y="0"/>
      <point x="100.022018433" y="28.4044036865"/>
      <point x="100.058013916" y="75.887298584" type="curve" smooth="yes"/>
      <point x="100.942016602" y="1224.11000061" type="line" smooth="yes"/>
      <point x="100.978027344" y="1271.61001587"/>
      <point x="129.390029907" y="1300.00001526"/>
      <point x="176.887023926" y="1300.00001526" type="curve" smooth="yes"/>
      <point x="511.695022583" y="1300.00001526" type="line" smooth="yes"/>
      <point x="560.944015503" y="1300.00001526"/>
      <point x="594.000015259" y="1274.90000916"/>
      <point x="607.231018066" y="1227.46002197" type="curve" smooth="yes"/>
      <point x="611.050018311" y="1213.77001953" type="line" smooth="yes"/>
      <point x="619.033035278" y="1185.15002441"/>
      <point x="639.986022949" y="1180.94003296"/>
      <point x="658.403030396" y="1204.26002502" type="curve" smooth="yes"/>
      <point x="706.064025879" y="1264.61003113"/>
      <point x="785.984024048" y="1304.65002441"/>
      <point x="881.476028442" y="1320.08003235" type="curve" smooth="yes"/>
      <point x="923.932037354" y="1326.94003296"/>
      <point x="957.000030518" y="1298.7800293"/>
      <point x="957.000030518" y="1255.7800293" type="curve" smooth="yes"/>
      <point x="957.000030518" y="1024.89002991" type="line" smooth="yes"/>
      <point x="957.000030518" y="975.772018433"/>
      <point x="930.727035522" y="943.856018066"/>
      <point x="882.527023315" y="934.418014526" type="curve" smooth="yes"/>
      <point x="729.485015869" y="904.452011108" type="line" smooth="yes"/>
      <point x="691.633026123" y="897.040008545"/>
      <point x="671.000030518" y="871.975021362"/>
      <point x="671.000030518" y="833.404022217" type="curve" smooth="yes"/>
      <point x="671.000030518" y="75.8873291016" type="line" smooth="yes"/>
      <point x="671.000030518" y="28.3970336914"/>
      <point x="642.603027344" y="3.0517578125e-05"/>
      <point x="595.113037109" y="3.0517578125e-05" type="curve"/>
    </contour>
  </outline>
</glyph>
<glyph name="t" format="1">
  <advance width="968"/>
  <unicode hex="0074"/>
  <outline>
    <contour>
      <point x="764.0" y="1060.0" type="curve" smooth="yes"/>
      <point x="764" y="75.887298584" type="line" smooth="yes"/>
      <point x="764" y="28.3970031738"/>
      <point x="735.602996826" y="0.0"/>
      <point x="688.113006592" y="0.0" type="curve" smooth="yes"/>
      <point x="268.887008667" y="0.0" type="line" smooth="yes"/>
      <point x="221.397018433" y="0.0"/>
      <point x="193.000015259" y="28.3970031738"/>
      <point x="193.000015259" y="75.887298584" type="curve" smooth="yes"/>
      <point x="193.000015259" y="1060.0" type="line" smooth="yes"/>
      <point x="193.000015259" y="1098.0"/>
      <point x="191.000015259" y="1100.0"/>
      <point x="153.000015259" y="1100.0" type="curve" smooth="yes"/>
      <point x="123.500015259" y="1100.0" type="line" smooth="yes"/>
      <point x="81.2584228516" y="1100.0"/>
      <point x="56.0000152588" y="1125.25999451"/>
      <point x="56.0000152588" y="1167.5" type="curve" smooth="yes"/>
      <point x="56.0000152588" y="1232.5" type="line" smooth="yes"/>
      <point x="56.0000152588" y="1274.74000549"/>
      <point x="81.2584228516" y="1300.0"/>
      <point x="123.500015259" y="1300.0" type="curve" smooth="yes"/>
      <point x="153.000015259" y="1300.0" type="line" smooth="yes"/>
      <point x="191.000015259" y="1300.0"/>
      <point x="193.000015259" y="1302.0"/>
      <point x="193.000015259" y="1340.0" type="curve" smooth="yes"/>
      <point x="193.000015259" y="1519.11000061" type="line" smooth="yes"/>
      <point x="193.000015259" y="1566.60002136"/>
      <point x="221.397018433" y="1595.00001526"/>
      <point x="268.887008667" y="1595.00001526" type="curve" smooth="yes"/>
      <point x="688.113006592" y="1595.00001526" type="line" smooth="yes"/>
      <point x="735.602996826" y="1595.00001526"/>
      <point x="764.0" y="1566.60002136"/>
      <point x="764.0" y="1519.11001587" type="curve" smooth="yes"/>
      <point x="764.0" y="1340.00001526" type="line" smooth="yes"/>
      <point x="764.0" y="1302.00001526"/>
      <point x="766.0" y="1300.00001526"/>
      <point x="804.0" y="1300.00001526" type="curve" smooth="yes"/>
      <point x="847.113006592" y="1300.00001526" type="line" smooth="yes"/>
      <point x="894.602996826" y="1300.00001526"/>
      <point x="923.0" y="1271.60002136"/>
      <point x="923.0" y="1224.11001587" type="curve" smooth="yes"/>
      <point x="923.0" y="1175.89001465" type="line" smooth="yes"/>
      <point x="923.0" y="1128.3999939"/>
      <point x="894.602996826" y="1100.0"/>
      <point x="847.113006592" y="1100.0" type="curve" smooth="yes"/>
      <point x="804.0" y="1100.0" type="line" smooth="yes"/>
      <point x="766.0" y="1100.0"/>
      <point x="764.0" y="1098.0"/>
    </contour>
  </outline>
</glyph>
<glyph name="x" format="1">
  <advance width="1395"/>
  <unicode hex="0078"/>
  <outline>
    <contour>
      <point x="536.113006592" y="0" type="line"/>
      <point x="120.887008667" y="0" type="line" smooth="yes"/>
      <point x="80.3368225098" y="0"/>
      <point x="62.5472106934" y="30.6723022461"/>
      <point x="82.6833190918" y="65.8699951172" type="curve" smooth="yes"/>
      <point x="388.407012939" y="600.270996094" type="line" smooth="yes"/>
      <point x="408.167007446" y="634.811004639"/>
      <point x="408.121002197" y="669.162994385"/>
      <point x="388.268997192" y="703.649993896" type="curve" smooth="yes"/>
      <point x="82.8580932617" y="1234.22999573" type="line" smooth="yes"/>
      <point x="62.6504974365" y="1269.33998108"/>
      <point x="80.3807983398" y="1299.99998474"/>
      <point x="120.886993408" y="1299.99998474" type="curve" smooth="yes"/>
      <point x="541.112991333" y="1299.99998474" type="line" smooth="yes"/>
      <point x="591.066986084" y="1299.99998474"/>
      <point x="625.405990601" y="1275.46998596"/>
      <point x="641.596984863" y="1228.20999146" type="curve" smooth="yes"/>
      <point x="683.682983398" y="1105.37998962" type="line" smooth="yes"/>
      <point x="692.031967163" y="1081.00997925"/>
      <point x="714.081970215" y="1080.96998596"/>
      <point x="722.516967773" y="1105.3099823" type="curve" smooth="yes"/>
      <point x="765.146972656" y="1228.29998779" type="line" smooth="yes"/>
      <point x="781.512969971" y="1275.50999451"/>
      <point x="815.914962769" y="1300.0"/>
      <point x="865.886962891" y="1300.0" type="curve" smooth="yes"/>
      <point x="1285.10997009" y="1300.0" type="line" smooth="yes"/>
      <point x="1325.61997986" y="1300.0"/>
      <point x="1343.34999084" y="1269.33999634"/>
      <point x="1323.13998413" y="1234.22999573" type="curve" smooth="yes"/>
      <point x="1017.72998047" y="703.649993896" type="line" smooth="yes"/>
      <point x="997.878967285" y="669.162994385"/>
      <point x="997.832962036" y="634.811004639"/>
      <point x="1017.58996582" y="600.270996094" type="curve" smooth="yes"/>
      <point x="1323.31996155" y="65.8699951172" type="line" smooth="yes"/>
      <point x="1343.44995117" y="30.6723022461"/>
      <point x="1325.65995789" y="0.0"/>
      <point x="1285.10995483" y="0.0" type="curve" smooth="yes"/>
      <point x="869.886947632" y="0.0" type="line" smooth="yes"/>
      <point x="819.886947632" y="0.0"/>
      <point x="785.388961792" y="24.413192749"/>
      <point x="768.757949829" y="71.5661010742" type="curve" smooth="yes"/>
      <point x="722.822952271" y="201.79800415" type="line" smooth="yes"/>
      <point x="714.16595459" y="226.343002319"/>
      <point x="691.833953857" y="226.343002319"/>
      <point x="683.176956177" y="201.79800415" type="curve" smooth="yes"/>
      <point x="637.241958618" y="71.5661010742" type="line" smooth="yes"/>
      <point x="620.610946655" y="24.413192749"/>
      <point x="586.112960815" y="0.0"/>
      <point x="536.112960815" y="0.0" type="curve"/>
    </contour>
  </outline>
</glyph>
<glyph name="z" format="1">
  <advance width="1169"/>
  <unicode hex="007A"/>
  <outline>
    <contour>
      <point x="130" y="1126.88999939" type="line"/>
      <point x="130" y="1224.11000061" type="line" smooth="yes"/>
      <point x="130" y="1271.60002136"/>
      <point x="158.397003174" y="1300.00001526"/>
      <point x="205.886993408" y="1300.00001526" type="curve" smooth="yes"/>
      <point x="1006.11000061" y="1300.00001526" type="line" smooth="yes"/>
      <point x="1053.60002136" y="1300.00001526"/>
      <point x="1082.00001526" y="1271.60002136"/>
      <point x="1082.00001526" y="1224.11001587" type="curve" smooth="yes"/>
      <point x="1082.00001526" y="1154.89001465" type="line" smooth="yes"/>
      <point x="1082.00001526" y="1107.53999329"/>
      <point x="1070.78001404" y="1052.75999451"/>
      <point x="1052.18000793" y="1009.22000122" type="curve" smooth="yes"/>
      <point x="749.420013428" y="300.800994873" type="line" smooth="yes"/>
      <point x="736.326004028" y="270.160995483"/>
      <point x="752.274002075" y="246.0"/>
      <point x="785.595993042" y="246.0" type="curve" smooth="yes"/>
      <point x="1013.11000061" y="246.0" type="line" smooth="yes"/>
      <point x="1060.60002136" y="246.0"/>
      <point x="1089.00001526" y="217.602996826"/>
      <point x="1089.00001526" y="170.113006592" type="curve" smooth="yes"/>
      <point x="1089.00001526" y="75.8873138428" type="line" smooth="yes"/>
      <point x="1089.00001526" y="28.3970184326"/>
      <point x="1060.60002136" y="1.52587890625e-05"/>
      <point x="1013.11001587" y="1.52587890625e-05" type="curve" smooth="yes"/>
      <point x="181.887008667" y="1.52587890625e-05" type="line" smooth="yes"/>
      <point x="134.397018433" y="1.52587890625e-05"/>
      <point x="106.000015259" y="28.3970184326"/>
      <point x="106.000015259" y="75.8873138428" type="curve" smooth="yes"/>
      <point x="106.000015259" y="157.113006592" type="line" smooth="yes"/>
      <point x="106.000015259" y="204.613998413"/>
      <point x="117.434020996" y="258.981994629"/>
      <point x="136.568008423" y="302.457992554" type="curve" smooth="yes"/>
      <point x="441.994003296" y="996.452987671" type="line" smooth="yes"/>
      <point x="455.365020752" y="1026.83998108"/>
      <point x="439.599014282" y="1050.99998474"/>
      <point x="406.404022217" y="1050.99998474" type="curve" smooth="yes"/>
      <point x="205.887023926" y="1050.99998474" type="line" smooth="yes"/>
      <point x="158.397033691" y="1050.99998474"/>
      <point x="130.000030518" y="1079.39997864"/>
      <point x="130.000030518" y="1126.88998413" type="curve"/>
    </contour>
  </outline>
</glyph>
<glyph name="braceleft" format="1">
  <advance width="1132"/>
  <unicode hex="007B"/>
  <outline>
    <contour>
      <point x="274" y="1228" type="line"/>
      <point x="340.619995117" y="1726.69999695"/>
      <point x="540.38999939" y="1907.47999573"/>
      <point x="1024.16999817" y="1923.77000427" type="curve" smooth="yes"/>
      <point x="1070.44999695" y="1925.33000183"/>
      <point x="1100.0" y="1896.75999451"/>
      <point x="1100.0" y="1850.44999695" type="curve" smooth="yes"/>
      <point x="1100.0" y="1727.3999939" type="line" smooth="yes"/>
      <point x="1100.0" y="1675.11999512"/>
      <point x="1076.08999634" y="1648.05999756"/>
      <point x="1024.21000671" y="1641.61999512" type="curve" smooth="yes"/>
      <point x="597.190994263" y="1588.61000061"/>
      <point x="841.050994873" y="1068.75999451"/>
      <point x="652.554000854" y="837.912994385" type="curve" smooth="yes"/>
      <point x="625.080993652" y="804.268005371"/>
      <point x="625.332000732" y="789.632995605"/>
      <point x="653.968994141" y="756.919006348" type="curve" smooth="yes"/>
      <point x="839.856002808" y="544.567993164"/>
      <point x="598.255996704" y="8.27801513672"/>
      <point x="1025.24000549" y="-46.4700012207" type="curve" smooth="yes"/>
      <point x="1077.25" y="-53.1383056641"/>
      <point x="1101.0" y="-80.1277008057"/>
      <point x="1101.0" y="-132.561004639" type="curve" smooth="yes"/>
      <point x="1101.0" y="-255.291000366" type="line" smooth="yes"/>
      <point x="1101.0" y="-301.718017578"/>
      <point x="1071.49000549" y="-330.311019897"/>
      <point x="1025.08000183" y="-328.839019775" type="curve" smooth="yes"/>
      <point x="537.350997925" y="-313.373016357"/>
      <point x="308.220001221" y="-140.413009644"/>
      <point x="273.0" y="365.999984741" type="curve"/>
      <point x="258.67300415" y="474.717987061"/>
      <point x="269.910995483" y="607.584991455"/>
      <point x="160.067993164" y="646.676986694" type="curve" smooth="yes"/>
      <point x="100.166000366" y="667.995986938"/>
      <point x="85.0" y="689.49697876"/>
      <point x="85.0" y="753.079986572" type="curve" smooth="yes"/>
      <point x="85.0" y="842.672988892" type="line" smooth="yes"/>
      <point x="85.0" y="905.576980591"/>
      <point x="100.593002319" y="927.437988281"/>
      <point x="160.067993164" y="947.91998291" type="curve" smooth="yes"/>
      <point x="268.479995728" y="985.254989624"/>
      <point x="258.860992432" y="1111.92997742"/>
      <point x="274.0" y="1227.99998474" type="curve"/>
    </contour>
  </outline>
</glyph>
<glyph name="cent" format="1">
  <advance width="1462"/>
  <unicode hex="00A2"/>
  <outline>
    <contour>
      <point x="960.886993408" y="633" type="line"/>
      <point x="1342.0" y="633" type="line" smooth="yes"/>
      <point x="1375.78999329" y="633"/>
      <point x="1396.0" y="612.792999268"/>
      <point x="1396.0" y="579.0" type="curve" smooth="yes"/>
      <point x="1396.0" y="523.0" type="line" smooth="yes"/>
      <point x="1396.0" y="203.238006592"/>
      <point x="1118.75999451" y="154.632003784"/>
      <point x="844.611999512" y="147.893997192" type="curve" smooth="yes"/>
      <point x="806.764007568" y="146.962997437"/>
      <point x="785.0" y="124.658004761"/>
      <point x="785.0" y="86.7982025146" type="curve" smooth="yes"/>
      <point x="785.0" y="-35.5" type="line" smooth="yes"/>
      <point x="785.0" y="-59.5933074951"/>
      <point x="770.593002319" y="-74.0"/>
      <point x="746.5" y="-74.0" type="curve" smooth="yes"/>
      <point x="744.5" y="-74.0" type="line" smooth="yes"/>
      <point x="720.406997681" y="-74.0"/>
      <point x="706.0" y="-59.5933074951"/>
      <point x="706.0" y="-35.5" type="curve" smooth="yes"/>
      <point x="706.0" y="86.7602996826" type="line" smooth="yes"/>
      <point x="706.0" y="124.663986206"/>
      <point x="684.29800415" y="146.946990967"/>
      <point x="646.408004761" y="147.948989868" type="curve" smooth="yes"/>
      <point x="365.891998291" y="155.365982056"/>
      <point x="86.0" y="209.647979736"/>
      <point x="86.0" y="528.999984741" type="curve" smooth="yes"/>
      <point x="86.0" y="968.999984741" type="line" smooth="yes"/>
      <point x="86.0" y="1286.18998718"/>
      <point x="379.294998169" y="1335.1599884"/>
      <point x="646.408004761" y="1342.0599823" type="curve" smooth="yes"/>
      <point x="684.261993408" y="1343.03997803"/>
      <point x="706.0" y="1365.32998657"/>
      <point x="706.0" y="1403.19998169" type="curve" smooth="yes"/>
      <point x="706.0" y="1539.49998474" type="line" smooth="yes"/>
      <point x="706.0" y="1563.58998108"/>
      <point x="720.406997681" y="1577.99998474"/>
      <point x="744.5" y="1577.99998474" type="curve" smooth="yes"/>
      <point x="746.5" y="1577.99998474" type="line" smooth="yes"/>
      <point x="770.593002319" y="1577.99998474"/>
      <point x="785.0" y="1563.58998108"/>
      <point x="785.0" y="1539.49998474" type="curve" smooth="yes"/>
      <point x="785.0" y="1403.3099823" type="line" smooth="yes"/>
      <point x="785.0" y="1365.29998779"/>
      <point x="806.563995361" y="1342.95999146"/>
      <point x="844.554000854" y="1341.62998962" type="curve" smooth="yes"/>
      <point x="1082.38999939" y="1333.27998352"/>
      <point x="1396.0" y="1283.84999084"/>
      <point x="1396.0" y="991.999984741" type="curve" smooth="yes"/>
      <point x="1396.0" y="935.499984741" type="line" smooth="yes"/>
      <point x="1396.0" y="901.393981934"/>
      <point x="1375.61000061" y="880.999984741"/>
      <point x="1341.5" y="880.999984741" type="curve" smooth="yes"/>
      <point x="960.886993408" y="880.999984741" type="line" smooth="yes"/>
      <point x="913.397003174" y="880.999984741"/>
      <point x="885.0" y="909.396987915"/>
      <point x="885.0" y="956.886978149" type="curve" smooth="yes"/>
      <point x="885.0" y="1069.99998474" type="line" smooth="yes"/>
      <point x="885.0" y="1100.6599884"/>
      <point x="866.664001465" y="1118.99998474"/>
      <point x="836.0" y="1118.99998474" type="curve" smooth="yes"/>
      <point x="834.0" y="1118.99998474" type="line" smooth="yes"/>
      <point x="803.335998535" y="1118.99998474"/>
      <point x="785.0" y="1100.6599884"/>
      <point x="785.0" y="1069.99998474" type="curve" smooth="yes"/>
      <point x="785.0" y="421.999984741" type="line" smooth="yes"/>
      <point x="785.0" y="391.335983276"/>
      <point x="803.335998535" y="372.999984741"/>
      <point x="834.0" y="372.999984741" type="curve" smooth="yes"/>
      <point x="836.0" y="372.999984741" type="line" smooth="yes"/>
      <point x="866.664001465" y="372.999984741"/>
      <point x="885.0" y="391.335983276"/>
      <point x="885.0" y="421.999984741" type="curve" smooth="yes"/>
      <point x="885.0" y="557.112991333" type="line" smooth="yes"/>
      <point x="885.0" y="604.602981567"/>
      <point x="913.397003174" y="632.999984741"/>
      <point x="960.886993408" y="632.999984741" type="curve"/>
    </contour>
    <contour>
      <point x="653.0" y="1118.99998474" type="curve" smooth="yes"/>
      <point x="651.0" y="1118.99998474" type="line" smooth="yes"/>
      <point x="617.832992554" y="1118.99998474"/>
      <point x="598.0" y="1099.16998291"/>
      <point x="598.0" y="1065.99998474" type="curve" smooth="yes"/>
      <point x="598.0" y="425.999984741" type="line" smooth="yes"/>
      <point x="598.0" y="392.832977295"/>
      <point x="617.832992554" y="372.999984741"/>
      <point x="651.0" y="372.999984741" type="curve" smooth="yes"/>
      <point x="653.0" y="372.999984741" type="line" smooth="yes"/>
      <point x="686.167007446" y="372.999984741"/>
      <point x="706.0" y="392.832977295"/>
      <point x="706.0" y="425.999984741" type="curve" smooth="yes"/>
      <point x="706.0" y="1065.99998474" type="line" smooth="yes"/>
      <point x="706.0" y="1099.16998291"/>
      <point x="686.167007446" y="1118.99998474"/>
    </contour>
  </outline>
</glyph>
<glyph name="sterling" format="1">
  <advance width="1598"/>
  <unicode hex="00A3"/>
  <outline>
    <contour>
      <point x="74" y="75.887298584" type="line"/>
      <point x="74" y="264.882003784" type="line" smooth="yes"/>
      <point x="74" y="264.941009521"/>
      <point x="74.0527954102" y="265.026016235"/>
      <point x="74.1056060791" y="265.053009033" type="curve" smooth="yes"/>
      <point x="75.9062042236" y="265.95300293" type="line" smooth="yes"/>
      <point x="75.9531097412" y="265.977005005"/>
      <point x="76.0520172119" y="266.007003784"/>
      <point x="76.104019165" y="266.013000488" type="curve" smooth="yes"/>
      <point x="147.085021973" y="275.020996094"/>
      <point x="234.000015259" y="297.039001465"/>
      <point x="234.000015259" y="376.0" type="curve" smooth="yes"/>
      <point x="234.000015259" y="659.404006958" type="line" smooth="yes"/>
      <point x="234.000015259" y="696.699020386"/>
      <point x="211.699020386" y="719.000015259"/>
      <point x="174.404022217" y="719.000015259" type="curve" smooth="yes"/>
      <point x="151.887023926" y="719.000015259" type="line" smooth="yes"/>
      <point x="104.397033691" y="719.000015259"/>
      <point x="76.0000305176" y="747.397018433"/>
      <point x="76.0000305176" y="794.887008667" type="curve" smooth="yes"/>
      <point x="76.0000305176" y="865.113006592" type="line" smooth="yes"/>
      <point x="76.0000305176" y="912.602996826"/>
      <point x="104.397033691" y="941.0"/>
      <point x="151.887023926" y="941.0" type="curve" smooth="yes"/>
      <point x="174.404022217" y="941.0" type="line" smooth="yes"/>
      <point x="211.699035645" y="941.0"/>
      <point x="234.000030518" y="963.300994873"/>
      <point x="234.000030518" y="1000.6000061" type="curve" smooth="yes"/>
      <point x="234.000030518" y="1065.0" type="line" smooth="yes"/>
      <point x="234.000030518" y="1260.0"/>
      <point x="248.000030518" y="1417.0"/>
      <point x="346.000030518" y="1511.0" type="curve" smooth="yes"/>
      <point x="458.000030518" y="1618.0"/>
      <point x="664.000030518" y="1632.0"/>
      <point x="893.000030518" y="1632.0" type="curve" smooth="yes"/>
      <point x="1069.00003052" y="1632.0"/>
      <point x="1210.00003052" y="1616.0"/>
      <point x="1322.00003052" y="1568.0" type="curve" smooth="yes"/>
      <point x="1423.00003052" y="1524.0"/>
      <point x="1494.00003052" y="1456.0"/>
      <point x="1504.00003052" y="1331.0" type="curve" smooth="yes"/>
      <point x="1506.00003052" y="1302.0"/>
      <point x="1507.00003052" y="1274.0"/>
      <point x="1507.00003052" y="1247.0" type="curve" smooth="yes"/>
      <point x="1507.00003052" y="1145.88999939" type="line" smooth="yes"/>
      <point x="1507.00003052" y="1098.39997864"/>
      <point x="1478.60003662" y="1069.99998474"/>
      <point x="1431.11003113" y="1069.99998474" type="curve" smooth="yes"/>
      <point x="1001.89002991" y="1069.99998474" type="line" smooth="yes"/>
      <point x="954.397018433" y="1069.99998474"/>
      <point x="926.000015259" y="1098.39997864"/>
      <point x="926.000015259" y="1145.88998413" type="curve" smooth="yes"/>
      <point x="926.000015259" y="1311.49998474" type="line" smooth="yes"/>
      <point x="926.000015259" y="1344.34999084"/>
      <point x="906.355010986" y="1363.99998474"/>
      <point x="873.500015259" y="1363.99998474" type="curve" smooth="yes"/>
      <point x="871.500015259" y="1363.99998474" type="line" smooth="yes"/>
      <point x="838.645019531" y="1363.99998474"/>
      <point x="819.000015259" y="1344.34999084"/>
      <point x="819.000015259" y="1311.49998474" type="curve" smooth="yes"/>
      <point x="819.000015259" y="999.595977783" type="line" smooth="yes"/>
      <point x="819.000015259" y="962.300964355"/>
      <point x="841.301010132" y="939.999969482"/>
      <point x="878.596008301" y="939.999969482" type="curve" smooth="yes"/>
      <point x="1170.11001587" y="939.999969482" type="line" smooth="yes"/>
      <point x="1217.60003662" y="939.999969482"/>
      <point x="1246.00003052" y="911.602966309"/>
      <point x="1246.00003052" y="864.112976074" type="curve" smooth="yes"/>
      <point x="1246.00003052" y="793.886978149" type="line" smooth="yes"/>
      <point x="1246.00003052" y="746.396987915"/>
      <point x="1217.60003662" y="717.999984741"/>
      <point x="1170.11003113" y="717.999984741" type="curve" smooth="yes"/>
      <point x="878.59602356" y="717.999984741" type="line" smooth="yes"/>
      <point x="841.301010132" y="717.999984741"/>
      <point x="819.000015259" y="695.698989868"/>
      <point x="819.000015259" y="658.403991699" type="curve" smooth="yes"/>
      <point x="819.000015259" y="327.595993042" type="line" smooth="yes"/>
      <point x="819.000015259" y="290.300979614"/>
      <point x="841.301010132" y="267.999984741"/>
      <point x="878.596008301" y="267.999984741" type="curve" smooth="yes"/>
      <point x="887.404006958" y="267.999984741" type="line" smooth="yes"/>
      <point x="924.699020386" y="267.999984741"/>
      <point x="947.000015259" y="290.300979614"/>
      <point x="947.000015259" y="327.595977783" type="curve" smooth="yes"/>
      <point x="947.000015259" y="486.112976074" type="line" smooth="yes"/>
      <point x="947.000015259" y="533.602966309"/>
      <point x="975.397018433" y="561.999969482"/>
      <point x="1022.89001465" y="561.999969482" type="curve" smooth="yes"/>
      <point x="1452.11001587" y="561.999969482" type="line" smooth="yes"/>
      <point x="1499.60003662" y="561.999969482"/>
      <point x="1528.00003052" y="533.602966309"/>
      <point x="1528.00003052" y="486.112976074" type="curve" smooth="yes"/>
      <point x="1528.00003052" y="384.999969482" type="line" smooth="yes"/>
      <point x="1528.00003052" y="227.999969482"/>
      <point x="1498.00003052" y="125.999969482"/>
      <point x="1399.00003052" y="64.9999694824" type="curve" smooth="yes"/>
      <point x="1325.00003052" y="18.9999694824"/>
      <point x="1225.00003052" y="-3.0517578125e-05"/>
      <point x="1097.00003052" y="-3.0517578125e-05" type="curve" smooth="yes"/>
      <point x="971.000030518" y="-3.0517578125e-05"/>
      <point x="877.000030518" y="28.9999694824"/>
      <point x="819.000030518" y="90.9999694824" type="curve" smooth="yes"/>
      <point x="815.117034912" y="95.1601715088"/>
      <point x="811.311035156" y="99.1664733887"/>
      <point x="807.604034424" y="103.018966675" type="curve" smooth="yes"/>
      <point x="800.585037231" y="110.311965942"/>
      <point x="765.392028809" y="111.976974487"/>
      <point x="738.141036987" y="88.5545654297" type="curve" smooth="yes"/>
      <point x="696.544036865" y="52.8020629883"/>
      <point x="650.992034912" y="28.6171722412"/>
      <point x="579.000030518" y="15.9999694824" type="curve" smooth="yes"/>
      <point x="497.000030518" y="1.99996948242"/>
      <point x="407.000030518" y="0.999969482422"/>
      <point x="301.000030518" y="-3.0517578125e-05" type="curve" smooth="yes"/>
      <point x="149.887023926" y="-3.0517578125e-05" type="line" smooth="yes"/>
      <point x="102.397033691" y="-3.0517578125e-05"/>
      <point x="74.0000305176" y="28.3969726562"/>
      <point x="74.0000305176" y="75.8872680664" type="curve"/>
    </contour>
  </outline>
</glyph>
<glyph name="currency" format="1">
  <advance width="1390"/>
  <unicode hex="00A4"/>
  <outline>
    <contour>
      <point x="978.727005005" y="329.367004395" type="line"/>
      <point x="897.03302002" y="308.772003174"/>
      <point x="806.962020874" y="299.0"/>
      <point x="698.000015259" y="299.0" type="curve" smooth="yes"/>
      <point x="586.650009155" y="299.807006836"/>
      <point x="492.879013062" y="309.729003906"/>
      <point x="410.907012939" y="331.391998291" type="curve" smooth="yes"/>
      <point x="369.350021362" y="342.375"/>
      <point x="339.969009399" y="333.830993652"/>
      <point x="310.781021118" y="302.276000977" type="curve" smooth="yes"/>
      <point x="244.70501709" y="230.843994141" type="line" smooth="yes"/>
      <point x="220.810028076" y="205.011001587"/>
      <point x="190.959030151" y="204.794006348"/>
      <point x="166.690032959" y="230.276000977" type="curve" smooth="yes"/>
      <point x="165.310028076" y="231.723999023" type="line" smooth="yes"/>
      <point x="140.398025513" y="257.882003784"/>
      <point x="140.151031494" y="288.350006104"/>
      <point x="164.635025024" y="314.908996582" type="curve" smooth="yes"/>
      <point x="200.727020264" y="354.059997559" type="line" smooth="yes"/>
      <point x="227.634033203" y="383.246994019"/>
      <point x="226.164031982" y="410.619003296"/>
      <point x="196.288024902" y="436.757003784" type="curve" smooth="yes"/>
      <point x="104.538024902" y="517.026992798"/>
      <point x="68.0000305176" y="629.567993164"/>
      <point x="68.0000305176" y="804.0" type="curve" smooth="yes"/>
      <point x="68.0000305176" y="976.070007324"/>
      <point x="92.4268341064" y="1102.25"/>
      <point x="174.396026611" y="1189.53999329" type="curve" smooth="yes"/>
      <point x="202.918029785" y="1219.91000366"/>
      <point x="203.119033813" y="1246.42999268"/>
      <point x="175.061035156" y="1277.24000549" type="curve" smooth="yes"/>
      <point x="165.384033203" y="1287.86000061" type="line" smooth="yes"/>
      <point x="141.032028198" y="1314.60002136"/>
      <point x="141.371032715" y="1345.0900116"/>
      <point x="166.310028076" y="1371.28001404" type="curve" smooth="yes"/>
      <point x="167.690032959" y="1372.72001648" type="line" smooth="yes"/>
      <point x="191.949035645" y="1398.20001221"/>
      <point x="221.792037964" y="1397.95001221"/>
      <point x="245.635025024" y="1372.0900116" type="curve" smooth="yes"/>
      <point x="281.851028442" y="1332.81001282" type="line" smooth="yes"/>
      <point x="310.927017212" y="1301.27001953"/>
      <point x="340.249008179" y="1293.16001892"/>
      <point x="381.400009155" y="1305.28001404" type="curve" smooth="yes"/>
      <point x="470.555007935" y="1331.53001404"/>
      <point x="572.985015869" y="1343.00001526"/>
      <point x="697.000015259" y="1343.00001526" type="curve" smooth="yes"/>
      <point x="819.227020264" y="1343.00001526"/>
      <point x="919.920013428" y="1331.56001282"/>
      <point x="1008.46002197" y="1305.92001343" type="curve" smooth="yes"/>
      <point x="1049.54000854" y="1294.03001404"/>
      <point x="1078.99002075" y="1302.32002258"/>
      <point x="1107.83001709" y="1333.89001465" type="curve" smooth="yes"/>
      <point x="1142.33001709" y="1371.66001892" type="line" smooth="yes"/>
      <point x="1166.20002747" y="1397.80001831"/>
      <point x="1196.23002625" y="1398.20001221"/>
      <point x="1220.81002808" y="1372.72001648" type="curve" smooth="yes"/>
      <point x="1222.19003296" y="1371.28001404" type="line" smooth="yes"/>
      <point x="1247.40002441" y="1345.14001465"/>
      <point x="1247.76002502" y="1314.51000977"/>
      <point x="1223.19003296" y="1287.78001404" type="curve" smooth="yes"/>
      <point x="1214.81002808" y="1278.66001892" type="line" smooth="yes"/>
      <point x="1187.06002808" y="1248.48001099"/>
      <point x="1187.55003357" y="1221.55001831"/>
      <point x="1216.36003113" y="1192.38002014" type="curve" smooth="yes"/>
      <point x="1301.19003296" y="1106.48001099"/>
      <point x="1325.00003052" y="986.860015869"/>
      <point x="1325.00003052" y="804.000015259" type="curve" smooth="yes"/>
      <point x="1325.00003052" y="632.207015991"/>
      <point x="1284.76002502" y="514.818008423"/>
      <point x="1192.69003296" y="433.818008423" type="curve" smooth="yes"/>
      <point x="1162.86003113" y="407.58001709"/>
      <point x="1161.55003357" y="380.331008911"/>
      <point x="1188.70002747" y="351.338012695" type="curve" smooth="yes"/>
      <point x="1223.80003357" y="313.857009888" type="line" smooth="yes"/>
      <point x="1248.58004761" y="287.400009155"/>
      <point x="1248.35005188" y="256.812011719"/>
      <point x="1223.19004822" y="230.720016479" type="curve" smooth="yes"/>
      <point x="1221.81004333" y="229.280014038" type="line" smooth="yes"/>
      <point x="1197.20004272" y="203.763015747"/>
      <point x="1167.14004517" y="204.082015991"/>
      <point x="1143.08004761" y="230.118011475" type="curve" smooth="yes"/>
      <point x="1078.88005066" y="299.595016479" type="line" smooth="yes"/>
      <point x="1049.9800415" y="330.871017456"/>
      <point x="1020.02005005" y="339.777008057"/>
      <point x="978.727050781" y="329.367019653" type="curve"/>
    </contour>
    <contour>
      <point x="637.000045776" y="1015.00001526" type="curve" smooth="yes"/>
      <point x="637.000045776" y="625.000015259" type="line" smooth="yes"/>
      <point x="637.000045776" y="590.581008911"/>
      <point x="657.581039429" y="570.000015259"/>
      <point x="692.000045776" y="570.000015259" type="curve" smooth="yes"/>
      <point x="694.000045776" y="570.000015259" type="line" smooth="yes"/>
      <point x="728.419052124" y="570.000015259"/>
      <point x="749.000045776" y="590.581008911"/>
      <point x="749.000045776" y="625.000015259" type="curve" smooth="yes"/>
      <point x="749.000045776" y="1015.00001526" type="line" smooth="yes"/>
      <point x="749.000045776" y="1049.42001343"/>
      <point x="728.419052124" y="1070.00001526"/>
      <point x="694.000045776" y="1070.00001526" type="curve" smooth="yes"/>
      <point x="692.000045776" y="1070.00001526" type="line" smooth="yes"/>
      <point x="657.581039429" y="1070.00001526"/>
      <point x="637.000045776" y="1049.42001343"/>
    </contour>
  </outline>
</glyph>
<glyph name="brokenbar" format="1">
  <advance width="831"/>
  <unicode hex="00A6"/>
  <outline>
    <contour>
      <point x="206.886993408" y="656.0" type="curve" smooth="yes"/>
      <point x="626.112991333" y="656" type="line" smooth="yes"/>
      <point x="673.602981567" y="656"/>
      <point x="701.999984741" y="627.602996826"/>
      <point x="701.999984741" y="580.113006592" type="curve" smooth="yes"/>
      <point x="701.999984741" y="-179.112991333" type="line" smooth="yes"/>
      <point x="701.999984741" y="-226.602981567"/>
      <point x="673.602981567" y="-254.999984741"/>
      <point x="626.112991333" y="-254.999984741" type="curve" smooth="yes"/>
      <point x="206.886993408" y="-254.999984741" type="line" smooth="yes"/>
      <point x="159.397003174" y="-254.999984741"/>
      <point x="131.0" y="-226.602981567"/>
      <point x="131.0" y="-179.112991333" type="curve" smooth="yes"/>
      <point x="131.0" y="580.113006592" type="line" smooth="yes"/>
      <point x="131.0" y="627.602996826"/>
      <point x="159.397003174" y="656.0"/>
    </contour>
    <contour>
      <point x="206.886993408" y="1708.0" type="line"/>
      <point x="626.112991333" y="1708.0" type="line" smooth="yes"/>
      <point x="673.602981567" y="1708.0"/>
      <point x="701.999984741" y="1679.6000061"/>
      <point x="701.999984741" y="1632.11000061" type="curve" smooth="yes"/>
      <point x="701.999984741" y="872.886993408" type="line" smooth="yes"/>
      <point x="701.999984741" y="825.397003174"/>
      <point x="673.602981567" y="797.0"/>
      <point x="626.112991333" y="797.0" type="curve" smooth="yes"/>
      <point x="206.886993408" y="797.0" type="line" smooth="yes"/>
      <point x="159.397003174" y="797.0"/>
      <point x="131.0" y="825.397003174"/>
      <point x="131.0" y="872.886993408" type="curve" smooth="yes"/>
      <point x="131.0" y="1632.11000061" type="line" smooth="yes"/>
      <point x="131.0" y="1679.60002136"/>
      <point x="159.397003174" y="1708.00001526"/>
      <point x="206.886993408" y="1708.00001526" type="curve"/>
    </contour>
  </outline>
</glyph>
<glyph name="dieresis" format="1">
  <advance width="1296"/>
  <unicode hex="00A8"/>
  <outline>
    <contour>
      <point x="158.886993408" y="418.0" type="curve" smooth="yes"/>
      <point x="457.112991333" y="418" type="line" smooth="yes"/>
      <point x="504.602981567" y="418"/>
      <point x="532.999984741" y="389.602996826"/>
      <point x="532.999984741" y="342.113006592" type="curve" smooth="yes"/>
      <point x="532.999984741" y="157.887008667" type="line" smooth="yes"/>
      <point x="532.999984741" y="110.397018433"/>
      <point x="504.602981567" y="82.0000152588"/>
      <point x="457.112991333" y="82.0000152588" type="curve" smooth="yes"/>
      <point x="158.886993408" y="82.0000152588" type="line" smooth="yes"/>
      <point x="111.397003174" y="82.0000152588"/>
      <point x="83.0" y="110.397018433"/>
      <point x="83.0" y="157.887008667" type="curve" smooth="yes"/>
      <point x="83.0" y="342.113006592" type="line" smooth="yes"/>
      <point x="83.0" y="389.602996826"/>
      <point x="111.397003174" y="418.0"/>
    </contour>
    <contour>
      <point x="841.886993408" y="418.0" type="line"/>
      <point x="1141.11000061" y="418.0" type="line" smooth="yes"/>
      <point x="1188.60002136" y="418.0"/>
      <point x="1217.00001526" y="389.602996826"/>
      <point x="1217.00001526" y="342.113006592" type="curve" smooth="yes"/>
      <point x="1217.00001526" y="157.887008667" type="line" smooth="yes"/>
      <point x="1217.00001526" y="110.397018433"/>
      <point x="1188.60002136" y="82.0000152588"/>
      <point x="1141.11001587" y="82.0000152588" type="curve" smooth="yes"/>
      <point x="841.887008667" y="82.0000152588" type="line" smooth="yes"/>
      <point x="794.397018433" y="82.0000152588"/>
      <point x="766.000015259" y="110.397018433"/>
      <point x="766.000015259" y="157.887008667" type="curve" smooth="yes"/>
      <point x="766.000015259" y="342.113006592" type="line" smooth="yes"/>
      <point x="766.000015259" y="389.602996826"/>
      <point x="794.397018433" y="418.0"/>
      <point x="841.887008667" y="418.0" type="curve"/>
    </contour>
  </outline>
</glyph>
<glyph name="copyright" format="1">
  <advance width="1861"/>
  <unicode hex="00A9"/>
  <outline>
    <contour>
      <point x="1780" y="539" type="line" smooth="yes"/>
      <point x="1780" y="14"/>
      <point x="1377" y="-101"/>
      <point x="932" y="-101" type="curve" smooth="yes"/>
      <point x="421" y="-101"/>
      <point x="84" y="42"/>
      <point x="84" y="539" type="curve" smooth="yes"/>
      <point x="84" y="1116" type="line" smooth="yes"/>
      <point x="84" y="1638"/>
      <point x="490" y="1749"/>
      <point x="932" y="1749" type="curve" smooth="yes"/>
      <point x="1441" y="1749"/>
      <point x="1780" y="1610"/>
      <point x="1780" y="1116" type="curve" smooth="yes"/>
    </contour>
    <contour>
      <point x="932" y="1573" type="curve" smooth="yes"/>
      <point x="520" y="1573"/>
      <point x="323" y="1471"/>
      <point x="323" y="1114" type="curve" smooth="yes"/>
      <point x="323" y="535" type="line" smooth="yes"/>
      <point x="323" y="169"/>
      <point x="523" y="68"/>
      <point x="932" y="68" type="curve" smooth="yes"/>
      <point x="1300" y="68"/>
      <point x="1541" y="156"/>
      <point x="1541" y="482" type="curve" smooth="yes"/>
      <point x="1541" y="1165" type="line" smooth="yes"/>
      <point x="1541" y="1500"/>
      <point x="1275" y="1573"/>
    </contour>
    <contour>
      <point x="835" y="1162.3999939" type="line"/>
      <point x="835" y="491.595993042" type="line" smooth="yes"/>
      <point x="835" y="454.300979614"/>
      <point x="857.300994873" y="431.999984741"/>
      <point x="894.595993042" y="431.999984741" type="curve" smooth="yes"/>
      <point x="974.403991699" y="431.999984741" type="line" smooth="yes"/>
      <point x="1011.69999695" y="431.999984741"/>
      <point x="1034.0" y="454.300979614"/>
      <point x="1034.0" y="491.595977783" type="curve" smooth="yes"/>
      <point x="1034.0" y="673.112976074" type="line" smooth="yes"/>
      <point x="1034.0" y="720.602966309"/>
      <point x="1062.3999939" y="748.999969482"/>
      <point x="1109.88999939" y="748.999969482" type="curve" smooth="yes"/>
      <point x="1235.11000061" y="748.999969482" type="line" smooth="yes"/>
      <point x="1282.60002136" y="748.999969482"/>
      <point x="1311.00001526" y="720.602966309"/>
      <point x="1311.00001526" y="673.112976074" type="curve" smooth="yes"/>
      <point x="1311.00001526" y="541.999969482" type="line" smooth="yes"/>
      <point x="1311.00001526" y="311.999969482"/>
      <point x="1161.00001526" y="271.999969482"/>
      <point x="916.000015259" y="271.999969482" type="curve" smooth="yes"/>
      <point x="701.000015259" y="271.999969482"/>
      <point x="555.000015259" y="314.999969482"/>
      <point x="555.000015259" y="546.999969482" type="curve" smooth="yes"/>
      <point x="555.000015259" y="1106.99996948" type="line" smooth="yes"/>
      <point x="555.000015259" y="1333.99996948"/>
      <point x="687.000015259" y="1380.99996948"/>
      <point x="916.000015259" y="1380.99996948" type="curve" smooth="yes"/>
      <point x="1113.00001526" y="1380.99996948"/>
      <point x="1311.00001526" y="1365.99996948"/>
      <point x="1311.00001526" y="1110.99996948" type="curve" smooth="yes"/>
      <point x="1311.00001526" y="988.886962891" type="line" smooth="yes"/>
      <point x="1311.00001526" y="941.396972656"/>
      <point x="1282.60002136" y="912.999969482"/>
      <point x="1235.11001587" y="912.999969482" type="curve" smooth="yes"/>
      <point x="1109.89001465" y="912.999969482" type="line" smooth="yes"/>
      <point x="1062.3999939" y="912.999969482"/>
      <point x="1034.0" y="941.396972656"/>
      <point x="1034.0" y="988.886962891" type="curve" smooth="yes"/>
      <point x="1034.0" y="1162.39996338" type="line" smooth="yes"/>
      <point x="1034.0" y="1199.69996643"/>
      <point x="1011.69999695" y="1221.99996948"/>
      <point x="974.404006958" y="1221.99996948" type="curve" smooth="yes"/>
      <point x="894.596008301" y="1221.99996948" type="line" smooth="yes"/>
      <point x="857.300994873" y="1221.99996948"/>
      <point x="835.0" y="1199.69996643"/>
      <point x="835.0" y="1162.39996338" type="curve"/>
    </contour>
  </outline>
</glyph>
<glyph name="uni00AD" format="1">
  <advance width="1005"/>
  <unicode hex="00AD"/>
  <outline>
    <contour>
      <point x="162.886993408" y="897.0" type="curve" smooth="yes"/>
      <point x="844.112991333" y="897" type="line" smooth="yes"/>
      <point x="891.602981567" y="897"/>
      <point x="919.999984741" y="868.602996826"/>
      <point x="919.999984741" y="821.113006592" type="curve" smooth="yes"/>
      <point x="919.999984741" y="636.887008667" type="line" smooth="yes"/>
      <point x="919.999984741" y="589.397018433"/>
      <point x="891.602981567" y="561.000015259"/>
      <point x="844.112991333" y="561.000015259" type="curve" smooth="yes"/>
      <point x="162.886993408" y="561.000015259" type="line" smooth="yes"/>
      <point x="115.397003174" y="561.000015259"/>
      <point x="87.0" y="589.397018433"/>
      <point x="87.0" y="636.887008667" type="curve" smooth="yes"/>
      <point x="87.0" y="821.113006592" type="line" smooth="yes"/>
      <point x="87.0" y="868.602996826"/>
      <point x="115.397003174" y="897.0"/>
    </contour>
  </outline>
</glyph>
<glyph name="uni00B2" format="1">
  <advance width="1090"/>
  <unicode hex="00B2"/>
  <outline>
    <contour>
      <point x="477.113006592" y="836" type="line"/>
      <point x="209.254013062" y="836" type="line" smooth="yes"/>
      <point x="196.403015137" y="836"/>
      <point x="188.994018555" y="843.149993896"/>
      <point x="188.535018921" y="856.01600647" type="curve" smooth="yes"/>
      <point x="188.274017334" y="863.343994141"/>
      <point x="188.000015259" y="870.67199707"/>
      <point x="188.000015259" y="878.0" type="curve" smooth="yes"/>
      <point x="188.000015259" y="1148.0"/>
      <point x="367.000015259" y="1209.0"/>
      <point x="610.000015259" y="1209.0" type="curve" smooth="yes"/>
      <point x="872.000015259" y="1209.0"/>
      <point x="1026.00001526" y="1142.0"/>
      <point x="1026.00001526" y="876.0" type="curve" smooth="yes"/>
      <point x="1026.00001526" y="634.0"/>
      <point x="868.000015259" y="548.0"/>
      <point x="703.000015259" y="474.0" type="curve" smooth="yes"/>
      <point x="653.952011108" y="452.279006958"/>
      <point x="599.995010376" y="426.630004883"/>
      <point x="572.088012695" y="388.45300293" type="curve" smooth="yes"/>
      <point x="557.030014038" y="367.852996826"/>
      <point x="575.233016968" y="332.0"/>
      <point x="600.750015259" y="332.0" type="curve" smooth="yes"/>
      <point x="910.113021851" y="332.0" type="line" smooth="yes"/>
      <point x="957.603012085" y="332.0"/>
      <point x="986.000015259" y="303.602996826"/>
      <point x="986.000015259" y="256.113006592" type="curve" smooth="yes"/>
      <point x="986.000015259" y="209.887008667" type="line" smooth="yes"/>
      <point x="986.000015259" y="162.397018433"/>
      <point x="957.603012085" y="134.000015259"/>
      <point x="910.113021851" y="134.000015259" type="curve" smooth="yes"/>
      <point x="264.887023926" y="134.000015259" type="line" smooth="yes"/>
      <point x="217.397033691" y="134.000015259"/>
      <point x="189.000030518" y="162.397018433"/>
      <point x="189.000030518" y="209.887008667" type="curve" smooth="yes"/>
      <point x="189.000030518" y="313.000015259" type="line" smooth="yes"/>
      <point x="189.000030518" y="575.000015259"/>
      <point x="323.000030518" y="690.000015259"/>
      <point x="517.000030518" y="768.000015259" type="curve" smooth="yes"/>
      <point x="579.000030518" y="793.000015259"/>
      <point x="653.000030518" y="823.000015259"/>
      <point x="653.000030518" y="877.000015259" type="curve" smooth="yes"/>
      <point x="653.000030518" y="981.000015259" type="line" smooth="yes"/>
      <point x="653.000030518" y="1011.66001892"/>
      <point x="634.664031982" y="1030.00001526"/>
      <point x="604.000030518" y="1030.00001526" type="curve" smooth="yes"/>
      <point x="602.000030518" y="1030.00001526" type="line" smooth="yes"/>
      <point x="571.336029053" y="1030.00001526"/>
      <point x="553.000030518" y="1011.66001892"/>
      <point x="553.000030518" y="981.000015259" type="curve" smooth="yes"/>
      <point x="553.000030518" y="911.887008667" type="line" smooth="yes"/>
      <point x="553.000030518" y="864.397018433"/>
      <point x="524.603027344" y="836.000015259"/>
      <point x="477.113037109" y="836.000015259" type="curve"/>
    </contour>
  </outline>
</glyph>
<glyph name="uni00B9" format="1">
  <advance width="731"/>
  <unicode hex="00B9"/>
  <outline>
    <contour>
      <point x="115" y="1042" type="line"/>
      <point x="115" y="1043" type="line" smooth="yes"/>
      <point x="115" y="1089.19999695"/>
      <point x="136.059005737" y="1113.07000732"/>
      <point x="185.884994507" y="1119.33000183" type="curve" smooth="yes"/>
      <point x="217.01499939" y="1123.24000549"/>
      <point x="246.268005371" y="1129.72999573"/>
      <point x="272.975006104" y="1138.55000305" type="curve" smooth="yes"/>
      <point x="349.43800354" y="1163.80000305"/>
      <point x="387.960006714" y="1170.0"/>
      <point x="468.48500061" y="1170.0" type="curve" smooth="yes"/>
      <point x="578.113006592" y="1170.0" type="line" smooth="yes"/>
      <point x="625.602996826" y="1170.0"/>
      <point x="654.0" y="1141.6000061"/>
      <point x="654.0" y="1094.11000061" type="curve" smooth="yes"/>
      <point x="654.0" y="205.886993408" type="line" smooth="yes"/>
      <point x="654.0" y="158.397003174"/>
      <point x="625.602996826" y="130.0"/>
      <point x="578.113006592" y="130.0" type="curve" smooth="yes"/>
      <point x="334.887008667" y="130.0" type="line" smooth="yes"/>
      <point x="287.397018433" y="130.0"/>
      <point x="259.000015259" y="158.397003174"/>
      <point x="259.000015259" y="205.886993408" type="curve" smooth="yes"/>
      <point x="259.000015259" y="911.403991699" type="line" smooth="yes"/>
      <point x="259.000015259" y="948.699005127"/>
      <point x="236.699020386" y="971.0"/>
      <point x="199.404022217" y="971.0" type="curve" smooth="yes"/>
      <point x="186.000015259" y="971.0" type="line" smooth="yes"/>
      <point x="141.568008423" y="971.0"/>
      <point x="115.000015259" y="997.567993164"/>
      <point x="115.000015259" y="1042.0" type="curve"/>
    </contour>
  </outline>
</glyph>
<glyph name="guillemotright" format="1">
  <advance width="1770"/>
  <unicode hex="00BB"/>
  <outline>
    <contour>
      <point x="1642" y="775" type="line"/>
      <point x="1642" y="706"/>
      <point x="1612" y="636"/>
      <point x="1552" y="593" type="curve" smooth="yes"/>
      <point x="1025" y="213" type="line" smooth="yes"/>
      <point x="1004" y="197"/>
      <point x="981" y="190"/>
      <point x="962" y="190" type="curve" smooth="yes"/>
      <point x="916" y="190"/>
      <point x="881" y="230"/>
      <point x="881" y="277" type="curve" smooth="yes"/>
      <point x="881" y="300"/>
      <point x="887" y="323"/>
      <point x="904" y="345" type="curve" smooth="yes"/>
      <point x="1201.55000305" y="729.852005005" type="line" smooth="yes"/>
      <point x="1225.3400116" y="760.620010376"/>
      <point x="1225.3400116" y="793.380020142"/>
      <point x="1201.55001831" y="824.148010254" type="curve" smooth="yes"/>
      <point x="904.000015259" y="1209.00001526" type="line" smooth="yes"/>
      <point x="886.000015259" y="1233.00001526"/>
      <point x="879.000015259" y="1256.00001526"/>
      <point x="879.000015259" y="1278.00001526" type="curve" smooth="yes"/>
      <point x="879.000015259" y="1326.00001526"/>
      <point x="914.000015259" y="1364.00001526"/>
      <point x="960.000015259" y="1364.00001526" type="curve" smooth="yes"/>
      <point x="979.000015259" y="1364.00001526"/>
      <point x="1001.00001526" y="1358.00001526"/>
      <point x="1025.00001526" y="1341.00001526" type="curve" smooth="yes"/>
      <point x="1552.00001526" y="961.000015259" type="line" smooth="yes"/>
      <point x="1610.00001526" y="919.000015259"/>
      <point x="1641.00001526" y="846.000015259"/>
      <point x="1642.00001526" y="775.000015259" type="curve"/>
    </contour>
    <contour>
      <point x="906.000015259" y="775.000015259" type="line" smooth="yes"/>
      <point x="906.000015259" y="706.000015259"/>
      <point x="876.000015259" y="636.000015259"/>
      <point x="816.000015259" y="593.000015259" type="curve" smooth="yes"/>
      <point x="290.000015259" y="213.000015259" type="line" smooth="yes"/>
      <point x="267.000015259" y="196.000015259"/>
      <point x="245.000015259" y="190.000015259"/>
      <point x="226.000015259" y="190.000015259" type="curve" smooth="yes"/>
      <point x="180.000015259" y="190.000015259"/>
      <point x="146.000015259" y="230.000015259"/>
      <point x="146.000015259" y="277.000015259" type="curve" smooth="yes"/>
      <point x="146.000015259" y="300.000015259"/>
      <point x="151.000015259" y="323.000015259"/>
      <point x="168.000015259" y="345.000015259" type="curve" smooth="yes"/>
      <point x="465.548019409" y="729.852020264" type="line" smooth="yes"/>
      <point x="489.336013794" y="760.620025635"/>
      <point x="489.336013794" y="793.3800354"/>
      <point x="465.548019409" y="824.148025513" type="curve" smooth="yes"/>
      <point x="168.000015259" y="1209.00003052" type="line" smooth="yes"/>
      <point x="150.000015259" y="1233.00003052"/>
      <point x="144.000015259" y="1256.00003052"/>
      <point x="144.000015259" y="1278.00003052" type="curve" smooth="yes"/>
      <point x="144.000015259" y="1326.00003052"/>
      <point x="178.000015259" y="1364.00003052"/>
      <point x="224.000015259" y="1364.00003052" type="curve" smooth="yes"/>
      <point x="242.000015259" y="1364.00003052"/>
      <point x="266.000015259" y="1358.00003052"/>
      <point x="290.000015259" y="1341.00003052" type="curve" smooth="yes"/>
      <point x="816.000015259" y="961.000030518" type="line" smooth="yes"/>
      <point x="874.000015259" y="919.000030518"/>
      <point x="905.000015259" y="846.000030518"/>
      <point x="906.000015259" y="775.000030518" type="curve" smooth="yes"/>
    </contour>
  </outline>
</glyph>
<glyph name="onehalf" format="1">
  <advance width="2580"/>
  <unicode hex="00BD"/>
  <outline>
    <contour>
      <point x="1973.11000061" y="836" type="line"/>
      <point x="1705.25" y="836" type="line" smooth="yes"/>
      <point x="1692.3999939" y="836"/>
      <point x="1684.99000549" y="843.149993896"/>
      <point x="1684.53999329" y="856.01600647" type="curve" smooth="yes"/>
      <point x="1684.27000427" y="863.343994141"/>
      <point x="1684.0" y="870.67199707"/>
      <point x="1684.0" y="878.0" type="curve" smooth="yes"/>
      <point x="1684.0" y="1148.0"/>
      <point x="1863.0" y="1209.0"/>
      <point x="2106.0" y="1209.0" type="curve" smooth="yes"/>
      <point x="2368.0" y="1209.0"/>
      <point x="2522.0" y="1142.0"/>
      <point x="2522.0" y="876.0" type="curve" smooth="yes"/>
      <point x="2522.0" y="634.0"/>
      <point x="2364.0" y="548.0"/>
      <point x="2199.0" y="474.0" type="curve" smooth="yes"/>
      <point x="2149.94999695" y="452.279006958"/>
      <point x="2095.99000549" y="426.630004883"/>
      <point x="2068.08999634" y="388.45300293" type="curve" smooth="yes"/>
      <point x="2053.02999878" y="367.852996826"/>
      <point x="2071.22999573" y="332.0"/>
      <point x="2096.75" y="332.0" type="curve" smooth="yes"/>
      <point x="2406.11000061" y="332.0" type="line" smooth="yes"/>
      <point x="2453.60002136" y="332.0"/>
      <point x="2482.00001526" y="303.602996826"/>
      <point x="2482.00001526" y="256.113006592" type="curve" smooth="yes"/>
      <point x="2482.00001526" y="209.887008667" type="line" smooth="yes"/>
      <point x="2482.00001526" y="162.397018433"/>
      <point x="2453.60002136" y="134.000015259"/>
      <point x="2406.11001587" y="134.000015259" type="curve" smooth="yes"/>
      <point x="1760.89001465" y="134.000015259" type="line" smooth="yes"/>
      <point x="1713.3999939" y="134.000015259"/>
      <point x="1685.0" y="162.397018433"/>
      <point x="1685.0" y="209.887008667" type="curve" smooth="yes"/>
      <point x="1685.0" y="313.000015259" type="line" smooth="yes"/>
      <point x="1685.0" y="575.000015259"/>
      <point x="1819.0" y="690.000015259"/>
      <point x="2013.0" y="768.000015259" type="curve" smooth="yes"/>
      <point x="2075.0" y="793.000015259"/>
      <point x="2149.0" y="823.000015259"/>
      <point x="2149.0" y="877.000015259" type="curve" smooth="yes"/>
      <point x="2149.0" y="981.000015259" type="line" smooth="yes"/>
      <point x="2149.0" y="1011.66001892"/>
      <point x="2130.66000366" y="1030.00001526"/>
      <point x="2100.0" y="1030.00001526" type="curve" smooth="yes"/>
      <point x="2098.0" y="1030.00001526" type="line" smooth="yes"/>
      <point x="2067.33999634" y="1030.00001526"/>
      <point x="2049.0" y="1011.66001892"/>
      <point x="2049.0" y="981.000015259" type="curve" smooth="yes"/>
      <point x="2049.0" y="911.887008667" type="line" smooth="yes"/>
      <point x="2049.0" y="864.397018433"/>
      <point x="2020.6000061" y="836.000015259"/>
      <point x="1973.11000061" y="836.000015259" type="curve"/>
    </contour>
    <contour>
      <point x="31.0" y="1342.00001526" type="line"/>
      <point x="31.0" y="1343.00001526" type="line" smooth="yes"/>
      <point x="31.0" y="1389.20001221"/>
      <point x="52.0590057373" y="1413.07002258"/>
      <point x="101.884994507" y="1419.33001709" type="curve" smooth="yes"/>
      <point x="133.01499939" y="1423.24002075"/>
      <point x="162.268005371" y="1429.73001099"/>
      <point x="188.975006104" y="1438.55001831" type="curve" smooth="yes"/>
      <point x="265.43800354" y="1463.80001831"/>
      <point x="303.960006714" y="1470.00001526"/>
      <point x="384.48500061" y="1470.00001526" type="curve" smooth="yes"/>
      <point x="494.113006592" y="1470.00001526" type="line" smooth="yes"/>
      <point x="541.602996826" y="1470.00001526"/>
      <point x="570.0" y="1441.60002136"/>
      <point x="570.0" y="1394.11001587" type="curve" smooth="yes"/>
      <point x="570.0" y="505.887008667" type="line" smooth="yes"/>
      <point x="570.0" y="458.397018433"/>
      <point x="541.602996826" y="430.000015259"/>
      <point x="494.113006592" y="430.000015259" type="curve" smooth="yes"/>
      <point x="250.887008667" y="430.000015259" type="line" smooth="yes"/>
      <point x="203.397018433" y="430.000015259"/>
      <point x="175.000015259" y="458.397018433"/>
      <point x="175.000015259" y="505.887008667" type="curve" smooth="yes"/>
      <point x="175.000015259" y="1211.40000916" type="line" smooth="yes"/>
      <point x="175.000015259" y="1248.70001221"/>
      <point x="152.699020386" y="1271.00001526"/>
      <point x="115.404022217" y="1271.00001526" type="curve" smooth="yes"/>
      <point x="102.000015259" y="1271.00001526" type="line" smooth="yes"/>
      <point x="57.5681152344" y="1271.00001526"/>
      <point x="31.0000152588" y="1297.57002258"/>
      <point x="31.0000152588" y="1342.00001526" type="curve"/>
    </contour>
    <contour>
      <point x="1125.11001587" y="1.52587890625e-05" type="line"/>
      <point x="841.887008667" y="1.52587890625e-05" type="line" smooth="yes"/>
      <point x="796.8150177" y="1.52587890625e-05"/>
      <point x="772.641021729" y="30.0905151367"/>
      <point x="782.354019165" y="74.1042175293" type="curve" smooth="yes"/>
      <point x="1101.65002441" y="1520.89001465" type="line" smooth="yes"/>
      <point x="1112.27003479" y="1569.00999451"/>
      <point x="1144.61003113" y="1595.0"/>
      <point x="1193.89002991" y="1595.0" type="curve" smooth="yes"/>
      <point x="1476.11003113" y="1595.0" type="line" smooth="yes"/>
      <point x="1521.19004822" y="1595.0"/>
      <point x="1545.38005066" y="1564.91000366"/>
      <point x="1535.69004822" y="1520.88999939" type="curve" smooth="yes"/>
      <point x="1217.31004333" y="74.1042022705" type="line" smooth="yes"/>
      <point x="1206.720047" y="25.9792175293"/>
      <point x="1174.39004517" y="1.52587890625e-05"/>
      <point x="1125.11004639" y="1.52587890625e-05" type="curve" smooth="yes"/>
    </contour>
  </outline>
</glyph>
<glyph name="threequarters" format="1">
  <advance width="2894"/>
  <unicode hex="00BE"/>
  <outline>
    <contour>
      <point x="2828" y="684.113006592" type="line"/>
      <point x="2828" y="205.887008667" type="line" smooth="yes"/>
      <point x="2828" y="158.397018433"/>
      <point x="2799.6000061" y="130.000015259"/>
      <point x="2752.11000061" y="130.000015259" type="curve" smooth="yes"/>
      <point x="2544.88999939" y="130.000015259" type="line" smooth="yes"/>
      <point x="2497.39997864" y="130.000015259"/>
      <point x="2468.99998474" y="158.397018433"/>
      <point x="2468.99998474" y="205.887008667" type="curve" smooth="yes"/>
      <point x="2468.99998474" y="231.404006958" type="line" smooth="yes"/>
      <point x="2468.99998474" y="268.699020386"/>
      <point x="2446.69998169" y="291.000015259"/>
      <point x="2409.39997864" y="291.000015259" type="curve" smooth="yes"/>
      <point x="2028.88998413" y="291.000015259" type="line" smooth="yes"/>
      <point x="1981.39996338" y="291.000015259"/>
      <point x="1952.99996948" y="319.397018433"/>
      <point x="1952.99996948" y="366.887008667" type="curve" smooth="yes"/>
      <point x="1952.99996948" y="495.113006592" type="line" smooth="yes"/>
      <point x="1952.99996948" y="540.279998779"/>
      <point x="1961.35997009" y="600.559997559"/>
      <point x="1973.65997314" y="644.022003174" type="curve" smooth="yes"/>
      <point x="2102.33996582" y="1098.94999695" type="line" smooth="yes"/>
      <point x="2115.85997009" y="1146.72998047"/>
      <point x="2149.23997498" y="1171.99998474"/>
      <point x="2198.88996887" y="1171.99998474" type="curve" smooth="yes"/>
      <point x="2432.10997009" y="1171.99998474" type="line" smooth="yes"/>
      <point x="2476.44998169" y="1171.99998474"/>
      <point x="2499.45999146" y="1141.61997986"/>
      <point x="2487.45999146" y="1098.94998169" type="curve" smooth="yes"/>
      <point x="2343.59999084" y="587.364974976" type="line" smooth="yes"/>
      <point x="2340.85998535" y="577.630981445"/>
      <point x="2338.99998474" y="564.111984253"/>
      <point x="2338.99998474" y="553.999984741" type="curve" smooth="yes"/>
      <point x="2338.99998474" y="551.999984741" type="line" smooth="yes"/>
      <point x="2338.99998474" y="541.397979736"/>
      <point x="2345.39997864" y="534.999984741"/>
      <point x="2355.99998474" y="534.999984741" type="curve" smooth="yes"/>
      <point x="2409.39997864" y="534.999984741" type="line" smooth="yes"/>
      <point x="2446.69998169" y="534.999984741"/>
      <point x="2468.99998474" y="557.300979614"/>
      <point x="2468.99998474" y="594.595977783" type="curve" smooth="yes"/>
      <point x="2468.99998474" y="684.112976074" type="line" smooth="yes"/>
      <point x="2468.99998474" y="731.602966309"/>
      <point x="2497.39997864" y="759.999969482"/>
      <point x="2544.88998413" y="759.999969482" type="curve" smooth="yes"/>
      <point x="2752.10998535" y="759.999969482" type="line" smooth="yes"/>
      <point x="2799.6000061" y="759.999969482"/>
      <point x="2828.0" y="731.602966309"/>
      <point x="2828.0" y="684.112976074" type="curve"/>
    </contour>
    <contour>
      <point x="565.0" y="1498.99996948" type="line"/>
      <point x="835.0" y="1498.99996948"/>
      <point x="995.0" y="1421.99996948"/>
      <point x="995.0" y="1174.99996948" type="curve" smooth="yes"/>
      <point x="995.0" y="1091.75996399"/>
      <point x="962.32699585" y="1032.27996826"/>
      <point x="909.343002319" y="992.899963379" type="curve" smooth="yes"/>
      <point x="881.921005249" y="972.519973755"/>
      <point x="881.891998291" y="954.91897583"/>
      <point x="909.283004761" y="934.41897583" type="curve" smooth="yes"/>
      <point x="968.093002319" y="890.40296936"/>
      <point x="997.0" y="818.613967896"/>
      <point x="997.0" y="732.999969482" type="curve" smooth="yes"/>
      <point x="997.0" y="486.999969482"/>
      <point x="862.0" y="393.999969482"/>
      <point x="566.0" y="393.999969482" type="curve" smooth="yes"/>
      <point x="270.0" y="393.999969482"/>
      <point x="139.0" y="514.999969482"/>
      <point x="139.0" y="764.999969482" type="curve" smooth="yes"/>
      <point x="139.0" y="775.468963623"/>
      <point x="139.274002075" y="785.937973022"/>
      <point x="139.822006226" y="796.549972534" type="curve" smooth="yes"/>
      <point x="140.759994507" y="814.720962524"/>
      <point x="152.636001587" y="825.999969482"/>
      <point x="170.832000732" y="825.999969482" type="curve" smooth="yes"/>
      <point x="432.113006592" y="825.999969482" type="line" smooth="yes"/>
      <point x="479.602996826" y="825.999969482"/>
      <point x="508.0" y="797.602966309"/>
      <point x="508.0" y="750.112976074" type="curve" smooth="yes"/>
      <point x="508.0" y="631.499969482" type="line" smooth="yes"/>
      <point x="508.0" y="596.767974854"/>
      <point x="528.768005371" y="575.999969482"/>
      <point x="563.5" y="575.999969482" type="curve" smooth="yes"/>
      <point x="565.5" y="575.999969482" type="line" smooth="yes"/>
      <point x="600.231994629" y="575.999969482"/>
      <point x="621.0" y="596.767974854"/>
      <point x="621.0" y="631.499969482" type="curve" smooth="yes"/>
      <point x="621.0" y="829.40397644" type="line" smooth="yes"/>
      <point x="621.0" y="866.698989868"/>
      <point x="598.699005127" y="888.999984741"/>
      <point x="561.404006958" y="888.999984741" type="curve" smooth="yes"/>
      <point x="523.0" y="888.999984741" type="line" smooth="yes"/>
      <point x="477.317001343" y="888.999984741"/>
      <point x="450.0" y="916.316986084"/>
      <point x="450.0" y="961.999984741" type="curve" smooth="yes"/>
      <point x="450.0" y="963.999984741" type="line" smooth="yes"/>
      <point x="450.0" y="1009.67997742"/>
      <point x="477.317001343" y="1036.99998474"/>
      <point x="523.0" y="1036.99998474" type="curve" smooth="yes"/>
      <point x="561.404006958" y="1036.99998474" type="line" smooth="yes"/>
      <point x="598.699020386" y="1036.99998474"/>
      <point x="621.000015259" y="1059.29998779"/>
      <point x="621.000015259" y="1096.59999084" type="curve" smooth="yes"/>
      <point x="621.000015259" y="1265.49998474" type="line" smooth="yes"/>
      <point x="621.000015259" y="1300.22998047"/>
      <point x="600.232009888" y="1320.99998474"/>
      <point x="565.500015259" y="1320.99998474" type="curve" smooth="yes"/>
      <point x="563.500015259" y="1320.99998474" type="line" smooth="yes"/>
      <point x="528.76802063" y="1320.99998474"/>
      <point x="508.000015259" y="1300.22998047"/>
      <point x="508.000015259" y="1265.49998474" type="curve" smooth="yes"/>
      <point x="508.000015259" y="1173.88998413" type="line" smooth="yes"/>
      <point x="508.000015259" y="1126.39996338"/>
      <point x="479.603012085" y="1097.99996948"/>
      <point x="432.113021851" y="1097.99996948" type="curve" smooth="yes"/>
      <point x="167.87802124" y="1097.99996948" type="line" smooth="yes"/>
      <point x="151.532028198" y="1097.99996948"/>
      <point x="140.760025024" y="1108.15997314"/>
      <point x="139.822036743" y="1124.47996521" type="curve" smooth="yes"/>
      <point x="139.27003479" y="1134.08996582"/>
      <point x="139.000030518" y="1143.53996277"/>
      <point x="139.000030518" y="1152.99996948" type="curve" smooth="yes"/>
      <point x="139.000030518" y="1415.99996948"/>
      <point x="285.000030518" y="1498.99996948"/>
      <point x="565.000030518" y="1498.99996948" type="curve"/>
    </contour>
    <contour>
      <point x="1479.11003113" y="-3.0517578125e-05" type="line"/>
      <point x="1195.89002991" y="-3.0517578125e-05" type="line" smooth="yes"/>
      <point x="1150.81001282" y="-3.0517578125e-05"/>
      <point x="1126.64001465" y="30.0904693604"/>
      <point x="1136.35002136" y="74.1041717529" type="curve" smooth="yes"/>
      <point x="1455.65002441" y="1520.88996887" type="line" smooth="yes"/>
      <point x="1466.27003479" y="1569.00994873"/>
      <point x="1498.61003113" y="1594.99995422"/>
      <point x="1547.89002991" y="1594.99995422" type="curve" smooth="yes"/>
      <point x="1830.11003113" y="1594.99995422" type="line" smooth="yes"/>
      <point x="1875.19004822" y="1594.99995422"/>
      <point x="1899.38005066" y="1564.90995789"/>
      <point x="1889.69004822" y="1520.88995361" type="curve" smooth="yes"/>
      <point x="1571.31004333" y="74.1041564941" type="line" smooth="yes"/>
      <point x="1560.720047" y="25.9791717529"/>
      <point x="1528.39004517" y="-3.0517578125e-05"/>
      <point x="1479.11004639" y="-3.0517578125e-05" type="curve" smooth="yes"/>
    </contour>
  </outline>
</glyph>
<glyph name="Acircumflex" format="1">
  <advance width="1640"/>
  <unicode hex="00C2"/>
  <outline>
    <contour>
      <point x="397.0" y="1770.0" type="curve" smooth="yes"/>
      <point x="397" y="1785"/>
      <point x="403" y="1803"/>
      <point x="415" y="1822" type="curve" smooth="yes"/>
      <point x="678" y="2231" type="line" smooth="yes"/>
      <point x="709" y="2279"/>
      <point x="766" y="2303"/>
      <point x="821" y="2303" type="curve" smooth="yes"/>
      <point x="874" y="2303"/>
      <point x="929" y="2282"/>
      <point x="962" y="2231" type="curve" smooth="yes"/>
      <point x="1225" y="1822" type="line" smooth="yes"/>
      <point x="1237" y="1803"/>
      <point x="1243" y="1785"/>
      <point x="1243" y="1769" type="curve" smooth="yes"/>
      <point x="1243" y="1732"/>
      <point x="1215" y="1706"/>
      <point x="1180" y="1706" type="curve" smooth="yes"/>
      <point x="1162" y="1706"/>
      <point x="1142" y="1713"/>
      <point x="1123" y="1728" type="curve" smooth="yes"/>
      <point x="867.091796875" y="1926.48046875" type="line" smooth="yes"/>
      <point x="836.372070312" y="1950.29980469"/>
      <point x="803.627929688" y="1950.29980469"/>
      <point x="772.908203125" y="1926.48046875" type="curve" smooth="yes"/>
      <point x="517.0" y="1728.0" type="line" smooth="yes"/>
      <point x="499.0" y="1714.0"/>
      <point x="480.0" y="1708.0"/>
      <point x="463.0" y="1708.0" type="curve" smooth="yes"/>
      <point x="427.0" y="1708.0"/>
      <point x="397.0" y="1733.0"/>
    </contour>
    <contour>
      <point x="902.0" y="615.0" type="curve" smooth="yes"/>
      <point x="852.0" y="1085.0" type="line"/>
      <point x="828.0" y="1265.0" type="line"/>
      <point x="828.0" y="1271.0"/>
      <point x="823.0" y="1273.0"/>
      <point x="818.0" y="1273.0" type="curve" smooth="yes"/>
      <point x="813.0" y="1273.0"/>
      <point x="808.0" y="1271.0"/>
      <point x="807.0" y="1265.0" type="curve" smooth="yes"/>
      <point x="785.0" y="1085.0" type="line"/>
      <point x="737.0" y="615.0" type="line" smooth="yes"/>
      <point x="736.0" y="607.0"/>
      <point x="735.0" y="600.0"/>
      <point x="735.0" y="595.0" type="curve" smooth="yes"/>
      <point x="735.0" y="578.0"/>
      <point x="743.0" y="576.0"/>
      <point x="771.0" y="576.0" type="curve" smooth="yes"/>
      <point x="869.0" y="576.0" type="line" smooth="yes"/>
      <point x="897.0" y="576.0"/>
      <point x="904.0" y="578.0"/>
      <point x="904.0" y="594.0" type="curve" smooth="yes"/>
      <point x="904.0" y="599.0"/>
      <point x="903.0" y="606.0"/>
    </contour>
    <contour>
      <point x="669.0" y="75.0" type="line" smooth="yes"/>
      <point x="662.0" y="27.0"/>
      <point x="631.0" y="0.0"/>
      <point x="582.0" y="0.0" type="curve" smooth="yes"/>
      <point x="148.0" y="0.0" type="line" smooth="yes"/>
      <point x="108.0" y="0.0"/>
      <point x="84.0" y="23.0"/>
      <point x="84.0" y="58.0" type="curve" smooth="yes"/>
      <point x="84.0" y="64.0"/>
      <point x="106.0" y="487.0"/>
      <point x="310.0" y="1520.0" type="curve" smooth="yes"/>
      <point x="320.0" y="1570.0"/>
      <point x="351.0" y="1595.0"/>
      <point x="400.0" y="1595.0" type="curve" smooth="yes"/>
      <point x="1235.0" y="1595.0" type="line" smooth="yes"/>
      <point x="1284.0" y="1595.0"/>
      <point x="1315.0" y="1569.0"/>
      <point x="1325.0" y="1520.0" type="curve" smooth="yes"/>
      <point x="1532.0" y="496.0"/>
      <point x="1556.0" y="63.0"/>
      <point x="1556.0" y="58.0" type="curve" smooth="yes"/>
      <point x="1556.0" y="23.0"/>
      <point x="1532.0" y="0.0"/>
      <point x="1492.0" y="0.0" type="curve" smooth="yes"/>
      <point x="1057.0" y="0.0" type="line" smooth="yes"/>
      <point x="1008.0" y="0.0"/>
      <point x="977.0" y="27.0"/>
      <point x="970.0" y="75.0" type="curve" smooth="yes"/>
      <point x="936.0" y="327.0" type="line" smooth="yes"/>
      <point x="930.0" y="365.0"/>
      <point x="936.0" y="366.0"/>
      <point x="897.0" y="366.0" type="curve" smooth="yes"/>
      <point x="743.0" y="366.0" type="line" smooth="yes"/>
      <point x="704.0" y="366.0"/>
      <point x="710.0" y="365.0"/>
      <point x="704.0" y="327.0" type="curve" smooth="yes"/>
    </contour>
  </outline>
</glyph>
<glyph name="Adieresis" format="1">
  <advance width="1640"/>
  <unicode hex="00C4"/>
  <outline>
    <contour>
      <point x="328.88671875" y="713.0" type="curve" smooth="yes"/>
      <point x="627.11328125" y="713" type="line" smooth="yes"/>
      <point x="674.602539062" y="713"/>
      <point x="703.0" y="684.602539062"/>
      <point x="703.0" y="637.11328125" type="curve" smooth="yes"/>
      <point x="703.0" y="452.88671875" type="line" smooth="yes"/>
      <point x="703.0" y="405.397460938"/>
      <point x="674.602539062" y="377.0"/>
      <point x="627.11328125" y="377.0" type="curve" smooth="yes"/>
      <point x="328.88671875" y="377.0" type="line" smooth="yes"/>
      <point x="281.397460938" y="377.0"/>
      <point x="253.0" y="405.397460938"/>
      <point x="253.0" y="452.88671875" type="curve" smooth="yes"/>
      <point x="253.0" y="637.11328125" type="line" smooth="yes"/>
      <point x="253.0" y="684.602539062"/>
      <point x="281.397460938" y="713.0"/>
    </contour>
    <contour>
      <point x="1011.88671875" y="713.0" type="curve" smooth="yes"/>
      <point x="1311.11035156" y="713.0" type="line" smooth="yes"/>
      <point x="1358.59960938" y="713.0"/>
      <point x="1387.0" y="684.602539062"/>
      <point x="1387.0" y="637.11328125" type="curve" smooth="yes"/>
      <point x="1387.0" y="452.88671875" type="line" smooth="yes"/>
      <point x="1387.0" y="405.397460938"/>
      <point x="1358.59960938" y="377.0"/>
      <point x="1311.11035156" y="377.0" type="curve" smooth="yes"/>
      <point x="1011.88671875" y="377.0" type="line" smooth="yes"/>
      <point x="964.397460938" y="377.0"/>
      <point x="936.0" y="405.397460938"/>
      <point x="936.0" y="452.88671875" type="curve" smooth="yes"/>
      <point x="936.0" y="637.11328125" type="line" smooth="yes"/>
      <point x="936.0" y="684.602539062"/>
      <point x="964.397460938" y="713.0"/>
    </contour>
    <contour>
      <point x="902.0" y="615.0" type="curve" smooth="yes"/>
      <point x="852.0" y="1085.0" type="line"/>
      <point x="828.0" y="1265.0" type="line"/>
      <point x="828.0" y="1271.0"/>
      <point x="823.0" y="1273.0"/>
      <point x="818.0" y="1273.0" type="curve" smooth="yes"/>
      <point x="813.0" y="1273.0"/>
      <point x="808.0" y="1271.0"/>
      <point x="807.0" y="1265.0" type="curve" smooth="yes"/>
      <point x="785.0" y="1085.0" type="line"/>
      <point x="737.0" y="615.0" type="line" smooth="yes"/>
      <point x="736.0" y="607.0"/>
      <point x="735.0" y="600.0"/>
      <point x="735.0" y="595.0" type="curve" smooth="yes"/>
      <point x="735.0" y="578.0"/>
      <point x="743.0" y="576.0"/>
      <point x="771.0" y="576.0" type="curve" smooth="yes"/>
      <point x="869.0" y="576.0" type="line" smooth="yes"/>
      <point x="897.0" y="576.0"/>
      <point x="904.0" y="578.0"/>
      <point x="904.0" y="594.0" type="curve" smooth="yes"/>
      <point x="904.0" y="599.0"/>
      <point x="903.0" y="606.0"/>
    </contour>
    <contour>
      <point x="669.0" y="75.0" type="line" smooth="yes"/>
      <point x="662.0" y="27.0"/>
      <point x="631.0" y="0.0"/>
      <point x="582.0" y="0.0" type="curve" smooth="yes"/>
      <point x="148.0" y="0.0" type="line" smooth="yes"/>
      <point x="108.0" y="0.0"/>
      <point x="84.0" y="23.0"/>
      <point x="84.0" y="58.0" type="curve" smooth="yes"/>
      <point x="84.0" y="64.0"/>
      <point x="106.0" y="487.0"/>
      <point x="310.0" y="1520.0" type="curve" smooth="yes"/>
      <point x="320.0" y="1570.0"/>
      <point x="351.0" y="1595.0"/>
      <point x="400.0" y="1595.0" type="curve" smooth="yes"/>
      <point x="1235.0" y="1595.0" type="line" smooth="yes"/>
      <point x="1284.0" y="1595.0"/>
      <point x="1315.0" y="1569.0"/>
      <point x="1325.0" y="1520.0" type="curve" smooth="yes"/>
      <point x="1532.0" y="496.0"/>
      <point x="1556.0" y="63.0"/>
      <point x="1556.0" y="58.0" type="curve" smooth="yes"/>
      <point x="1556.0" y="23.0"/>
      <point x="1532.0" y="0.0"/>
      <point x="1492.0" y="0.0" type="curve" smooth="yes"/>
      <point x="1057.0" y="0.0" type="line" smooth="yes"/>
      <point x="1008.0" y="0.0"/>
      <point x="977.0" y="27.0"/>
      <point x="970.0" y="75.0" type="curve" smooth="yes"/>
      <point x="936.0" y="327.0" type="line" smooth="yes"/>
      <point x="930.0" y="365.0"/>
      <point x="936.0" y="366.0"/>
      <point x="897.0" y="366.0" type="curve" smooth="yes"/>
      <point x="743.0" y="366.0" type="line" smooth="yes"/>
      <point x="704.0" y="366.0"/>
      <point x="710.0" y="365.0"/>
      <point x="704.0" y="327.0" type="curve" smooth="yes"/>
    </contour>
  </outline>
</glyph>
<glyph name="Eacute" format="1">
  <advance width="1191"/>
  <unicode hex="00C9"/>
  <outline>
    <contour>
      <point x="192.5" y="1715" type="curve" smooth="yes"/>
      <point x="192.5" y="1733"/>
      <point x="202.5" y="1754"/>
      <point x="226.5" y="1775" type="curve" smooth="yes"/>
      <point x="389.5" y="1924"/>
      <point x="599.5" y="2130"/>
      <point x="700.5" y="2188" type="curve" smooth="yes"/>
      <point x="745.5" y="2214"/>
      <point x="787.5" y="2225"/>
      <point x="825.5" y="2225" type="curve" smooth="yes"/>
      <point x="928.5" y="2225"/>
      <point x="999.5" y="2141"/>
      <point x="999.5" y="2047" type="curve" smooth="yes"/>
      <point x="999.5" y="1982"/>
      <point x="964.5" y="1912"/>
      <point x="883.5" y="1865" type="curve" smooth="yes"/>
      <point x="779.5" y="1805"/>
      <point x="492.5" y="1733"/>
      <point x="287.5" y="1671" type="curve"/>
      <point x="276.5" y="1667"/>
      <point x="265.5" y="1666"/>
      <point x="255.5" y="1666" type="curve" smooth="yes"/>
      <point x="220.5" y="1666"/>
      <point x="192.5" y="1686"/>
    </contour>
    <contour>
      <point x="235.0" y="1595" type="curve" smooth="yes"/>
      <point x="1037.0" y="1595" type="line" smooth="yes"/>
      <point x="1085.0" y="1595"/>
      <point x="1113.0" y="1567"/>
      <point x="1113.0" y="1519" type="curve" smooth="yes"/>
      <point x="1113.0" y="1422" type="line" smooth="yes"/>
      <point x="1113.0" y="1374"/>
      <point x="1085.0" y="1346"/>
      <point x="1037.0" y="1346" type="curve" smooth="yes"/>
      <point x="832.0" y="1346" type="line" smooth="yes"/>
      <point x="794.0" y="1346"/>
      <point x="772.0" y="1324"/>
      <point x="772.0" y="1286" type="curve" smooth="yes"/>
      <point x="772.0" y="1021" type="line" smooth="yes"/>
      <point x="772.0" y="983"/>
      <point x="794.0" y="961"/>
      <point x="832.0" y="961" type="curve" smooth="yes"/>
      <point x="1014.0" y="961" type="line" smooth="yes"/>
      <point x="1062.0" y="961"/>
      <point x="1090.0" y="933"/>
      <point x="1090.0" y="885" type="curve" smooth="yes"/>
      <point x="1090.0" y="787" type="line" smooth="yes"/>
      <point x="1090.0" y="739"/>
      <point x="1062.0" y="711"/>
      <point x="1014.0" y="711" type="curve" smooth="yes"/>
      <point x="832.0" y="711" type="line" smooth="yes"/>
      <point x="794.0" y="711"/>
      <point x="772.0" y="689"/>
      <point x="772.0" y="651" type="curve" smooth="yes"/>
      <point x="772.0" y="311" type="line" smooth="yes"/>
      <point x="772.0" y="273"/>
      <point x="794.0" y="251"/>
      <point x="832.0" y="251" type="curve" smooth="yes"/>
      <point x="1037.0" y="251" type="line" smooth="yes"/>
      <point x="1085.0" y="251"/>
      <point x="1113.0" y="223"/>
      <point x="1113.0" y="175" type="curve" smooth="yes"/>
      <point x="1113.0" y="76" type="line" smooth="yes"/>
      <point x="1113.0" y="28"/>
      <point x="1085.0" y="0"/>
      <point x="1037.0" y="0" type="curve" smooth="yes"/>
      <point x="235.0" y="0" type="line" smooth="yes"/>
      <point x="187.0" y="0"/>
      <point x="162.0" y="28"/>
      <point x="159.0" y="76" type="curve" smooth="yes"/>
      <point x="147.0" y="307"/>
      <point x="140.0" y="581"/>
      <point x="140.0" y="836" type="curve" smooth="yes"/>
      <point x="140.0" y="1112"/>
      <point x="148.0" y="1366"/>
      <point x="159.0" y="1519" type="curve" smooth="yes"/>
      <point x="162.0" y="1565"/>
      <point x="187.0" y="1595"/>
    </contour>
  </outline>
</glyph>
<glyph name="Icircumflex" format="1">
  <advance width="926"/>
  <unicode hex="00CE"/>
  <outline>
    <contour>
      <point x="40.0" y="1770.0" type="curve" smooth="yes"/>
      <point x="40" y="1785"/>
      <point x="46" y="1803"/>
      <point x="58" y="1822" type="curve" smooth="yes"/>
      <point x="321" y="2231" type="line" smooth="yes"/>
      <point x="352" y="2279"/>
      <point x="409" y="2303"/>
      <point x="464" y="2303" type="curve" smooth="yes"/>
      <point x="517" y="2303"/>
      <point x="572" y="2282"/>
      <point x="605" y="2231" type="curve" smooth="yes"/>
      <point x="868" y="1822" type="line" smooth="yes"/>
      <point x="880" y="1803"/>
      <point x="886" y="1785"/>
      <point x="886" y="1769" type="curve" smooth="yes"/>
      <point x="886" y="1732"/>
      <point x="858" y="1706"/>
      <point x="823" y="1706" type="curve" smooth="yes"/>
      <point x="805" y="1706"/>
      <point x="785" y="1713"/>
      <point x="766" y="1728" type="curve" smooth="yes"/>
      <point x="510.091796875" y="1926.48046875" type="line" smooth="yes"/>
      <point x="479.372070312" y="1950.29980469"/>
      <point x="446.627929688" y="1950.29980469"/>
      <point x="415.908203125" y="1926.48046875" type="curve" smooth="yes"/>
      <point x="160.0" y="1728.0" type="line" smooth="yes"/>
      <point x="142.0" y="1714.0"/>
      <point x="123.0" y="1708.0"/>
      <point x="106.0" y="1708.0" type="curve" smooth="yes"/>
      <point x="70.0" y="1708.0"/>
      <point x="40.0" y="1733.0"/>
    </contour>
    <contour>
      <point x="237.0" y="1595.0" type="curve" smooth="yes"/>
      <point x="689.0" y="1595.0" type="line" smooth="yes"/>
      <point x="737.0" y="1595.0"/>
      <point x="760.0" y="1565.0"/>
      <point x="765.0" y="1519.0" type="curve" smooth="yes"/>
      <point x="779.0" y="1386.0"/>
      <point x="786.0" y="1122.0"/>
      <point x="786.0" y="842.0" type="curve" smooth="yes"/>
      <point x="786.0" y="562.0"/>
      <point x="779.0" y="265.0"/>
      <point x="765.0" y="76.0" type="curve" smooth="yes"/>
      <point x="762.0" y="29.0"/>
      <point x="737.0" y="0.0"/>
      <point x="689.0" y="0.0" type="curve" smooth="yes"/>
      <point x="237.0" y="0.0" type="line" smooth="yes"/>
      <point x="189.0" y="0.0"/>
      <point x="165.0" y="30.0"/>
      <point x="161.0" y="76.0" type="curve" smooth="yes"/>
      <point x="148.0" y="216.0"/>
      <point x="140.0" y="531.0"/>
      <point x="140.0" y="842.0" type="curve" smooth="yes"/>
      <point x="140.0" y="1137.0"/>
      <point x="147.0" y="1430.0"/>
      <point x="161.0" y="1519.0" type="curve" smooth="yes"/>
      <point x="168.0" y="1565.0"/>
      <point x="189.0" y="1595.0"/>
    </contour>
  </outline>
</glyph>
<glyph name="Ntilde" format="1">
  <advance width="1715"/>
  <unicode hex="00D1"/>
  <outline>
    <contour>
      <point x="1422.70507812" y="391.0" type="curve"/>
      <point x="1422.70507812" y="391"/>
      <point x="1204.54492188" y="391.240234375"/>
      <point x="1204.54492188" y="391.48046875" type="curve" smooth="yes"/>
      <point x="1204.43457031" y="473.3203125"/>
      <point x="1176.38476562" y="555.0"/>
      <point x="1094.54492188" y="555.0" type="curve" smooth="yes"/>
      <point x="1050.54492188" y="555.0"/>
      <point x="1019.54492188" y="528.0"/>
      <point x="991.544921875" y="506.0" type="curve" smooth="yes"/>
      <point x="897.544921875" y="431.0"/>
      <point x="799.544921875" y="365.0"/>
      <point x="624.544921875" y="365.0" type="curve" smooth="yes"/>
      <point x="388.544921875" y="365.0"/>
      <point x="289.544921875" y="471.0"/>
      <point x="244.544921875" y="671.0" type="curve"/>
      <point x="231.326171875" y="717.265625"/>
      <point x="222.9609375" y="773.778320312"/>
      <point x="219.450195312" y="840.140625" type="curve" smooth="yes"/>
      <point x="217.03515625" y="885.78125"/>
      <point x="245.698242188" y="916.0"/>
      <point x="291.401367188" y="916.0" type="curve" smooth="yes"/>
      <point x="425.250976562" y="916.0" type="line" smooth="yes"/>
      <point x="483.198242188" y="916.0"/>
      <point x="507.748046875" y="896.823242188"/>
      <point x="521.776367188" y="840.598632812" type="curve" smooth="yes"/>
      <point x="535.001953125" y="787.587890625"/>
      <point x="565.790039062" y="748.0"/>
      <point x="625.544921875" y="748.0" type="curve" smooth="yes"/>
      <point x="669.544921875" y="748.0"/>
      <point x="703.544921875" y="776.0"/>
      <point x="733.544921875" y="798.0" type="curve" smooth="yes"/>
      <point x="829.544921875" y="868.0"/>
      <point x="922.544921875" y="941.0"/>
      <point x="1091.54492188" y="941.0" type="curve" smooth="yes"/>
      <point x="1424.51464844" y="941.0"/>
      <point x="1488.86523438" y="768.19140625"/>
      <point x="1496.65527344" y="466.883789062" type="curve" smooth="yes"/>
      <point x="1497.85546875" y="420.296875"/>
      <point x="1469.3046875" y="391.0"/>
    </contour>
    <contour>
      <point x="1477.0" y="0.0" type="curve" smooth="yes"/>
      <point x="1090.0" y="0.0" type="line" smooth="yes"/>
      <point x="1039.0" y="0.0"/>
      <point x="1002.0" y="22.0"/>
      <point x="976.0" y="66.0" type="curve" smooth="yes"/>
      <point x="638.0" y="659.0" type="line" smooth="yes"/>
      <point x="633.0" y="668.0"/>
      <point x="627.0" y="671.0"/>
      <point x="622.0" y="671.0" type="curve" smooth="yes"/>
      <point x="615.0" y="671.0"/>
      <point x="609.0" y="664.0"/>
      <point x="609.0" y="651.0" type="curve" smooth="yes"/>
      <point x="609.0" y="76.0" type="line" smooth="yes"/>
      <point x="609.0" y="28.0"/>
      <point x="581.0" y="0.0"/>
      <point x="533.0" y="0.0" type="curve" smooth="yes"/>
      <point x="237.0" y="0.0" type="line" smooth="yes"/>
      <point x="189.0" y="0.0"/>
      <point x="164.0" y="28.0"/>
      <point x="161.0" y="76.0" type="curve" smooth="yes"/>
      <point x="147.0" y="330.0"/>
      <point x="140.0" y="577.0"/>
      <point x="140.0" y="817.0" type="curve" smooth="yes"/>
      <point x="140.0" y="1057.0"/>
      <point x="147.0" y="1291.0"/>
      <point x="161.0" y="1519.0" type="curve" smooth="yes"/>
      <point x="164.0" y="1567.0"/>
      <point x="189.0" y="1595.0"/>
      <point x="237.0" y="1595.0" type="curve" smooth="yes"/>
      <point x="602.0" y="1595.0" type="line" smooth="yes"/>
      <point x="653.0" y="1595.0"/>
      <point x="690.0" y="1573.0"/>
      <point x="715.0" y="1529.0" type="curve" smooth="yes"/>
      <point x="1080.0" y="886.0" type="line" smooth="yes"/>
      <point x="1085.0" y="877.0"/>
      <point x="1091.0" y="874.0"/>
      <point x="1096.0" y="874.0" type="curve" smooth="yes"/>
      <point x="1103.0" y="874.0"/>
      <point x="1109.0" y="881.0"/>
      <point x="1109.0" y="894.0" type="curve" smooth="yes"/>
      <point x="1109.0" y="1519.0" type="line" smooth="yes"/>
      <point x="1109.0" y="1567.0"/>
      <point x="1137.0" y="1595.0"/>
      <point x="1185.0" y="1595.0" type="curve" smooth="yes"/>
      <point x="1477.0" y="1595.0" type="line" smooth="yes"/>
      <point x="1525.0" y="1595.0"/>
      <point x="1550.0" y="1566.0"/>
      <point x="1553.0" y="1519.0" type="curve" smooth="yes"/>
      <point x="1569.0" y="1306.0"/>
      <point x="1575.0" y="1050.0"/>
      <point x="1575.0" y="829.0" type="curve" smooth="yes"/>
      <point x="1575.0" y="572.0"/>
      <point x="1566.0" y="349.0"/>
      <point x="1553.0" y="76.0" type="curve" smooth="yes"/>
      <point x="1551.0" y="28.0"/>
      <point x="1525.0" y="0.0"/>
    </contour>
  </outline>
</glyph>
<glyph name="Otilde" format="1">
  <advance width="1710"/>
  <unicode hex="00D5"/>
  <outline>
    <contour>
      <point x="1419.70507812" y="391.0" type="curve"/>
      <point x="1419.70507812" y="391"/>
      <point x="1201.54492188" y="391.240234375"/>
      <point x="1201.54492188" y="391.48046875" type="curve" smooth="yes"/>
      <point x="1201.43457031" y="473.3203125"/>
      <point x="1173.38476562" y="555.0"/>
      <point x="1091.54492188" y="555.0" type="curve" smooth="yes"/>
      <point x="1047.54492188" y="555.0"/>
      <point x="1016.54492188" y="528.0"/>
      <point x="988.544921875" y="506.0" type="curve" smooth="yes"/>
      <point x="894.544921875" y="431.0"/>
      <point x="796.544921875" y="365.0"/>
      <point x="621.544921875" y="365.0" type="curve" smooth="yes"/>
      <point x="385.544921875" y="365.0"/>
      <point x="286.544921875" y="471.0"/>
      <point x="241.544921875" y="671.0" type="curve"/>
      <point x="228.326171875" y="717.265625"/>
      <point x="219.9609375" y="773.778320312"/>
      <point x="216.450195312" y="840.140625" type="curve" smooth="yes"/>
      <point x="214.03515625" y="885.78125"/>
      <point x="242.698242188" y="916.0"/>
      <point x="288.401367188" y="916.0" type="curve" smooth="yes"/>
      <point x="422.250976562" y="916.0" type="line" smooth="yes"/>
      <point x="480.198242188" y="916.0"/>
      <point x="504.748046875" y="896.823242188"/>
      <point x="518.776367188" y="840.598632812" type="curve" smooth="yes"/>
      <point x="532.001953125" y="787.587890625"/>
      <point x="562.790039062" y="748.0"/>
      <point x="622.544921875" y="748.0" type="curve" smooth="yes"/>
      <point x="666.544921875" y="748.0"/>
      <point x="700.544921875" y="776.0"/>
      <point x="730.544921875" y="798.0" type="curve" smooth="yes"/>
      <point x="826.544921875" y="868.0"/>
      <point x="919.544921875" y="941.0"/>
      <point x="1088.54492188" y="941.0" type="curve" smooth="yes"/>
      <point x="1421.51464844" y="941.0"/>
      <point x="1485.86523438" y="768.19140625"/>
      <point x="1493.65527344" y="466.883789062" type="curve" smooth="yes"/>
      <point x="1494.85546875" y="420.296875"/>
      <point x="1466.3046875" y="391.0"/>
    </contour>
    <contour>
      <point x="852.0" y="1631.0" type="curve" smooth="yes"/>
      <point x="1424.0" y="1631.0"/>
      <point x="1596.0" y="1573.0"/>
      <point x="1596.0" y="808.0" type="curve" smooth="yes"/>
      <point x="1596.0" y="21.0"/>
      <point x="1454.0" y="-39.0"/>
      <point x="852.0" y="-39.0" type="curve" smooth="yes"/>
      <point x="232.0" y="-39.0"/>
      <point x="114.0" y="19.0"/>
      <point x="114.0" y="805.0" type="curve" smooth="yes"/>
      <point x="114.0" y="1568.0"/>
      <point x="251.0" y="1631.0"/>
    </contour>
    <contour>
      <point x="839.0" y="315.0" type="curve" smooth="yes"/>
      <point x="875.0" y="315.0" type="line" smooth="yes"/>
      <point x="988.0" y="315.0"/>
      <point x="991.0" y="315.0"/>
      <point x="991.0" y="799.0" type="curve" smooth="yes"/>
      <point x="991.0" y="1283.0"/>
      <point x="988.0" y="1282.0"/>
      <point x="875.0" y="1282.0" type="curve" smooth="yes"/>
      <point x="839.0" y="1282.0" type="line" smooth="yes"/>
      <point x="737.0" y="1282.0"/>
      <point x="736.0" y="1280.0"/>
      <point x="736.0" y="796.0" type="curve" smooth="yes"/>
      <point x="736.0" y="314.0"/>
      <point x="737.0" y="315.0"/>
    </contour>
  </outline>
</glyph>
<glyph name="Odieresis" format="1">
  <advance width="1710"/>
  <unicode hex="00D6"/>
  <outline>
    <contour>
      <point x="363.88671875" y="713.0" type="curve" smooth="yes"/>
      <point x="662.11328125" y="713" type="line" smooth="yes"/>
      <point x="709.602539062" y="713"/>
      <point x="738.0" y="684.602539062"/>
      <point x="738.0" y="637.11328125" type="curve" smooth="yes"/>
      <point x="738.0" y="452.88671875" type="line" smooth="yes"/>
      <point x="738.0" y="405.397460938"/>
      <point x="709.602539062" y="377.0"/>
      <point x="662.11328125" y="377.0" type="curve" smooth="yes"/>
      <point x="363.88671875" y="377.0" type="line" smooth="yes"/>
      <point x="316.397460938" y="377.0"/>
      <point x="288.0" y="405.397460938"/>
      <point x="288.0" y="452.88671875" type="curve" smooth="yes"/>
      <point x="288.0" y="637.11328125" type="line" smooth="yes"/>
      <point x="288.0" y="684.602539062"/>
      <point x="316.397460938" y="713.0"/>
    </contour>
    <contour>
      <point x="1046.88671875" y="713.0" type="curve" smooth="yes"/>
      <point x="1346.11035156" y="713.0" type="line" smooth="yes"/>
      <point x="1393.59960938" y="713.0"/>
      <point x="1422.0" y="684.602539062"/>
      <point x="1422.0" y="637.11328125" type="curve" smooth="yes"/>
      <point x="1422.0" y="452.88671875" type="line" smooth="yes"/>
      <point x="1422.0" y="405.397460938"/>
      <point x="1393.59960938" y="377.0"/>
      <point x="1346.11035156" y="377.0" type="curve" smooth="yes"/>
      <point x="1046.88671875" y="377.0" type="line" smooth="yes"/>
      <point x="999.397460938" y="377.0"/>
      <point x="971.0" y="405.397460938"/>
      <point x="971.0" y="452.88671875" type="curve" smooth="yes"/>
      <point x="971.0" y="637.11328125" type="line" smooth="yes"/>
      <point x="971.0" y="684.602539062"/>
      <point x="999.397460938" y="713.0"/>
    </contour>
    <contour>
      <point x="852.0" y="1631.0" type="curve" smooth="yes"/>
      <point x="1424.0" y="1631.0"/>
      <point x="1596.0" y="1573.0"/>
      <point x="1596.0" y="808.0" type="curve" smooth="yes"/>
      <point x="1596.0" y="21.0"/>
      <point x="1454.0" y="-39.0"/>
      <point x="852.0" y="-39.0" type="curve" smooth="yes"/>
      <point x="232.0" y="-39.0"/>
      <point x="114.0" y="19.0"/>
      <point x="114.0" y="805.0" type="curve" smooth="yes"/>
      <point x="114.0" y="1568.0"/>
      <point x="251.0" y="1631.0"/>
    </contour>
    <contour>
      <point x="839.0" y="315.0" type="curve" smooth="yes"/>
      <point x="875.0" y="315.0" type="line" smooth="yes"/>
      <point x="988.0" y="315.0"/>
      <point x="991.0" y="315.0"/>
      <point x="991.0" y="799.0" type="curve" smooth="yes"/>
      <point x="991.0" y="1283.0"/>
      <point x="988.0" y="1282.0"/>
      <point x="875.0" y="1282.0" type="curve" smooth="yes"/>
      <point x="839.0" y="1282.0" type="line" smooth="yes"/>
      <point x="737.0" y="1282.0"/>
      <point x="736.0" y="1280.0"/>
      <point x="736.0" y="796.0" type="curve" smooth="yes"/>
      <point x="736.0" y="314.0"/>
      <point x="737.0" y="315.0"/>
    </contour>
  </outline>
</glyph>
<glyph name="Oslash" format="1">
  <advance width="1542"/>
  <unicode hex="00D8"/>
  <outline>
    <contour>
      <point x="868" y="854.914993286" type="line"/>
      <point x="695" y="572.776992798" type="line"/>
      <point x="695" y="294.595993042" type="line" smooth="yes"/>
      <point x="695" y="257.300979614"/>
      <point x="717.300994873" y="234.999984741"/>
      <point x="754.595993042" y="234.999984741" type="curve" smooth="yes"/>
      <point x="808.403991699" y="234.999984741" type="line" smooth="yes"/>
      <point x="845.699005127" y="234.999984741"/>
      <point x="868.0" y="257.300979614"/>
      <point x="868.0" y="294.595977783" type="curve" smooth="yes"/>
    </contour>
    <contour>
      <point x="695.0" y="1302.39997864" type="curve" smooth="yes"/>
      <point x="695.0" y="874.316986084" type="line"/>
      <point x="868.0" y="1155.49998474" type="line"/>
      <point x="868.0" y="1302.39997864" type="line" smooth="yes"/>
      <point x="868.0" y="1339.69998169"/>
      <point x="845.699005127" y="1361.99998474"/>
      <point x="808.404006958" y="1361.99998474" type="curve" smooth="yes"/>
      <point x="754.596008301" y="1361.99998474" type="line" smooth="yes"/>
      <point x="717.300994873" y="1361.99998474"/>
      <point x="695.0" y="1339.69998169"/>
    </contour>
    <contour>
      <point x="1058.0" y="-20.0000152588" type="line"/>
      <point x="981.037994385" y="-32.9937133789"/>
      <point x="888.091003418" y="-38.9941101074"/>
      <point x="778.160995483" y="-39.0000152588" type="curve" smooth="yes"/>
      <point x="778.080993652" y="-39.0000152588"/>
      <point x="778.035995483" y="-39.0721130371"/>
      <point x="778.072006226" y="-39.1441192627" type="curve" smooth="yes"/>
      <point x="778.947006226" y="-40.8944244385" type="line" smooth="yes"/>
      <point x="778.974014282" y="-40.9472198486"/>
      <point x="778.941009521" y="-41.0000152588"/>
      <point x="778.860015869" y="-41.0000152588" type="curve" smooth="yes"/>
      <point x="609.854019165" y="-40.9918212891"/>
      <point x="468.256011963" y="-26.1020202637"/>
      <point x="351.98600769" y="13.3710784912" type="curve"/>
      <point x="281.669006348" y="-101.306015015" type="line" smooth="yes"/>
      <point x="257.348007202" y="-140.971008301"/>
      <point x="218.511993408" y="-148.384017944"/>
      <point x="181.289993286" y="-120.468017578" type="curve" smooth="yes"/>
      <point x="174.709991455" y="-115.532012939" type="line" smooth="yes"/>
      <point x="136.050003052" y="-86.5372009277"/>
      <point x="128.442993164" y="-46.5252990723"/>
      <point x="153.766998291" y="-5.36640930176" type="curve" smooth="yes"/>
      <point x="209.539993286" y="85.283203125" type="line"/>
      <point x="148.8099823" y="131.322998047"/>
      <point x="106.828979492" y="194.333999634"/>
      <point x="95.9999847412" y="283.0" type="curve" smooth="yes"/>
      <point x="91.9999847412" y="314.0"/>
      <point x="89.9999847412" y="343.0"/>
      <point x="89.9999847412" y="370.0" type="curve" smooth="yes"/>
      <point x="89.9999847412" y="1226.0" type="line" smooth="yes"/>
      <point x="89.9999847412" y="1491.0"/>
      <point x="262.999984741" y="1572.0"/>
      <point x="498.999984741" y="1611.0" type="curve" smooth="yes"/>
      <point x="575.999984741" y="1624.0"/>
      <point x="668.999984741" y="1630.0"/>
      <point x="777.999984741" y="1630.0" type="curve" smooth="yes"/>
      <point x="916.503982544" y="1630.0"/>
      <point x="1036.26998901" y="1620.63000488"/>
      <point x="1139.18998718" y="1596.27000427" type="curve"/>
      <point x="1235.22998047" y="1752.37001038" type="line" smooth="yes"/>
      <point x="1259.31997681" y="1791.51000977"/>
      <point x="1297.97996521" y="1797.82002258"/>
      <point x="1333.25996399" y="1768.37001038" type="curve" smooth="yes"/>
      <point x="1337.73995972" y="1764.63000488" type="line" smooth="yes"/>
      <point x="1375.16996765" y="1733.38000488"/>
      <point x="1381.81997681" y="1692.86999512"/>
      <point x="1356.32997131" y="1651.30999756" type="curve" smooth="yes"/>
      <point x="1290.13996887" y="1543.36000061" type="line"/>
      <point x="1405.97994995" y="1485.40000916"/>
      <point x="1471.99995422" y="1394.82002258"/>
      <point x="1471.99995422" y="1226.00001526" type="curve" smooth="yes"/>
      <point x="1471.99995422" y="370.000015259" type="line" smooth="yes"/>
      <point x="1471.99995422" y="103.000015259"/>
      <point x="1294.99995422" y="20.0000152588"/>
      <point x="1057.99995422" y="-19.9999847412" type="curve"/>
    </contour>
  </outline>
</glyph>
<glyph name="Ugrave" format="1">
  <advance width="1556"/>
  <unicode hex="00D9"/>
  <outline>
    <contour>
      <point x="673.5" y="2188" type="curve" smooth="yes"/>
      <point x="774.5" y="2130"/>
      <point x="984.5" y="1924"/>
      <point x="1147.5" y="1775" type="curve" smooth="yes"/>
      <point x="1171.5" y="1754"/>
      <point x="1181.5" y="1733"/>
      <point x="1181.5" y="1715" type="curve" smooth="yes"/>
      <point x="1181.5" y="1686"/>
      <point x="1153.5" y="1666"/>
      <point x="1118.5" y="1666" type="curve" smooth="yes"/>
      <point x="1108.5" y="1666"/>
      <point x="1097.5" y="1667"/>
      <point x="1086.5" y="1671" type="curve"/>
      <point x="881.5" y="1733"/>
      <point x="594.5" y="1805"/>
      <point x="490.5" y="1865" type="curve" smooth="yes"/>
      <point x="409.5" y="1912"/>
      <point x="374.5" y="1982"/>
      <point x="374.5" y="2047" type="curve" smooth="yes"/>
      <point x="374.5" y="2141"/>
      <point x="445.5" y="2225"/>
      <point x="548.5" y="2225" type="curve" smooth="yes"/>
      <point x="586.5" y="2225"/>
      <point x="628.5" y="2214"/>
    </contour>
    <contour>
      <point x="701.0" y="1519.11035156" type="curve" smooth="yes"/>
      <point x="701.0" y="293.595703125" type="line" smooth="yes"/>
      <point x="701.0" y="256.30078125"/>
      <point x="723.30078125" y="234.0"/>
      <point x="760.595703125" y="234.0" type="curve" smooth="yes"/>
      <point x="814.404296875" y="234.0" type="line" smooth="yes"/>
      <point x="851.69921875" y="234.0"/>
      <point x="874.0" y="256.30078125"/>
      <point x="874.0" y="293.595703125" type="curve" smooth="yes"/>
      <point x="874.0" y="1518.11035156" type="line" smooth="yes"/>
      <point x="874.0" y="1565.59960938"/>
      <point x="902.397460938" y="1594.0"/>
      <point x="949.88671875" y="1594.0" type="curve" smooth="yes"/>
      <point x="1403.11035156" y="1594.0" type="line" smooth="yes"/>
      <point x="1450.59960938" y="1594.0"/>
      <point x="1479.0" y="1565.59960938"/>
      <point x="1479.0" y="1518.11035156" type="curve" smooth="yes"/>
      <point x="1479.0" y="370.0" type="line" smooth="yes"/>
      <point x="1479.0" y="-4.0"/>
      <point x="1088.0" y="-39.0"/>
      <point x="786.0" y="-39.0" type="curve" smooth="yes"/>
      <point x="509.0" y="-39.0"/>
      <point x="97.0" y="-7.0"/>
      <point x="97.0" y="371.0" type="curve" smooth="yes"/>
      <point x="97.0" y="1519.11035156" type="line" smooth="yes"/>
      <point x="97.0" y="1566.59960938"/>
      <point x="125.397460938" y="1595.0"/>
      <point x="172.88671875" y="1595.0" type="curve" smooth="yes"/>
      <point x="625.11328125" y="1595.0" type="line" smooth="yes"/>
      <point x="672.602539062" y="1595.0"/>
      <point x="701.0" y="1566.59960938"/>
    </contour>
  </outline>
</glyph>
<glyph name="Ucircumflex" format="1">
  <advance width="1556"/>
  <unicode hex="00DB"/>
  <outline>
    <contour>
      <point x="355.0" y="1770.0" type="curve" smooth="yes"/>
      <point x="355" y="1785"/>
      <point x="361" y="1803"/>
      <point x="373" y="1822" type="curve" smooth="yes"/>
      <point x="636" y="2231" type="line" smooth="yes"/>
      <point x="667" y="2279"/>
      <point x="724" y="2303"/>
      <point x="779" y="2303" type="curve" smooth="yes"/>
      <point x="832" y="2303"/>
      <point x="887" y="2282"/>
      <point x="920" y="2231" type="curve" smooth="yes"/>
      <point x="1183" y="1822" type="line" smooth="yes"/>
      <point x="1195" y="1803"/>
      <point x="1201" y="1785"/>
      <point x="1201" y="1769" type="curve" smooth="yes"/>
      <point x="1201" y="1732"/>
      <point x="1173" y="1706"/>
      <point x="1138" y="1706" type="curve" smooth="yes"/>
      <point x="1120" y="1706"/>
      <point x="1100" y="1713"/>
      <point x="1081" y="1728" type="curve" smooth="yes"/>
      <point x="825.091796875" y="1926.48046875" type="line" smooth="yes"/>
      <point x="794.372070312" y="1950.29980469"/>
      <point x="761.627929688" y="1950.29980469"/>
      <point x="730.908203125" y="1926.48046875" type="curve" smooth="yes"/>
      <point x="475.0" y="1728.0" type="line" smooth="yes"/>
      <point x="457.0" y="1714.0"/>
      <point x="438.0" y="1708.0"/>
      <point x="421.0" y="1708.0" type="curve" smooth="yes"/>
      <point x="385.0" y="1708.0"/>
      <point x="355.0" y="1733.0"/>
    </contour>
    <contour>
      <point x="701.0" y="1519.11035156" type="curve" smooth="yes"/>
      <point x="701.0" y="293.595703125" type="line" smooth="yes"/>
      <point x="701.0" y="256.30078125"/>
      <point x="723.30078125" y="234.0"/>
      <point x="760.595703125" y="234.0" type="curve" smooth="yes"/>
      <point x="814.404296875" y="234.0" type="line" smooth="yes"/>
      <point x="851.69921875" y="234.0"/>
      <point x="874.0" y="256.30078125"/>
      <point x="874.0" y="293.595703125" type="curve" smooth="yes"/>
      <point x="874.0" y="1518.11035156" type="line" smooth="yes"/>
      <point x="874.0" y="1565.59960938"/>
      <point x="902.397460938" y="1594.0"/>
      <point x="949.88671875" y="1594.0" type="curve" smooth="yes"/>
      <point x="1403.11035156" y="1594.0" type="line" smooth="yes"/>
      <point x="1450.59960938" y="1594.0"/>
      <point x="1479.0" y="1565.59960938"/>
      <point x="1479.0" y="1518.11035156" type="curve" smooth="yes"/>
      <point x="1479.0" y="370.0" type="line" smooth="yes"/>
      <point x="1479.0" y="-4.0"/>
      <point x="1088.0" y="-39.0"/>
      <point x="786.0" y="-39.0" type="curve" smooth="yes"/>
      <point x="509.0" y="-39.0"/>
      <point x="97.0" y="-7.0"/>
      <point x="97.0" y="371.0" type="curve" smooth="yes"/>
      <point x="97.0" y="1519.11035156" type="line" smooth="yes"/>
      <point x="97.0" y="1566.59960938"/>
      <point x="125.397460938" y="1595.0"/>
      <point x="172.88671875" y="1595.0" type="curve" smooth="yes"/>
      <point x="625.11328125" y="1595.0" type="line" smooth="yes"/>
      <point x="672.602539062" y="1595.0"/>
      <point x="701.0" y="1566.59960938"/>
    </contour>
  </outline>
</glyph>
<glyph name="Thorn" format="1">
  <advance width="1534"/>
  <unicode hex="00DE"/>
  <outline>
    <contour>
      <point x="104" y="75.887298584" type="line"/>
      <point x="104" y="1523.11000061" type="line" smooth="yes"/>
      <point x="104" y="1570.60002136"/>
      <point x="132.397003174" y="1599.00001526"/>
      <point x="179.886993408" y="1599.00001526" type="curve" smooth="yes"/>
      <point x="630.112991333" y="1599.00001526" type="line" smooth="yes"/>
      <point x="677.602981567" y="1599.00001526"/>
      <point x="705.999984741" y="1570.60002136"/>
      <point x="705.999984741" y="1523.11001587" type="curve" smooth="yes"/>
      <point x="705.999984741" y="1472.60002136" type="line" smooth="yes"/>
      <point x="705.999984741" y="1435.30001831"/>
      <point x="728.300979614" y="1413.00001526"/>
      <point x="765.595977783" y="1413.00001526" type="curve" smooth="yes"/>
      <point x="842.999984741" y="1413.00001526" type="line" smooth="yes"/>
      <point x="1022.99998474" y="1413.00001526"/>
      <point x="1168.99998474" y="1397.00001526"/>
      <point x="1283.99998474" y="1347.00001526" type="curve" smooth="yes"/>
      <point x="1384.99998474" y="1303.00001526"/>
      <point x="1458.99998474" y="1233.00001526"/>
      <point x="1465.99998474" y="1107.00001526" type="curve" smooth="yes"/>
      <point x="1467.99998474" y="1077.00001526"/>
      <point x="1468.99998474" y="1049.00001526"/>
      <point x="1468.99998474" y="1022.00001526" type="curve" smooth="yes"/>
      <point x="1468.99998474" y="641.000015259" type="line" smooth="yes"/>
      <point x="1468.99998474" y="576.000015259"/>
      <point x="1466.99998474" y="519.000015259"/>
      <point x="1446.99998474" y="469.000015259" type="curve" smooth="yes"/>
      <point x="1395.99998474" y="345.000015259"/>
      <point x="1267.99998474" y="295.000015259"/>
      <point x="1107.99998474" y="268.000015259" type="curve" smooth="yes"/>
      <point x="1035.99998474" y="256.000015259"/>
      <point x="947.999984741" y="250.000015259"/>
      <point x="842.999984741" y="250.000015259" type="curve" smooth="yes"/>
      <point x="765.595977783" y="250.000015259" type="line" smooth="yes"/>
      <point x="728.300964355" y="250.000015259"/>
      <point x="705.999969482" y="227.699020386"/>
      <point x="705.999969482" y="190.404022217" type="curve" smooth="yes"/>
      <point x="705.999969482" y="75.8873291016" type="line" smooth="yes"/>
      <point x="705.999969482" y="28.3970336914"/>
      <point x="677.602966309" y="3.0517578125e-05"/>
      <point x="630.112976074" y="3.0517578125e-05" type="curve" smooth="yes"/>
      <point x="179.886978149" y="3.0517578125e-05" type="line" smooth="yes"/>
      <point x="132.396987915" y="3.0517578125e-05"/>
      <point x="103.999984741" y="28.3970336914"/>
      <point x="103.999984741" y="75.8873291016" type="curve"/>
    </contour>
    <contour>
      <point x="705.999984741" y="1122.40002441" type="line"/>
      <point x="705.999984741" y="541.59602356" type="line" smooth="yes"/>
      <point x="705.999984741" y="504.301010132"/>
      <point x="728.300979614" y="482.000015259"/>
      <point x="765.595977783" y="482.000015259" type="curve" smooth="yes"/>
      <point x="809.40397644" y="482.000015259" type="line" smooth="yes"/>
      <point x="846.698989868" y="482.000015259"/>
      <point x="868.999984741" y="504.301010132"/>
      <point x="868.999984741" y="541.596008301" type="curve" smooth="yes"/>
      <point x="868.999984741" y="1122.40000916" type="line" smooth="yes"/>
      <point x="868.999984741" y="1159.70001221"/>
      <point x="846.698989868" y="1182.00001526"/>
      <point x="809.403991699" y="1182.00001526" type="curve" smooth="yes"/>
      <point x="765.595993042" y="1182.00001526" type="line" smooth="yes"/>
      <point x="728.300979614" y="1182.00001526"/>
      <point x="705.999984741" y="1159.70001221"/>
      <point x="705.999984741" y="1122.40000916" type="curve"/>
    </contour>
  </outline>
</glyph>
<glyph name="germandbls" format="1">
  <advance width="1389"/>
  <unicode hex="00DF"/>
  <outline>
    <contour>
      <point x="595" y="1298.3999939" type="line"/>
      <point x="595" y="-129.113006592" type="line" smooth="yes"/>
      <point x="595" y="-176.602996826"/>
      <point x="566.602996826" y="-205.0"/>
      <point x="519.113006592" y="-205.0" type="curve" smooth="yes"/>
      <point x="174.887008667" y="-205.0" type="line" smooth="yes"/>
      <point x="127.397018433" y="-205.0"/>
      <point x="99.0000152588" y="-176.602996826"/>
      <point x="99.0000152588" y="-129.113006592" type="curve" smooth="yes"/>
      <point x="99.0000152588" y="1217.0" type="line" smooth="yes"/>
      <point x="99.0000152588" y="1464.0"/>
      <point x="244.000015259" y="1542.0"/>
      <point x="463.000015259" y="1578.0" type="curve" smooth="yes"/>
      <point x="532.000015259" y="1589.0"/>
      <point x="616.000015259" y="1595.0"/>
      <point x="715.000015259" y="1595.0" type="curve" smooth="yes"/>
      <point x="975.000015259" y="1595.0"/>
      <point x="1172.00001526" y="1538.0"/>
      <point x="1236.00001526" y="1350.0" type="curve" smooth="yes"/>
      <point x="1254.00001526" y="1297.0"/>
      <point x="1258.00001526" y="1235.0"/>
      <point x="1258.00001526" y="1170.0" type="curve" smooth="yes"/>
      <point x="1258.00001526" y="1035.0"/>
      <point x="1207.00001526" y="957.0"/>
      <point x="1122.00001526" y="909.0" type="curve" smooth="yes"/>
      <point x="1098.0900116" y="895.852005005"/>
      <point x="1072.40000916" y="885.917999268"/>
      <point x="1044.71002197" y="879.199005127" type="curve" smooth="yes"/>
      <point x="1031.05001831" y="875.884994507"/>
      <point x="1031.41001892" y="865.785995483"/>
      <point x="1045.22001648" y="863.447998047" type="curve" smooth="yes"/>
      <point x="1158.64001465" y="844.246994019"/>
      <point x="1244.17001343" y="788.669006348"/>
      <point x="1293.00001526" y="703.0" type="curve" smooth="yes"/>
      <point x="1316.00001526" y="663.0"/>
      <point x="1327.00001526" y="613.0"/>
      <point x="1327.00001526" y="553.0" type="curve" smooth="yes"/>
      <point x="1327.00001526" y="258.0" type="line" smooth="yes"/>
      <point x="1327.00001526" y="50.0"/>
      <point x="1186.00001526" y="0.0"/>
      <point x="996.000015259" y="-25.0" type="curve" smooth="yes"/>
      <point x="935.000015259" y="-33.0"/>
      <point x="862.000015259" y="-37.0"/>
      <point x="776.000015259" y="-37.0" type="curve" smooth="yes"/>
      <point x="733.000015259" y="-37.0" type="line" smooth="yes"/>
      <point x="707.342010498" y="-37.0"/>
      <point x="692.000015259" y="-21.6578063965"/>
      <point x="692.000015259" y="4.0" type="curve" smooth="yes"/>
      <point x="692.000015259" y="125.5" type="line" smooth="yes"/>
      <point x="692.000015259" y="168.367004395"/>
      <point x="717.633010864" y="194.0"/>
      <point x="760.500015259" y="194.0" type="curve" smooth="yes"/>
      <point x="771.404022217" y="194.0" type="line" smooth="yes"/>
      <point x="808.699035645" y="194.0"/>
      <point x="831.000030518" y="216.300994873"/>
      <point x="831.000030518" y="253.595993042" type="curve" smooth="yes"/>
      <point x="831.000030518" y="695.0" type="line" smooth="yes"/>
      <point x="831.000030518" y="729.419006348"/>
      <point x="810.419036865" y="750.0"/>
      <point x="776.000030518" y="750.0" type="curve" smooth="yes"/>
      <point x="774.000030518" y="750.0" type="line" smooth="yes"/>
      <point x="739.58102417" y="750.0"/>
      <point x="719.000030518" y="770.580993652"/>
      <point x="719.000030518" y="805.0" type="curve" smooth="yes"/>
      <point x="719.000030518" y="926.0" type="line" smooth="yes"/>
      <point x="719.000030518" y="960.419006348"/>
      <point x="739.58102417" y="981.0"/>
      <point x="774.000030518" y="981.0" type="curve" smooth="yes"/>
      <point x="776.000030518" y="981.0" type="line" smooth="yes"/>
      <point x="810.419036865" y="981.0"/>
      <point x="831.000030518" y="1001.58000183"/>
      <point x="831.000030518" y="1036.0" type="curve" smooth="yes"/>
      <point x="831.000030518" y="1298.3999939" type="line" smooth="yes"/>
      <point x="831.000030518" y="1335.69999695"/>
      <point x="808.699035645" y="1358.0"/>
      <point x="771.404037476" y="1358.0" type="curve" smooth="yes"/>
      <point x="654.596038818" y="1358.0" type="line" smooth="yes"/>
      <point x="617.301025391" y="1358.0"/>
      <point x="595.000030518" y="1335.69999695"/>
      <point x="595.000030518" y="1298.3999939" type="curve"/>
    </contour>
  </outline>
</glyph>
<glyph name="atilde" format="1">
  <advance width="1464"/>
  <unicode hex="00E3"/>
  <outline>
    <contour>
      <point x="1296.70507812" y="96.0" type="curve"/>
      <point x="1296.70507812" y="96"/>
      <point x="1078.54492188" y="96.240234375"/>
      <point x="1078.54492188" y="96.48046875" type="curve" smooth="yes"/>
      <point x="1078.43457031" y="178.3203125"/>
      <point x="1050.38476562" y="260.0"/>
      <point x="968.544921875" y="260.0" type="curve" smooth="yes"/>
      <point x="924.544921875" y="260.0"/>
      <point x="893.544921875" y="233.0"/>
      <point x="865.544921875" y="211.0" type="curve" smooth="yes"/>
      <point x="771.544921875" y="136.0"/>
      <point x="673.544921875" y="70.0"/>
      <point x="498.544921875" y="70.0" type="curve" smooth="yes"/>
      <point x="262.544921875" y="70.0"/>
      <point x="163.544921875" y="176.0"/>
      <point x="118.544921875" y="376.0" type="curve"/>
      <point x="105.326171875" y="422.265625"/>
      <point x="96.9609375" y="478.778320312"/>
      <point x="93.4501953125" y="545.140625" type="curve" smooth="yes"/>
      <point x="91.03515625" y="590.78125"/>
      <point x="119.698242188" y="621.0"/>
      <point x="165.401367188" y="621.0" type="curve" smooth="yes"/>
      <point x="299.250976562" y="621.0" type="line" smooth="yes"/>
      <point x="357.198242188" y="621.0"/>
      <point x="381.748046875" y="601.823242188"/>
      <point x="395.776367188" y="545.598632812" type="curve" smooth="yes"/>
      <point x="409.001953125" y="492.587890625"/>
      <point x="439.790039062" y="453.0"/>
      <point x="499.544921875" y="453.0" type="curve" smooth="yes"/>
      <point x="543.544921875" y="453.0"/>
      <point x="577.544921875" y="481.0"/>
      <point x="607.544921875" y="503.0" type="curve" smooth="yes"/>
      <point x="703.544921875" y="573.0"/>
      <point x="796.544921875" y="646.0"/>
      <point x="965.544921875" y="646.0" type="curve" smooth="yes"/>
      <point x="1298.51464844" y="646.0"/>
      <point x="1362.86523438" y="473.19140625"/>
      <point x="1370.65527344" y="171.883789062" type="curve" smooth="yes"/>
      <point x="1371.85546875" y="125.296875"/>
      <point x="1343.3046875" y="96.0"/>
    </contour>
    <contour>
      <point x="771.0" y="680.0" type="curve" smooth="yes"/>
      <point x="735.0" y="680.0" type="line" smooth="yes"/>
      <point x="694.0" y="680.0"/>
      <point x="656.0" y="660.0"/>
      <point x="645.0" y="620.0" type="curve" smooth="yes"/>
      <point x="640.0" y="603.0"/>
      <point x="629.0" y="506.0"/>
      <point x="629.0" y="418.0" type="curve" smooth="yes"/>
      <point x="629.0" y="365.0"/>
      <point x="633.0" y="315.0"/>
      <point x="645.0" y="287.0" type="curve" smooth="yes"/>
      <point x="659.0" y="254.0"/>
      <point x="669.0" y="227.0"/>
      <point x="745.0" y="227.0" type="curve" smooth="yes"/>
      <point x="770.0" y="227.0" type="line" smooth="yes"/>
      <point x="808.0" y="227.0"/>
      <point x="811.0" y="229.0"/>
      <point x="811.0" y="267.0" type="curve" smooth="yes"/>
      <point x="811.0" y="640.0" type="line" smooth="yes"/>
      <point x="811.0" y="678.0"/>
      <point x="809.0" y="680.0"/>
    </contour>
    <contour>
      <point x="809.0" y="114.0" type="curve" smooth="yes"/>
      <point x="768.0" y="33.0"/>
      <point x="660.0" y="-27.0"/>
      <point x="494.0" y="-27.0" type="curve" smooth="yes"/>
      <point x="209.0" y="-27.0"/>
      <point x="73.0" y="107.0"/>
      <point x="73.0" y="388.0" type="curve" smooth="yes"/>
      <point x="73.0" y="777.0"/>
      <point x="277.0" y="823.0"/>
      <point x="770.0" y="823.0" type="curve" smooth="yes"/>
      <point x="796.0" y="823.0"/>
      <point x="811.0" y="823.0"/>
      <point x="811.0" y="824.0" type="curve" smooth="yes"/>
      <point x="811.0" y="1046.0" type="line" smooth="yes"/>
      <point x="811.0" y="1084.0"/>
      <point x="809.0" y="1106.0"/>
      <point x="771.0" y="1106.0" type="curve" smooth="yes"/>
      <point x="712.0" y="1106.0" type="line" smooth="yes"/>
      <point x="674.0" y="1106.0"/>
      <point x="672.0" y="1084.0"/>
      <point x="672.0" y="1046.0" type="curve" smooth="yes"/>
      <point x="672.0" y="971.0" type="line" smooth="yes"/>
      <point x="672.0" y="923.0"/>
      <point x="672.0" y="920.0"/>
      <point x="624.0" y="918.0" type="curve" smooth="yes"/>
      <point x="199.0" y="897.0" type="line"/>
      <point x="195.0" y="897.0" type="line" smooth="yes"/>
      <point x="164.0" y="897.0"/>
      <point x="143.0" y="917.0"/>
      <point x="139.0" y="948.0" type="curve" smooth="yes"/>
      <point x="137.0" y="967.0"/>
      <point x="136.0" y="985.0"/>
      <point x="136.0" y="1005.0" type="curve" smooth="yes"/>
      <point x="136.0" y="1304.0"/>
      <point x="503.0" y="1327.0"/>
      <point x="740.0" y="1327.0" type="curve" smooth="yes"/>
      <point x="1047.0" y="1327.0"/>
      <point x="1381.0" y="1303.0"/>
      <point x="1381.0" y="952.0" type="curve" smooth="yes"/>
      <point x="1381.0" y="257.0" type="line" smooth="yes"/>
      <point x="1382.0" y="192.0"/>
      <point x="1387.0" y="131.0"/>
      <point x="1396.0" y="76.0" type="curve" smooth="yes"/>
      <point x="1397.0" y="71.0"/>
      <point x="1397.0" y="65.0"/>
      <point x="1397.0" y="61.0" type="curve" smooth="yes"/>
      <point x="1397.0" y="23.0"/>
      <point x="1374.0" y="1.0"/>
      <point x="1332.0" y="1.0" type="curve" smooth="yes"/>
      <point x="963.0" y="1.0" type="line" smooth="yes"/>
      <point x="915.0" y="1.0"/>
      <point x="881.0" y="24.0"/>
      <point x="862.0" y="69.0" type="curve" smooth="yes"/>
      <point x="848.0" y="104.0" type="line" smooth="yes"/>
      <point x="840.0" y="124.0"/>
      <point x="838.0" y="145.0"/>
      <point x="831.0" y="145.0" type="curve" smooth="yes"/>
      <point x="827.0" y="145.0"/>
      <point x="820.0" y="136.0"/>
    </contour>
  </outline>
</glyph>
<glyph name="ccedilla" format="1">
  <advance width="1525"/>
  <unicode hex="00E7"/>
  <outline>
    <contour>
      <point x="609.5" y="-104.11328125" type="curve" smooth="yes"/>
      <point x="609.5" y="-75.8876953125" type="line" smooth="yes"/>
      <point x="609.5" y="-28.3974609375"/>
      <point x="637.897460938" y="0.0"/>
      <point x="685.38671875" y="0.0" type="curve" smooth="yes"/>
      <point x="752.5" y="0.0" type="line" smooth="yes"/>
      <point x="773.77734375" y="0.0"/>
      <point x="786.5" y="-12.72265625"/>
      <point x="786.5" y="-34.0" type="curve" smooth="yes"/>
      <point x="786.5" y="-35.2294921875" type="line" smooth="yes"/>
      <point x="786.5" y="-57.185546875"/>
      <point x="798.532226562" y="-69.7451171875"/>
      <point x="820.499023438" y="-70.6865234375" type="curve" smooth="yes"/>
      <point x="940.90234375" y="-75.845703125"/>
      <point x="1016.5" y="-111.603515625"/>
      <point x="1016.5" y="-228.0" type="curve" smooth="yes"/>
      <point x="1016.5" y="-323.0" type="line" smooth="yes"/>
      <point x="1016.5" y="-460.0"/>
      <point x="903.5" y="-481.0"/>
      <point x="763.5" y="-481.0" type="curve" smooth="yes"/>
      <point x="614.5" y="-481.0"/>
      <point x="509.5" y="-457.0"/>
      <point x="509.5" y="-323.0" type="curve" smooth="yes"/>
      <point x="509.5" y="-294.0" type="line" smooth="yes"/>
      <point x="509.5" y="-276.715820312"/>
      <point x="519.142578125" y="-265.810546875"/>
      <point x="536.296875" y="-263.6953125" type="curve" smooth="yes"/>
      <point x="671.989257812" y="-246.95703125" type="line" smooth="yes"/>
      <point x="711.263671875" y="-242.11328125"/>
      <point x="736.5" y="-264.426757812"/>
      <point x="736.5" y="-304.0" type="curve" smooth="yes"/>
      <point x="736.5" y="-340.5" type="line" smooth="yes"/>
      <point x="736.5" y="-359.586914062"/>
      <point x="747.913085938" y="-371.0"/>
      <point x="767.0" y="-371.0" type="curve" smooth="yes"/>
      <point x="769.0" y="-371.0" type="line" smooth="yes"/>
      <point x="788.086914062" y="-371.0"/>
      <point x="799.5" y="-359.586914062"/>
      <point x="799.5" y="-340.5" type="curve" smooth="yes"/>
      <point x="799.5" y="-239.595703125" type="line" smooth="yes"/>
      <point x="799.5" y="-202.30078125"/>
      <point x="777.19921875" y="-180.0"/>
      <point x="739.904296875" y="-180.0" type="curve" smooth="yes"/>
      <point x="685.38671875" y="-180.0" type="line" smooth="yes"/>
      <point x="637.897460938" y="-180.0"/>
      <point x="609.5" y="-151.602539062"/>
    </contour>
    <contour>
      <point x="1421.0" y="792.0" type="curve" smooth="yes"/>
      <point x="1421.0" y="784.0"/>
      <point x="1420.0" y="774.0"/>
      <point x="1408.0" y="774.0" type="curve" smooth="yes"/>
      <point x="884.0" y="774.0" type="line" smooth="yes"/>
      <point x="869.0" y="774.0"/>
      <point x="863.0" y="782.0"/>
      <point x="863.0" y="801.0" type="curve" smooth="yes"/>
      <point x="863.0" y="955.0" type="line" smooth="yes"/>
      <point x="863.0" y="1070.0"/>
      <point x="863.0" y="1105.0"/>
      <point x="772.0" y="1105.0" type="curve" smooth="yes"/>
      <point x="746.0" y="1105.0" type="line" smooth="yes"/>
      <point x="653.0" y="1105.0"/>
      <point x="653.0" y="1073.0"/>
      <point x="653.0" y="955.0" type="curve" smooth="yes"/>
      <point x="653.0" y="391.0" type="line" smooth="yes"/>
      <point x="653.0" y="276.0"/>
      <point x="653.0" y="233.0"/>
      <point x="746.0" y="233.0" type="curve" smooth="yes"/>
      <point x="772.0" y="233.0" type="line" smooth="yes"/>
      <point x="862.0" y="233.0"/>
      <point x="863.0" y="282.0"/>
      <point x="863.0" y="393.0" type="curve" smooth="yes"/>
      <point x="863.0" y="493.0" type="line" smooth="yes"/>
      <point x="863.0" y="515.0"/>
      <point x="865.0" y="524.0"/>
      <point x="878.0" y="524.0" type="curve" smooth="yes"/>
      <point x="1404.0" y="524.0" type="line" smooth="yes"/>
      <point x="1419.0" y="524.0"/>
      <point x="1421.0" y="505.0"/>
      <point x="1421.0" y="502.0" type="curve"/>
      <point x="1420.0" y="454.0"/>
      <point x="1414.0" y="405.0"/>
      <point x="1404.0" y="352.0" type="curve" smooth="yes"/>
      <point x="1334.0" y="-12.0"/>
      <point x="1068.0" y="-27.0"/>
      <point x="763.0" y="-27.0" type="curve" smooth="yes"/>
      <point x="445.0" y="-27.0"/>
      <point x="175.0" y="-7.0"/>
      <point x="115.0" y="353.0" type="curve" smooth="yes"/>
      <point x="100.0" y="445.0"/>
      <point x="102.0" y="542.0"/>
      <point x="102.0" y="641.0" type="curve" smooth="yes"/>
      <point x="102.0" y="743.0"/>
      <point x="100.0" y="848.0"/>
      <point x="115.0" y="953.0" type="curve" smooth="yes"/>
      <point x="163.0" y="1293.0"/>
      <point x="467.0" y="1327.0"/>
      <point x="764.0" y="1327.0" type="curve" smooth="yes"/>
      <point x="1083.0" y="1327.0"/>
      <point x="1338.0" y="1292.0"/>
      <point x="1404.0" y="952.0" type="curve" smooth="yes"/>
      <point x="1414.0" y="898.0"/>
      <point x="1421.0" y="845.0"/>
    </contour>
  </outline>
</glyph>
